%TF.GenerationSoftware,KiCad,Pcbnew,9.0.1*%
%TF.CreationDate,2026-03-04T19:57:25-05:00*%
%TF.ProjectId,USBC_PD_Trigger_Kicad_V2,55534243-5f50-4445-9f54-726967676572,rev?*%
%TF.SameCoordinates,Original*%
%TF.FileFunction,Copper,L2,Bot*%
%TF.FilePolarity,Positive*%
%FSLAX46Y46*%
G04 Gerber Fmt 4.6, Leading zero omitted, Abs format (unit mm)*
G04 Created by KiCad (PCBNEW 9.0.1) date 2026-03-04 19:57:25*
%MOMM*%
%LPD*%
G01*
G04 APERTURE LIST*
G04 Aperture macros list*
%AMRoundRect*
0 Rectangle with rounded corners*
0 $1 Rounding radius*
0 $2 $3 $4 $5 $6 $7 $8 $9 X,Y pos of 4 corners*
0 Add a 4 corners polygon primitive as box body*
4,1,4,$2,$3,$4,$5,$6,$7,$8,$9,$2,$3,0*
0 Add four circle primitives for the rounded corners*
1,1,$1+$1,$2,$3*
1,1,$1+$1,$4,$5*
1,1,$1+$1,$6,$7*
1,1,$1+$1,$8,$9*
0 Add four rect primitives between the rounded corners*
20,1,$1+$1,$2,$3,$4,$5,0*
20,1,$1+$1,$4,$5,$6,$7,0*
20,1,$1+$1,$6,$7,$8,$9,0*
20,1,$1+$1,$8,$9,$2,$3,0*%
G04 Aperture macros list end*
%TA.AperFunction,ComponentPad*%
%ADD10RoundRect,0.250001X0.799999X-0.799999X0.799999X0.799999X-0.799999X0.799999X-0.799999X-0.799999X0*%
%TD*%
%TA.AperFunction,ComponentPad*%
%ADD11C,2.100000*%
%TD*%
%TA.AperFunction,ComponentPad*%
%ADD12C,0.500000*%
%TD*%
%TA.AperFunction,SMDPad,CuDef*%
%ADD13O,3.000000X2.000000*%
%TD*%
%TA.AperFunction,ComponentPad*%
%ADD14R,1.700000X1.700000*%
%TD*%
%TA.AperFunction,ComponentPad*%
%ADD15C,1.700000*%
%TD*%
%TA.AperFunction,HeatsinkPad*%
%ADD16O,1.700000X1.100000*%
%TD*%
%TA.AperFunction,ViaPad*%
%ADD17C,0.600000*%
%TD*%
%TA.AperFunction,Conductor*%
%ADD18C,0.600000*%
%TD*%
%TA.AperFunction,Conductor*%
%ADD19C,0.400000*%
%TD*%
%TA.AperFunction,Conductor*%
%ADD20C,0.200000*%
%TD*%
G04 APERTURE END LIST*
D10*
%TO.P,J2,1,Pin_1*%
%TO.N,GND*%
X128645500Y-71080000D03*
D11*
%TO.P,J2,2,Pin_2*%
%TO.N,/VOUT*%
X128645500Y-66080000D03*
%TD*%
D12*
%TO.P,U2,2,VIN*%
%TO.N,/VBUS*%
X104881000Y-62865000D03*
D13*
X105381000Y-62865000D03*
D12*
X105881000Y-62865000D03*
%TD*%
D14*
%TO.P,J3,1,Pin_1*%
%TO.N,GND*%
X130810000Y-81788000D03*
D15*
%TO.P,J3,2,Pin_2*%
%TO.N,VCC*%
X130810000Y-79248000D03*
%TO.P,J3,3,Pin_3*%
%TO.N,Net-(J3-Pin_3)*%
X130810000Y-76708000D03*
%TD*%
D16*
%TO.P,J1,S1,SHIELD*%
%TO.N,GND*%
X101298000Y-55878000D03*
X97498000Y-55878000D03*
X101298000Y-64518000D03*
X97498000Y-64518000D03*
%TD*%
D17*
%TO.N,GND*%
X96500000Y-79500000D03*
X97500000Y-79500000D03*
X96500000Y-77500000D03*
X96500000Y-78500000D03*
X97500000Y-78500000D03*
X97500000Y-77500000D03*
X104500000Y-80500000D03*
X104500000Y-82500000D03*
X105500000Y-80500000D03*
X105500000Y-83500000D03*
X105500000Y-82500000D03*
X105500000Y-81500000D03*
X104500000Y-81500000D03*
X104500000Y-83500000D03*
X101500000Y-81500000D03*
X100500000Y-80500000D03*
X101500000Y-82500000D03*
X102500000Y-80500000D03*
X103500000Y-82500000D03*
X100500000Y-82500000D03*
X102500000Y-83500000D03*
X102500000Y-82500000D03*
X103500000Y-80500000D03*
X100500000Y-81500000D03*
X103500000Y-81500000D03*
X102500000Y-81500000D03*
X101500000Y-80500000D03*
X103500000Y-83500000D03*
X101500000Y-83500000D03*
X100500000Y-83500000D03*
X97500000Y-81500000D03*
X96500000Y-80500000D03*
X97500000Y-82500000D03*
X98500000Y-80500000D03*
X99500000Y-82500000D03*
X96500000Y-82500000D03*
X98500000Y-83500000D03*
X98500000Y-82500000D03*
X99500000Y-80500000D03*
X96500000Y-81500000D03*
X99500000Y-81500000D03*
X98500000Y-81500000D03*
X97500000Y-80500000D03*
X99500000Y-83500000D03*
X97500000Y-83500000D03*
X96500000Y-83500000D03*
X115000000Y-55000000D03*
X119500000Y-74500000D03*
X108331000Y-67310000D03*
X130500000Y-56000000D03*
X131500000Y-58000000D03*
X116000000Y-56000000D03*
X96000000Y-54000000D03*
X108000000Y-54000000D03*
X132500000Y-54000000D03*
X96000000Y-61000000D03*
X118500000Y-69500000D03*
X131500000Y-59000000D03*
X110000000Y-55000000D03*
X127500000Y-57000000D03*
X120500000Y-76500000D03*
X131500000Y-60000000D03*
X112000000Y-54000000D03*
X129500000Y-59000000D03*
X119500000Y-69500000D03*
X132500000Y-58000000D03*
X109000000Y-54000000D03*
X130500000Y-57000000D03*
X125476000Y-62738000D03*
X96000000Y-63000000D03*
X119500000Y-71500000D03*
X97000000Y-63000000D03*
X126500000Y-57000000D03*
X111000000Y-55000000D03*
X132500000Y-60000000D03*
X117000000Y-55000000D03*
X106000000Y-54000000D03*
X127500000Y-58000000D03*
X129500000Y-57000000D03*
X105000000Y-55000000D03*
X127500000Y-54000000D03*
X103000000Y-56000000D03*
X102000000Y-54000000D03*
X118500000Y-70500000D03*
X132500000Y-61000000D03*
X132500000Y-56000000D03*
X118500000Y-76500000D03*
X112000000Y-55000000D03*
X97000000Y-58000000D03*
X101000000Y-54000000D03*
X118500000Y-72500000D03*
X120500000Y-72500000D03*
X120500000Y-70500000D03*
X128500000Y-55000000D03*
X120500000Y-75500000D03*
X132500000Y-57000000D03*
X118500000Y-73500000D03*
X109000000Y-55000000D03*
X118500000Y-71500000D03*
X132500000Y-59000000D03*
X131500000Y-54000000D03*
X96000000Y-57000000D03*
X104000000Y-56000000D03*
X103000000Y-55000000D03*
X130500000Y-59000000D03*
X116000000Y-54000000D03*
X113000000Y-55000000D03*
X114000000Y-56000000D03*
X132500000Y-55000000D03*
X128500000Y-58000000D03*
X129500000Y-55000000D03*
X97000000Y-57000000D03*
X105000000Y-56000000D03*
X98000000Y-54000000D03*
X130500000Y-55000000D03*
X126500000Y-55000000D03*
X97000000Y-61000000D03*
X106000000Y-55000000D03*
X130500000Y-54000000D03*
X114000000Y-55000000D03*
X97000000Y-62000000D03*
X113000000Y-54000000D03*
X113000000Y-56000000D03*
X120500000Y-69500000D03*
X126500000Y-58000000D03*
X128500000Y-57000000D03*
X96000000Y-58000000D03*
X120500000Y-73500000D03*
X100000000Y-54000000D03*
X126500000Y-56000000D03*
X119500000Y-72500000D03*
X129500000Y-54000000D03*
X96000000Y-59000000D03*
X102000000Y-55000000D03*
X115000000Y-56000000D03*
X129500000Y-56000000D03*
X128500000Y-56000000D03*
X130500000Y-58000000D03*
X107000000Y-54000000D03*
X97000000Y-60000000D03*
X118500000Y-74500000D03*
X119500000Y-75500000D03*
X105000000Y-54000000D03*
X103000000Y-54000000D03*
X128500000Y-54000000D03*
X119500000Y-76500000D03*
X96000000Y-62000000D03*
X118500000Y-75500000D03*
X131500000Y-56000000D03*
X127500000Y-56000000D03*
X131500000Y-57000000D03*
X99000000Y-54000000D03*
X126500000Y-54000000D03*
X132500000Y-62000000D03*
X131500000Y-62000000D03*
X111000000Y-54000000D03*
X129500000Y-58000000D03*
X112000000Y-56000000D03*
X114000000Y-54000000D03*
X104000000Y-55000000D03*
X127500000Y-55000000D03*
X116000000Y-55000000D03*
X119500000Y-70500000D03*
X110000000Y-54000000D03*
X131500000Y-61000000D03*
X115000000Y-54000000D03*
X97000000Y-54000000D03*
X120500000Y-71500000D03*
X119500000Y-73500000D03*
X131500000Y-55000000D03*
X110363000Y-61976000D03*
X97000000Y-59000000D03*
X120500000Y-74500000D03*
X117000000Y-54000000D03*
X111000000Y-56000000D03*
X96000000Y-60000000D03*
X104000000Y-54000000D03*
X117000000Y-56000000D03*
%TO.N,/CC2*%
X108458000Y-57658000D03*
X114554000Y-63754000D03*
%TO.N,/CC1*%
X107442000Y-54864000D03*
X116991000Y-64000000D03*
%TO.N,/INT_N*%
X115698397Y-68959603D03*
X117602000Y-69342000D03*
%TO.N,/SCL*%
X116332000Y-81534000D03*
X114383246Y-81620337D03*
%TO.N,Net-(U3-FLTB)*%
X123952000Y-57912000D03*
X123952000Y-63500000D03*
%TD*%
D18*
%TO.N,/CC2*%
X108458000Y-57658000D02*
X114554000Y-63754000D01*
%TO.N,/CC1*%
X116991000Y-64000000D02*
X116237000Y-63246000D01*
X115824000Y-63246000D02*
X107442000Y-54864000D01*
X116237000Y-63246000D02*
X115824000Y-63246000D01*
D19*
%TO.N,/INT_N*%
X115698397Y-68959603D02*
X116080794Y-69342000D01*
X116080794Y-69342000D02*
X117602000Y-69342000D01*
D20*
%TO.N,/SCL*%
X114383246Y-81554971D02*
X114404217Y-81534000D01*
X114404217Y-81534000D02*
X116332000Y-81534000D01*
X114383246Y-81620337D02*
X114383246Y-81554971D01*
D19*
%TO.N,Net-(U3-FLTB)*%
X123952000Y-63500000D02*
X123952000Y-57912000D01*
%TD*%
%TA.AperFunction,Conductor*%
%TO.N,GND*%
G36*
X132949788Y-53351454D02*
G01*
X133030570Y-53405430D01*
X133084546Y-53486212D01*
X133103500Y-53581500D01*
X133103500Y-83832500D01*
X133084546Y-83927788D01*
X133030570Y-84008570D01*
X132949788Y-84062546D01*
X132854500Y-84081500D01*
X95745500Y-84081500D01*
X95650212Y-84062546D01*
X95569430Y-84008570D01*
X95515454Y-83927788D01*
X95496500Y-83832500D01*
X95496500Y-81547861D01*
X113832746Y-81547861D01*
X113832746Y-81692812D01*
X113870261Y-81832819D01*
X113870263Y-81832824D01*
X113942734Y-81958348D01*
X113942735Y-81958349D01*
X113942737Y-81958352D01*
X114045231Y-82060846D01*
X114170761Y-82133321D01*
X114310771Y-82170837D01*
X114455720Y-82170837D01*
X114455721Y-82170837D01*
X114595731Y-82133321D01*
X114721261Y-82060846D01*
X114735125Y-82046982D01*
X114824678Y-81957430D01*
X114905460Y-81903454D01*
X115000747Y-81884500D01*
X115800837Y-81884500D01*
X115896125Y-81903454D01*
X115976903Y-81957427D01*
X115993985Y-81974509D01*
X116119515Y-82046984D01*
X116259525Y-82084500D01*
X116404474Y-82084500D01*
X116404475Y-82084500D01*
X116544485Y-82046984D01*
X116670015Y-81974509D01*
X116772509Y-81872015D01*
X116844984Y-81746485D01*
X116882500Y-81606475D01*
X116882500Y-81461525D01*
X116844984Y-81321515D01*
X116772509Y-81195985D01*
X116670015Y-81093491D01*
X116670012Y-81093489D01*
X116670011Y-81093488D01*
X116544487Y-81021017D01*
X116544482Y-81021015D01*
X116404475Y-80983500D01*
X116259525Y-80983500D01*
X116119517Y-81021015D01*
X116119512Y-81021017D01*
X115993988Y-81093488D01*
X115993987Y-81093489D01*
X115993985Y-81093490D01*
X115993985Y-81093491D01*
X115976903Y-81110572D01*
X115896125Y-81164546D01*
X115800837Y-81183500D01*
X114794341Y-81183500D01*
X114699053Y-81164546D01*
X114669841Y-81150140D01*
X114595733Y-81107354D01*
X114595728Y-81107352D01*
X114455721Y-81069837D01*
X114310771Y-81069837D01*
X114170763Y-81107352D01*
X114170758Y-81107354D01*
X114045234Y-81179825D01*
X113942734Y-81282325D01*
X113870263Y-81407849D01*
X113870261Y-81407854D01*
X113832746Y-81547861D01*
X95496500Y-81547861D01*
X95496500Y-76621393D01*
X129709500Y-76621393D01*
X129709500Y-76794606D01*
X129709501Y-76794621D01*
X129736597Y-76965697D01*
X129790124Y-77130437D01*
X129790126Y-77130443D01*
X129868770Y-77284792D01*
X129970581Y-77424922D01*
X129970583Y-77424924D01*
X129970586Y-77424928D01*
X130093072Y-77547414D01*
X130093075Y-77547416D01*
X130093077Y-77547418D01*
X130233207Y-77649229D01*
X130233209Y-77649230D01*
X130233212Y-77649232D01*
X130387555Y-77727873D01*
X130406846Y-77734141D01*
X130428530Y-77741187D01*
X130513298Y-77788659D01*
X130573446Y-77864957D01*
X130599817Y-77958464D01*
X130588398Y-78054945D01*
X130540926Y-78139713D01*
X130464628Y-78199861D01*
X130428530Y-78214813D01*
X130387562Y-78228124D01*
X130387556Y-78228126D01*
X130233207Y-78306770D01*
X130093077Y-78408581D01*
X129970581Y-78531077D01*
X129868770Y-78671207D01*
X129790126Y-78825556D01*
X129790124Y-78825562D01*
X129736597Y-78990302D01*
X129709501Y-79161378D01*
X129709500Y-79161393D01*
X129709500Y-79334606D01*
X129709501Y-79334621D01*
X129736597Y-79505697D01*
X129790124Y-79670437D01*
X129790126Y-79670443D01*
X129868770Y-79824792D01*
X129970581Y-79964922D01*
X129970583Y-79964924D01*
X129970586Y-79964928D01*
X130093072Y-80087414D01*
X130093075Y-80087416D01*
X130093077Y-80087418D01*
X130233207Y-80189229D01*
X130233209Y-80189230D01*
X130233212Y-80189232D01*
X130387555Y-80267873D01*
X130552299Y-80321402D01*
X130723389Y-80348500D01*
X130723393Y-80348500D01*
X130896607Y-80348500D01*
X130896611Y-80348500D01*
X131067701Y-80321402D01*
X131232445Y-80267873D01*
X131386788Y-80189232D01*
X131526928Y-80087414D01*
X131649414Y-79964928D01*
X131751232Y-79824788D01*
X131829873Y-79670445D01*
X131883402Y-79505701D01*
X131910500Y-79334611D01*
X131910500Y-79161389D01*
X131883402Y-78990299D01*
X131829873Y-78825555D01*
X131751232Y-78671212D01*
X131751230Y-78671209D01*
X131751229Y-78671207D01*
X131649418Y-78531077D01*
X131649416Y-78531075D01*
X131649414Y-78531072D01*
X131526928Y-78408586D01*
X131526924Y-78408583D01*
X131526922Y-78408581D01*
X131386792Y-78306770D01*
X131232443Y-78228126D01*
X131232434Y-78228122D01*
X131191470Y-78214813D01*
X131106702Y-78167342D01*
X131046554Y-78091045D01*
X131020182Y-77997538D01*
X131031601Y-77901056D01*
X131079072Y-77816288D01*
X131155369Y-77756140D01*
X131191470Y-77741187D01*
X131232434Y-77727877D01*
X131232437Y-77727875D01*
X131232445Y-77727873D01*
X131386788Y-77649232D01*
X131526928Y-77547414D01*
X131649414Y-77424928D01*
X131751232Y-77284788D01*
X131829873Y-77130445D01*
X131883402Y-76965701D01*
X131910500Y-76794611D01*
X131910500Y-76621389D01*
X131883402Y-76450299D01*
X131829873Y-76285555D01*
X131751232Y-76131212D01*
X131751230Y-76131209D01*
X131751229Y-76131207D01*
X131649418Y-75991077D01*
X131649416Y-75991075D01*
X131649414Y-75991072D01*
X131526928Y-75868586D01*
X131526924Y-75868583D01*
X131526922Y-75868581D01*
X131386792Y-75766770D01*
X131232443Y-75688126D01*
X131232437Y-75688124D01*
X131138195Y-75657503D01*
X131067701Y-75634598D01*
X131067699Y-75634597D01*
X131067697Y-75634597D01*
X130896621Y-75607501D01*
X130896614Y-75607500D01*
X130896611Y-75607500D01*
X130723389Y-75607500D01*
X130723386Y-75607500D01*
X130723378Y-75607501D01*
X130552302Y-75634597D01*
X130387562Y-75688124D01*
X130387556Y-75688126D01*
X130233207Y-75766770D01*
X130093077Y-75868581D01*
X129970581Y-75991077D01*
X129868770Y-76131207D01*
X129790126Y-76285556D01*
X129790124Y-76285562D01*
X129736597Y-76450302D01*
X129709501Y-76621378D01*
X129709500Y-76621393D01*
X95496500Y-76621393D01*
X95496500Y-68887127D01*
X115147897Y-68887127D01*
X115147897Y-69032078D01*
X115185412Y-69172085D01*
X115185414Y-69172090D01*
X115257885Y-69297614D01*
X115257886Y-69297615D01*
X115257888Y-69297618D01*
X115360382Y-69400112D01*
X115485912Y-69472587D01*
X115542173Y-69487662D01*
X115623419Y-69526249D01*
X115639651Y-69537960D01*
X115804180Y-69702489D01*
X115906907Y-69761799D01*
X115931120Y-69768286D01*
X116021485Y-69792500D01*
X117214571Y-69792500D01*
X117309859Y-69811454D01*
X117339064Y-69825856D01*
X117389515Y-69854984D01*
X117529525Y-69892500D01*
X117674474Y-69892500D01*
X117674475Y-69892500D01*
X117814485Y-69854984D01*
X117940015Y-69782509D01*
X118042509Y-69680015D01*
X118114984Y-69554485D01*
X118152500Y-69414475D01*
X118152500Y-69269525D01*
X118114984Y-69129515D01*
X118042509Y-69003985D01*
X117940015Y-68901491D01*
X117940012Y-68901489D01*
X117940011Y-68901488D01*
X117814487Y-68829017D01*
X117814482Y-68829015D01*
X117674475Y-68791500D01*
X117529525Y-68791500D01*
X117389517Y-68829015D01*
X117389516Y-68829015D01*
X117389513Y-68829017D01*
X117339069Y-68858140D01*
X117247073Y-68889370D01*
X117214571Y-68891500D01*
X116437562Y-68891500D01*
X116342274Y-68872546D01*
X116261492Y-68818570D01*
X116222175Y-68759730D01*
X116219540Y-68761252D01*
X116211382Y-68747122D01*
X116211381Y-68747118D01*
X116138906Y-68621588D01*
X116036412Y-68519094D01*
X116036409Y-68519092D01*
X116036408Y-68519091D01*
X115910884Y-68446620D01*
X115910879Y-68446618D01*
X115770872Y-68409103D01*
X115625922Y-68409103D01*
X115485914Y-68446618D01*
X115485909Y-68446620D01*
X115360385Y-68519091D01*
X115257885Y-68621591D01*
X115185414Y-68747115D01*
X115185412Y-68747120D01*
X115147897Y-68887127D01*
X95496500Y-68887127D01*
X95496500Y-65977638D01*
X127345000Y-65977638D01*
X127345000Y-66182361D01*
X127377022Y-66384531D01*
X127440278Y-66579214D01*
X127440282Y-66579224D01*
X127533211Y-66761607D01*
X127533213Y-66761610D01*
X127653534Y-66927219D01*
X127798281Y-67071966D01*
X127963890Y-67192287D01*
X128146281Y-67285220D01*
X128340966Y-67348477D01*
X128412075Y-67359739D01*
X128543138Y-67380499D01*
X128543145Y-67380499D01*
X128543148Y-67380500D01*
X128543151Y-67380500D01*
X128747849Y-67380500D01*
X128747852Y-67380500D01*
X128747855Y-67380499D01*
X128747861Y-67380499D01*
X128843370Y-67365371D01*
X128950034Y-67348477D01*
X129144719Y-67285220D01*
X129327110Y-67192287D01*
X129492719Y-67071966D01*
X129637466Y-66927219D01*
X129757787Y-66761610D01*
X129850720Y-66579219D01*
X129913977Y-66384534D01*
X129946000Y-66182352D01*
X129946000Y-65977648D01*
X129945999Y-65977645D01*
X129945999Y-65977638D01*
X129913977Y-65775468D01*
X129913977Y-65775466D01*
X129850720Y-65580781D01*
X129757787Y-65398390D01*
X129637466Y-65232781D01*
X129492719Y-65088034D01*
X129327110Y-64967713D01*
X129327109Y-64967712D01*
X129327107Y-64967711D01*
X129144724Y-64874782D01*
X129144714Y-64874778D01*
X128950031Y-64811522D01*
X128747861Y-64779500D01*
X128747852Y-64779500D01*
X128543148Y-64779500D01*
X128543138Y-64779500D01*
X128340968Y-64811522D01*
X128146285Y-64874778D01*
X128146275Y-64874782D01*
X127963892Y-64967711D01*
X127798279Y-65088035D01*
X127653535Y-65232779D01*
X127533211Y-65398392D01*
X127440282Y-65580775D01*
X127440278Y-65580785D01*
X127377022Y-65775468D01*
X127345000Y-65977638D01*
X95496500Y-65977638D01*
X95496500Y-62766587D01*
X103630500Y-62766587D01*
X103630500Y-62963412D01*
X103630501Y-62963428D01*
X103659270Y-63145067D01*
X103661291Y-63157826D01*
X103722116Y-63345025D01*
X103811476Y-63520405D01*
X103811479Y-63520409D01*
X103811479Y-63520410D01*
X103826813Y-63541515D01*
X103927172Y-63679646D01*
X104066354Y-63818828D01*
X104119434Y-63857393D01*
X104215961Y-63927525D01*
X104225595Y-63934524D01*
X104400975Y-64023884D01*
X104588174Y-64084709D01*
X104782583Y-64115500D01*
X104782587Y-64115500D01*
X105979413Y-64115500D01*
X105979417Y-64115500D01*
X106173826Y-64084709D01*
X106361025Y-64023884D01*
X106536405Y-63934524D01*
X106695646Y-63818828D01*
X106834828Y-63679646D01*
X106950524Y-63520405D01*
X107039884Y-63345025D01*
X107100709Y-63157826D01*
X107131500Y-62963417D01*
X107131500Y-62766583D01*
X107100709Y-62572174D01*
X107039884Y-62384975D01*
X106950524Y-62209595D01*
X106834828Y-62050354D01*
X106695646Y-61911172D01*
X106695642Y-61911169D01*
X106536410Y-61795479D01*
X106536407Y-61795477D01*
X106536405Y-61795476D01*
X106361025Y-61706116D01*
X106361024Y-61706115D01*
X106361023Y-61706115D01*
X106361017Y-61706113D01*
X106253928Y-61671318D01*
X106173826Y-61645291D01*
X106173824Y-61645290D01*
X106173822Y-61645290D01*
X105979428Y-61614501D01*
X105979419Y-61614500D01*
X105979417Y-61614500D01*
X104782583Y-61614500D01*
X104782580Y-61614500D01*
X104782571Y-61614501D01*
X104588177Y-61645290D01*
X104400982Y-61706113D01*
X104400976Y-61706115D01*
X104309740Y-61752602D01*
X104225595Y-61795476D01*
X104225592Y-61795477D01*
X104225590Y-61795479D01*
X104225589Y-61795479D01*
X104066357Y-61911169D01*
X103927169Y-62050357D01*
X103811479Y-62209589D01*
X103811479Y-62209590D01*
X103722115Y-62384976D01*
X103722113Y-62384982D01*
X103661290Y-62572177D01*
X103630501Y-62766571D01*
X103630500Y-62766587D01*
X95496500Y-62766587D01*
X95496500Y-54791522D01*
X106891500Y-54791522D01*
X106891500Y-54936477D01*
X106929013Y-55076478D01*
X106929015Y-55076483D01*
X106929016Y-55076485D01*
X107001490Y-55202015D01*
X108491821Y-56692346D01*
X108545795Y-56773125D01*
X108564749Y-56868413D01*
X108545795Y-56963701D01*
X108491819Y-57044483D01*
X108411037Y-57098459D01*
X108380196Y-57108928D01*
X108245516Y-57145015D01*
X108245509Y-57145018D01*
X108119987Y-57217488D01*
X108017488Y-57319987D01*
X107945015Y-57445516D01*
X107945013Y-57445521D01*
X107907500Y-57585522D01*
X107907500Y-57730477D01*
X107945013Y-57870478D01*
X107945015Y-57870483D01*
X107945016Y-57870485D01*
X108017490Y-57996015D01*
X114215985Y-64194510D01*
X114215987Y-64194511D01*
X114215989Y-64194513D01*
X114247124Y-64212488D01*
X114305019Y-64245913D01*
X114341515Y-64266984D01*
X114481525Y-64304500D01*
X114626474Y-64304500D01*
X114626475Y-64304500D01*
X114766485Y-64266984D01*
X114802981Y-64245913D01*
X114892015Y-64194510D01*
X114994510Y-64092015D01*
X115066984Y-63966485D01*
X115095386Y-63860489D01*
X115104216Y-63827532D01*
X115147185Y-63740400D01*
X115220229Y-63676341D01*
X115312228Y-63645110D01*
X115409175Y-63651464D01*
X115470044Y-63681479D01*
X115471851Y-63678350D01*
X115485985Y-63686510D01*
X115588875Y-63745913D01*
X115611515Y-63758984D01*
X115751525Y-63796500D01*
X115751526Y-63796500D01*
X115896474Y-63796500D01*
X115905835Y-63796500D01*
X116001123Y-63815454D01*
X116081904Y-63869430D01*
X116406985Y-64194510D01*
X116652985Y-64440510D01*
X116722574Y-64480687D01*
X116778509Y-64512981D01*
X116778512Y-64512982D01*
X116778515Y-64512984D01*
X116918525Y-64550500D01*
X116918526Y-64550500D01*
X117063474Y-64550500D01*
X117063475Y-64550500D01*
X117203485Y-64512984D01*
X117329015Y-64440510D01*
X117431510Y-64338015D01*
X117503984Y-64212485D01*
X117527369Y-64125210D01*
X117538223Y-64084707D01*
X117541500Y-64072475D01*
X117541500Y-63927525D01*
X117525933Y-63869430D01*
X117503984Y-63787515D01*
X117487512Y-63758984D01*
X117431510Y-63661985D01*
X116575015Y-62805490D01*
X116507632Y-62766587D01*
X116449487Y-62733017D01*
X116449486Y-62733016D01*
X116449485Y-62733016D01*
X116365130Y-62710413D01*
X116309475Y-62695500D01*
X116144565Y-62695500D01*
X116134010Y-62694600D01*
X116097323Y-62683994D01*
X116059877Y-62676546D01*
X116050969Y-62670594D01*
X116040677Y-62667619D01*
X116010846Y-62643785D01*
X115979095Y-62622570D01*
X114971025Y-61614500D01*
X111196050Y-57839525D01*
X123401500Y-57839525D01*
X123401500Y-57984475D01*
X123439016Y-58124485D01*
X123488015Y-58209354D01*
X123496185Y-58248259D01*
X123501500Y-58299429D01*
X123501500Y-63112568D01*
X123482546Y-63207856D01*
X123468142Y-63237066D01*
X123439016Y-63287513D01*
X123439015Y-63287517D01*
X123401500Y-63427524D01*
X123401500Y-63572475D01*
X123439015Y-63712482D01*
X123439017Y-63712487D01*
X123511488Y-63838011D01*
X123511489Y-63838012D01*
X123511491Y-63838015D01*
X123613985Y-63940509D01*
X123613987Y-63940510D01*
X123613988Y-63940511D01*
X123658982Y-63966488D01*
X123739515Y-64012984D01*
X123879525Y-64050500D01*
X124024474Y-64050500D01*
X124024475Y-64050500D01*
X124164485Y-64012984D01*
X124290015Y-63940509D01*
X124392509Y-63838015D01*
X124464984Y-63712485D01*
X124502500Y-63572475D01*
X124502500Y-63427525D01*
X124464984Y-63287515D01*
X124464983Y-63287513D01*
X124435858Y-63237066D01*
X124404630Y-63145067D01*
X124402500Y-63112568D01*
X124402500Y-58299429D01*
X124421454Y-58204141D01*
X124435856Y-58174935D01*
X124464984Y-58124485D01*
X124502500Y-57984475D01*
X124502500Y-57839525D01*
X124464984Y-57699515D01*
X124392509Y-57573985D01*
X124290015Y-57471491D01*
X124290012Y-57471489D01*
X124290011Y-57471488D01*
X124164487Y-57399017D01*
X124164482Y-57399015D01*
X124024475Y-57361500D01*
X123879525Y-57361500D01*
X123739517Y-57399015D01*
X123739512Y-57399017D01*
X123613988Y-57471488D01*
X123511488Y-57573988D01*
X123439017Y-57699512D01*
X123439015Y-57699517D01*
X123406465Y-57820992D01*
X123406465Y-57820994D01*
X123401500Y-57839525D01*
X111196050Y-57839525D01*
X107780015Y-54423490D01*
X107780012Y-54423488D01*
X107654490Y-54351018D01*
X107654483Y-54351015D01*
X107565721Y-54327231D01*
X107514475Y-54313500D01*
X107369525Y-54313500D01*
X107332010Y-54323552D01*
X107229516Y-54351015D01*
X107229509Y-54351018D01*
X107103987Y-54423488D01*
X107001488Y-54525987D01*
X106929015Y-54651516D01*
X106929013Y-54651521D01*
X106891500Y-54791522D01*
X95496500Y-54791522D01*
X95496500Y-53581500D01*
X95515454Y-53486212D01*
X95569430Y-53405430D01*
X95650212Y-53351454D01*
X95745500Y-53332500D01*
X132854500Y-53332500D01*
X132949788Y-53351454D01*
G37*
%TD.AperFunction*%
%TD*%
M02*
