%TF.GenerationSoftware,KiCad,Pcbnew,9.0.1*%
%TF.CreationDate,2026-03-04T19:57:25-05:00*%
%TF.ProjectId,USBC_PD_Trigger_Kicad_V2,55534243-5f50-4445-9f54-726967676572,rev?*%
%TF.SameCoordinates,Original*%
%TF.FileFunction,Legend,Top*%
%TF.FilePolarity,Positive*%
%FSLAX46Y46*%
G04 Gerber Fmt 4.6, Leading zero omitted, Abs format (unit mm)*
G04 Created by KiCad (PCBNEW 9.0.1) date 2026-03-04 19:57:25*
%MOMM*%
%LPD*%
G01*
G04 APERTURE LIST*
G04 Aperture macros list*
%AMRoundRect*
0 Rectangle with rounded corners*
0 $1 Rounding radius*
0 $2 $3 $4 $5 $6 $7 $8 $9 X,Y pos of 4 corners*
0 Add a 4 corners polygon primitive as box body*
4,1,4,$2,$3,$4,$5,$6,$7,$8,$9,$2,$3,0*
0 Add four circle primitives for the rounded corners*
1,1,$1+$1,$2,$3*
1,1,$1+$1,$4,$5*
1,1,$1+$1,$6,$7*
1,1,$1+$1,$8,$9*
0 Add four rect primitives between the rounded corners*
20,1,$1+$1,$2,$3,$4,$5,0*
20,1,$1+$1,$4,$5,$6,$7,0*
20,1,$1+$1,$6,$7,$8,$9,0*
20,1,$1+$1,$8,$9,$2,$3,0*%
%AMFreePoly0*
4,1,123,0.971755,0.948895,1.016180,0.945771,1.060427,0.940564,1.104369,0.933299,1.147930,0.923952,1.190983,0.912598,1.233477,0.899238,1.275286,0.883896,1.316332,0.866599,1.356541,0.847422,1.395784,0.826365,1.434011,0.803480,1.471120,0.778842,1.507036,0.752502,1.541656,0.724511,1.574956,0.694895,1.606807,0.663780,1.637186,0.631191,1.665989,0.597231,1.693167,0.561951,
1.718669,0.525425,1.742418,0.487757,1.764389,0.448997,1.784531,0.409271,1.802769,0.329972,2.700102,0.329972,2.700102,-0.330023,1.802769,-0.330023,1.784531,-0.409373,1.764389,-0.449098,1.742418,-0.487859,1.718669,-0.525527,1.693167,-0.562052,1.665989,-0.597333,1.637186,-0.631293,1.606807,-0.663881,1.574956,-0.694996,1.541656,-0.724613,1.507036,-0.752604,1.471120,-0.778943,
1.434011,-0.803581,1.395784,-0.826467,1.356541,-0.847523,1.316332,-0.866701,1.275286,-0.883998,1.233477,-0.899340,1.190983,-0.912700,1.147930,-0.924054,1.104369,-0.933401,1.060427,-0.940665,1.016180,-0.945872,0.971755,-0.948997,0.927229,-0.950064,-0.926975,-0.950064,-0.971501,-0.948997,-1.015926,-0.945872,-1.060173,-0.940665,-1.104115,-0.933401,-1.147676,-0.924054,-1.190729,-0.912700,
-1.233223,-0.899340,-1.275032,-0.883998,-1.316078,-0.866701,-1.356287,-0.847523,-1.395530,-0.826467,-1.433757,-0.803581,-1.470866,-0.778943,-1.506782,-0.752604,-1.541402,-0.724613,-1.574702,-0.694996,-1.606553,-0.663881,-1.636932,-0.631293,-1.665735,-0.597333,-1.692913,-0.562052,-1.718415,-0.525527,-1.742164,-0.487859,-1.764135,-0.449098,-1.784277,-0.409373,-1.802515,-0.368733,-1.818847,-0.327305,
-1.833198,-0.285141,-1.845568,-0.242342,-1.855906,-0.199009,-1.864211,-0.155271,-1.870460,-0.111151,-1.874625,-0.066802,-1.876708,-0.022327,-1.876708,0.022225,-1.874625,0.066701,-1.870460,0.111049,-1.864211,0.155169,-1.855906,0.198908,-1.845568,0.242240,-1.833198,0.285039,-1.818847,0.327203,-1.802515,0.368631,-1.784277,0.409271,-1.764135,0.448997,-1.742164,0.487757,-1.718415,0.525425,
-1.692913,0.561951,-1.665735,0.597231,-1.636932,0.631191,-1.606553,0.663780,-1.574702,0.694895,-1.541402,0.724511,-1.506782,0.752502,-1.470866,0.778842,-1.433757,0.803480,-1.395530,0.826365,-1.356287,0.847422,-1.316078,0.866599,-1.275032,0.883896,-1.233223,0.899238,-1.190729,0.912598,-1.147676,0.923952,-1.104115,0.933299,-1.060173,0.940564,-1.015926,0.945771,-0.971501,0.948895,
-0.926975,0.950000,0.927229,0.950000,0.971755,0.948895,0.971755,0.948895,$1*%
G04 Aperture macros list end*
%ADD10C,0.062500*%
%ADD11C,0.150000*%
%ADD12C,0.127000*%
%ADD13C,0.120000*%
%ADD14C,0.152400*%
%ADD15C,0.000000*%
%ADD16RoundRect,0.267317X-0.280683X-0.470683X0.280683X-0.470683X0.280683X0.470683X-0.280683X0.470683X0*%
%ADD17RoundRect,0.287778X0.489222X0.714222X-0.489222X0.714222X-0.489222X-0.714222X0.489222X-0.714222X0*%
%ADD18RoundRect,0.267317X0.470683X-0.280683X0.470683X0.280683X-0.470683X0.280683X-0.470683X-0.280683X0*%
%ADD19RoundRect,0.269000X-0.494000X0.269000X-0.494000X-0.269000X0.494000X-0.269000X0.494000X0.269000X0*%
%ADD20RoundRect,0.062500X-0.275000X-0.062500X0.275000X-0.062500X0.275000X0.062500X-0.275000X0.062500X0*%
%ADD21RoundRect,0.062500X-0.062500X-0.275000X0.062500X-0.275000X0.062500X0.275000X-0.062500X0.275000X0*%
%ADD22R,1.450000X1.450000*%
%ADD23RoundRect,0.243750X-0.243750X-0.456250X0.243750X-0.456250X0.243750X0.456250X-0.243750X0.456250X0*%
%ADD24R,0.254800X0.706399*%
%ADD25R,1.188999X0.178600*%
%ADD26RoundRect,0.269000X0.494000X-0.269000X0.494000X0.269000X-0.494000X0.269000X-0.494000X-0.269000X0*%
%ADD27RoundRect,0.250001X0.799999X-0.799999X0.799999X0.799999X-0.799999X0.799999X-0.799999X-0.799999X0*%
%ADD28C,2.100000*%
%ADD29RoundRect,0.269000X-0.269000X-0.494000X0.269000X-0.494000X0.269000X0.494000X-0.269000X0.494000X0*%
%ADD30RoundRect,0.267317X0.280683X0.470683X-0.280683X0.470683X-0.280683X-0.470683X0.280683X-0.470683X0*%
%ADD31RoundRect,0.167500X-0.622500X-0.167500X0.622500X-0.167500X0.622500X0.167500X-0.622500X0.167500X0*%
%ADD32FreePoly0,0.000000*%
%ADD33C,0.500000*%
%ADD34R,1.700000X1.700000*%
%ADD35C,1.700000*%
%ADD36RoundRect,0.175000X-0.425000X0.175000X-0.425000X-0.175000X0.425000X-0.175000X0.425000X0.175000X0*%
%ADD37RoundRect,0.190000X0.410000X-0.190000X0.410000X0.190000X-0.410000X0.190000X-0.410000X-0.190000X0*%
%ADD38RoundRect,0.200000X0.400000X-0.200000X0.400000X0.200000X-0.400000X0.200000X-0.400000X-0.200000X0*%
%ADD39RoundRect,0.175000X0.425000X-0.175000X0.425000X0.175000X-0.425000X0.175000X-0.425000X-0.175000X0*%
%ADD40RoundRect,0.190000X-0.410000X0.190000X-0.410000X-0.190000X0.410000X-0.190000X0.410000X0.190000X0*%
%ADD41RoundRect,0.200000X-0.400000X0.200000X-0.400000X-0.200000X0.400000X-0.200000X0.400000X0.200000X0*%
%ADD42O,1.700000X1.100000*%
%ADD43RoundRect,0.150000X-0.875000X-0.150000X0.875000X-0.150000X0.875000X0.150000X-0.875000X0.150000X0*%
%ADD44RoundRect,0.269000X0.269000X0.494000X-0.269000X0.494000X-0.269000X-0.494000X0.269000X-0.494000X0*%
G04 APERTURE END LIST*
D10*
X122442345Y-56392856D02*
X122418535Y-56440475D01*
X122418535Y-56440475D02*
X122394726Y-56464285D01*
X122394726Y-56464285D02*
X122347107Y-56488094D01*
X122347107Y-56488094D02*
X122323297Y-56488094D01*
X122323297Y-56488094D02*
X122275678Y-56464285D01*
X122275678Y-56464285D02*
X122251869Y-56440475D01*
X122251869Y-56440475D02*
X122228059Y-56392856D01*
X122228059Y-56392856D02*
X122228059Y-56297618D01*
X122228059Y-56297618D02*
X122251869Y-56249999D01*
X122251869Y-56249999D02*
X122275678Y-56226190D01*
X122275678Y-56226190D02*
X122323297Y-56202380D01*
X122323297Y-56202380D02*
X122347107Y-56202380D01*
X122347107Y-56202380D02*
X122394726Y-56226190D01*
X122394726Y-56226190D02*
X122418535Y-56249999D01*
X122418535Y-56249999D02*
X122442345Y-56297618D01*
X122442345Y-56297618D02*
X122442345Y-56392856D01*
X122442345Y-56392856D02*
X122466154Y-56440475D01*
X122466154Y-56440475D02*
X122489964Y-56464285D01*
X122489964Y-56464285D02*
X122537583Y-56488094D01*
X122537583Y-56488094D02*
X122632821Y-56488094D01*
X122632821Y-56488094D02*
X122680440Y-56464285D01*
X122680440Y-56464285D02*
X122704250Y-56440475D01*
X122704250Y-56440475D02*
X122728059Y-56392856D01*
X122728059Y-56392856D02*
X122728059Y-56297618D01*
X122728059Y-56297618D02*
X122704250Y-56249999D01*
X122704250Y-56249999D02*
X122680440Y-56226190D01*
X122680440Y-56226190D02*
X122632821Y-56202380D01*
X122632821Y-56202380D02*
X122537583Y-56202380D01*
X122537583Y-56202380D02*
X122489964Y-56226190D01*
X122489964Y-56226190D02*
X122466154Y-56249999D01*
X122466154Y-56249999D02*
X122442345Y-56297618D01*
X122680440Y-55988095D02*
X122704250Y-55964285D01*
X122704250Y-55964285D02*
X122728059Y-55988095D01*
X122728059Y-55988095D02*
X122704250Y-56011904D01*
X122704250Y-56011904D02*
X122680440Y-55988095D01*
X122680440Y-55988095D02*
X122728059Y-55988095D01*
X122275678Y-55773809D02*
X122251869Y-55750000D01*
X122251869Y-55750000D02*
X122228059Y-55702381D01*
X122228059Y-55702381D02*
X122228059Y-55583333D01*
X122228059Y-55583333D02*
X122251869Y-55535714D01*
X122251869Y-55535714D02*
X122275678Y-55511905D01*
X122275678Y-55511905D02*
X122323297Y-55488095D01*
X122323297Y-55488095D02*
X122370916Y-55488095D01*
X122370916Y-55488095D02*
X122442345Y-55511905D01*
X122442345Y-55511905D02*
X122728059Y-55797619D01*
X122728059Y-55797619D02*
X122728059Y-55488095D01*
X122728059Y-55273810D02*
X122228059Y-55273810D01*
X122537583Y-55226191D02*
X122728059Y-55083334D01*
X122394726Y-55083334D02*
X122585202Y-55273810D01*
X122728059Y-54892857D02*
X122728059Y-54773810D01*
X122728059Y-54773810D02*
X122632821Y-54773810D01*
X122632821Y-54773810D02*
X122609011Y-54821429D01*
X122609011Y-54821429D02*
X122561392Y-54869048D01*
X122561392Y-54869048D02*
X122489964Y-54892857D01*
X122489964Y-54892857D02*
X122370916Y-54892857D01*
X122370916Y-54892857D02*
X122299488Y-54869048D01*
X122299488Y-54869048D02*
X122251869Y-54821429D01*
X122251869Y-54821429D02*
X122228059Y-54750000D01*
X122228059Y-54750000D02*
X122228059Y-54654762D01*
X122228059Y-54654762D02*
X122251869Y-54583334D01*
X122251869Y-54583334D02*
X122299488Y-54535715D01*
X122299488Y-54535715D02*
X122370916Y-54511905D01*
X122370916Y-54511905D02*
X122489964Y-54511905D01*
X122489964Y-54511905D02*
X122561392Y-54535715D01*
X122561392Y-54535715D02*
X122609011Y-54583334D01*
X122609011Y-54583334D02*
X122632821Y-54630953D01*
X122632821Y-54630953D02*
X122728059Y-54630953D01*
X122728059Y-54630953D02*
X122728059Y-54511905D01*
X120275678Y-68071427D02*
X120251869Y-68047618D01*
X120251869Y-68047618D02*
X120228059Y-67999999D01*
X120228059Y-67999999D02*
X120228059Y-67880951D01*
X120228059Y-67880951D02*
X120251869Y-67833332D01*
X120251869Y-67833332D02*
X120275678Y-67809523D01*
X120275678Y-67809523D02*
X120323297Y-67785713D01*
X120323297Y-67785713D02*
X120370916Y-67785713D01*
X120370916Y-67785713D02*
X120442345Y-67809523D01*
X120442345Y-67809523D02*
X120728059Y-68095237D01*
X120728059Y-68095237D02*
X120728059Y-67785713D01*
X120275678Y-67595237D02*
X120251869Y-67571428D01*
X120251869Y-67571428D02*
X120228059Y-67523809D01*
X120228059Y-67523809D02*
X120228059Y-67404761D01*
X120228059Y-67404761D02*
X120251869Y-67357142D01*
X120251869Y-67357142D02*
X120275678Y-67333333D01*
X120275678Y-67333333D02*
X120323297Y-67309523D01*
X120323297Y-67309523D02*
X120370916Y-67309523D01*
X120370916Y-67309523D02*
X120442345Y-67333333D01*
X120442345Y-67333333D02*
X120728059Y-67619047D01*
X120728059Y-67619047D02*
X120728059Y-67309523D01*
X120394726Y-66880952D02*
X120728059Y-66880952D01*
X120394726Y-67095238D02*
X120656630Y-67095238D01*
X120656630Y-67095238D02*
X120704250Y-67071428D01*
X120704250Y-67071428D02*
X120728059Y-67023809D01*
X120728059Y-67023809D02*
X120728059Y-66952381D01*
X120728059Y-66952381D02*
X120704250Y-66904762D01*
X120704250Y-66904762D02*
X120680440Y-66880952D01*
X120466154Y-66476190D02*
X120466154Y-66642857D01*
X120728059Y-66642857D02*
X120228059Y-66642857D01*
X120228059Y-66642857D02*
X120228059Y-66404762D01*
D11*
X129204819Y-61095238D02*
X129204819Y-61666666D01*
X129204819Y-61380952D02*
X128204819Y-61380952D01*
X128204819Y-61380952D02*
X128347676Y-61476190D01*
X128347676Y-61476190D02*
X128442914Y-61571428D01*
X128442914Y-61571428D02*
X128490533Y-61666666D01*
X128538152Y-60238095D02*
X129204819Y-60238095D01*
X128538152Y-60666666D02*
X129061961Y-60666666D01*
X129061961Y-60666666D02*
X129157200Y-60619047D01*
X129157200Y-60619047D02*
X129204819Y-60523809D01*
X129204819Y-60523809D02*
X129204819Y-60380952D01*
X129204819Y-60380952D02*
X129157200Y-60285714D01*
X129157200Y-60285714D02*
X129109580Y-60238095D01*
X128681009Y-59428571D02*
X128681009Y-59761904D01*
X129204819Y-59761904D02*
X128204819Y-59761904D01*
X128204819Y-59761904D02*
X128204819Y-59285714D01*
X125954819Y-56321428D02*
X125954819Y-56892856D01*
X125954819Y-56607142D02*
X124954819Y-56607142D01*
X124954819Y-56607142D02*
X125097676Y-56702380D01*
X125097676Y-56702380D02*
X125192914Y-56797618D01*
X125192914Y-56797618D02*
X125240533Y-56892856D01*
X124954819Y-55702380D02*
X124954819Y-55607142D01*
X124954819Y-55607142D02*
X125002438Y-55511904D01*
X125002438Y-55511904D02*
X125050057Y-55464285D01*
X125050057Y-55464285D02*
X125145295Y-55416666D01*
X125145295Y-55416666D02*
X125335771Y-55369047D01*
X125335771Y-55369047D02*
X125573866Y-55369047D01*
X125573866Y-55369047D02*
X125764342Y-55416666D01*
X125764342Y-55416666D02*
X125859580Y-55464285D01*
X125859580Y-55464285D02*
X125907200Y-55511904D01*
X125907200Y-55511904D02*
X125954819Y-55607142D01*
X125954819Y-55607142D02*
X125954819Y-55702380D01*
X125954819Y-55702380D02*
X125907200Y-55797618D01*
X125907200Y-55797618D02*
X125859580Y-55845237D01*
X125859580Y-55845237D02*
X125764342Y-55892856D01*
X125764342Y-55892856D02*
X125573866Y-55940475D01*
X125573866Y-55940475D02*
X125335771Y-55940475D01*
X125335771Y-55940475D02*
X125145295Y-55892856D01*
X125145295Y-55892856D02*
X125050057Y-55845237D01*
X125050057Y-55845237D02*
X125002438Y-55797618D01*
X125002438Y-55797618D02*
X124954819Y-55702380D01*
X125288152Y-54940475D02*
X125954819Y-54940475D01*
X125383390Y-54940475D02*
X125335771Y-54892856D01*
X125335771Y-54892856D02*
X125288152Y-54797618D01*
X125288152Y-54797618D02*
X125288152Y-54654761D01*
X125288152Y-54654761D02*
X125335771Y-54559523D01*
X125335771Y-54559523D02*
X125431009Y-54511904D01*
X125431009Y-54511904D02*
X125954819Y-54511904D01*
X125431009Y-53702380D02*
X125431009Y-54035713D01*
X125954819Y-54035713D02*
X124954819Y-54035713D01*
X124954819Y-54035713D02*
X124954819Y-53559523D01*
X118583333Y-65204819D02*
X118011905Y-65204819D01*
X118297619Y-65204819D02*
X118297619Y-64204819D01*
X118297619Y-64204819D02*
X118202381Y-64347676D01*
X118202381Y-64347676D02*
X118107143Y-64442914D01*
X118107143Y-64442914D02*
X118011905Y-64490533D01*
X119202381Y-64204819D02*
X119297619Y-64204819D01*
X119297619Y-64204819D02*
X119392857Y-64252438D01*
X119392857Y-64252438D02*
X119440476Y-64300057D01*
X119440476Y-64300057D02*
X119488095Y-64395295D01*
X119488095Y-64395295D02*
X119535714Y-64585771D01*
X119535714Y-64585771D02*
X119535714Y-64823866D01*
X119535714Y-64823866D02*
X119488095Y-65014342D01*
X119488095Y-65014342D02*
X119440476Y-65109580D01*
X119440476Y-65109580D02*
X119392857Y-65157200D01*
X119392857Y-65157200D02*
X119297619Y-65204819D01*
X119297619Y-65204819D02*
X119202381Y-65204819D01*
X119202381Y-65204819D02*
X119107143Y-65157200D01*
X119107143Y-65157200D02*
X119059524Y-65109580D01*
X119059524Y-65109580D02*
X119011905Y-65014342D01*
X119011905Y-65014342D02*
X118964286Y-64823866D01*
X118964286Y-64823866D02*
X118964286Y-64585771D01*
X118964286Y-64585771D02*
X119011905Y-64395295D01*
X119011905Y-64395295D02*
X119059524Y-64300057D01*
X119059524Y-64300057D02*
X119107143Y-64252438D01*
X119107143Y-64252438D02*
X119202381Y-64204819D01*
X119964286Y-65204819D02*
X119964286Y-64204819D01*
X120059524Y-64823866D02*
X120345238Y-65204819D01*
X120345238Y-64538152D02*
X119964286Y-64919104D01*
X120726191Y-65204819D02*
X120964286Y-65204819D01*
X120964286Y-65204819D02*
X120964286Y-65014342D01*
X120964286Y-65014342D02*
X120869048Y-64966723D01*
X120869048Y-64966723D02*
X120773810Y-64871485D01*
X120773810Y-64871485D02*
X120726191Y-64728628D01*
X120726191Y-64728628D02*
X120726191Y-64490533D01*
X120726191Y-64490533D02*
X120773810Y-64347676D01*
X120773810Y-64347676D02*
X120869048Y-64252438D01*
X120869048Y-64252438D02*
X121011905Y-64204819D01*
X121011905Y-64204819D02*
X121202381Y-64204819D01*
X121202381Y-64204819D02*
X121345238Y-64252438D01*
X121345238Y-64252438D02*
X121440476Y-64347676D01*
X121440476Y-64347676D02*
X121488095Y-64490533D01*
X121488095Y-64490533D02*
X121488095Y-64728628D01*
X121488095Y-64728628D02*
X121440476Y-64871485D01*
X121440476Y-64871485D02*
X121345238Y-64966723D01*
X121345238Y-64966723D02*
X121250000Y-65014342D01*
X121250000Y-65014342D02*
X121250000Y-65204819D01*
X121250000Y-65204819D02*
X121488095Y-65204819D01*
X130204819Y-68913333D02*
X130919104Y-68913333D01*
X130919104Y-68913333D02*
X131061961Y-68960952D01*
X131061961Y-68960952D02*
X131157200Y-69056190D01*
X131157200Y-69056190D02*
X131204819Y-69199047D01*
X131204819Y-69199047D02*
X131204819Y-69294285D01*
X130300057Y-68484761D02*
X130252438Y-68437142D01*
X130252438Y-68437142D02*
X130204819Y-68341904D01*
X130204819Y-68341904D02*
X130204819Y-68103809D01*
X130204819Y-68103809D02*
X130252438Y-68008571D01*
X130252438Y-68008571D02*
X130300057Y-67960952D01*
X130300057Y-67960952D02*
X130395295Y-67913333D01*
X130395295Y-67913333D02*
X130490533Y-67913333D01*
X130490533Y-67913333D02*
X130633390Y-67960952D01*
X130633390Y-67960952D02*
X131204819Y-68532380D01*
X131204819Y-68532380D02*
X131204819Y-67913333D01*
X113954819Y-63571428D02*
X113954819Y-64142856D01*
X113954819Y-63857142D02*
X112954819Y-63857142D01*
X112954819Y-63857142D02*
X113097676Y-63952380D01*
X113097676Y-63952380D02*
X113192914Y-64047618D01*
X113192914Y-64047618D02*
X113240533Y-64142856D01*
X112954819Y-62952380D02*
X112954819Y-62857142D01*
X112954819Y-62857142D02*
X113002438Y-62761904D01*
X113002438Y-62761904D02*
X113050057Y-62714285D01*
X113050057Y-62714285D02*
X113145295Y-62666666D01*
X113145295Y-62666666D02*
X113335771Y-62619047D01*
X113335771Y-62619047D02*
X113573866Y-62619047D01*
X113573866Y-62619047D02*
X113764342Y-62666666D01*
X113764342Y-62666666D02*
X113859580Y-62714285D01*
X113859580Y-62714285D02*
X113907200Y-62761904D01*
X113907200Y-62761904D02*
X113954819Y-62857142D01*
X113954819Y-62857142D02*
X113954819Y-62952380D01*
X113954819Y-62952380D02*
X113907200Y-63047618D01*
X113907200Y-63047618D02*
X113859580Y-63095237D01*
X113859580Y-63095237D02*
X113764342Y-63142856D01*
X113764342Y-63142856D02*
X113573866Y-63190475D01*
X113573866Y-63190475D02*
X113335771Y-63190475D01*
X113335771Y-63190475D02*
X113145295Y-63142856D01*
X113145295Y-63142856D02*
X113050057Y-63095237D01*
X113050057Y-63095237D02*
X113002438Y-63047618D01*
X113002438Y-63047618D02*
X112954819Y-62952380D01*
X113288152Y-61761904D02*
X113954819Y-61761904D01*
X113288152Y-62190475D02*
X113811961Y-62190475D01*
X113811961Y-62190475D02*
X113907200Y-62142856D01*
X113907200Y-62142856D02*
X113954819Y-62047618D01*
X113954819Y-62047618D02*
X113954819Y-61904761D01*
X113954819Y-61904761D02*
X113907200Y-61809523D01*
X113907200Y-61809523D02*
X113859580Y-61761904D01*
X113431009Y-60952380D02*
X113431009Y-61285713D01*
X113954819Y-61285713D02*
X112954819Y-61285713D01*
X112954819Y-61285713D02*
X112954819Y-60809523D01*
D10*
X110552381Y-67528059D02*
X110266667Y-67528059D01*
X110409524Y-67528059D02*
X110409524Y-67028059D01*
X110409524Y-67028059D02*
X110361905Y-67099488D01*
X110361905Y-67099488D02*
X110314286Y-67147107D01*
X110314286Y-67147107D02*
X110266667Y-67170916D01*
X110980952Y-67194726D02*
X110980952Y-67528059D01*
X110766666Y-67194726D02*
X110766666Y-67456630D01*
X110766666Y-67456630D02*
X110790476Y-67504250D01*
X110790476Y-67504250D02*
X110838095Y-67528059D01*
X110838095Y-67528059D02*
X110909523Y-67528059D01*
X110909523Y-67528059D02*
X110957142Y-67504250D01*
X110957142Y-67504250D02*
X110980952Y-67480440D01*
X111385714Y-67266154D02*
X111219047Y-67266154D01*
X111219047Y-67528059D02*
X111219047Y-67028059D01*
X111219047Y-67028059D02*
X111457142Y-67028059D01*
D11*
X125309333Y-76696819D02*
X124737905Y-76696819D01*
X125023619Y-76696819D02*
X125023619Y-75696819D01*
X125023619Y-75696819D02*
X124928381Y-75839676D01*
X124928381Y-75839676D02*
X124833143Y-75934914D01*
X124833143Y-75934914D02*
X124737905Y-75982533D01*
X125928381Y-75696819D02*
X126023619Y-75696819D01*
X126023619Y-75696819D02*
X126118857Y-75744438D01*
X126118857Y-75744438D02*
X126166476Y-75792057D01*
X126166476Y-75792057D02*
X126214095Y-75887295D01*
X126214095Y-75887295D02*
X126261714Y-76077771D01*
X126261714Y-76077771D02*
X126261714Y-76315866D01*
X126261714Y-76315866D02*
X126214095Y-76506342D01*
X126214095Y-76506342D02*
X126166476Y-76601580D01*
X126166476Y-76601580D02*
X126118857Y-76649200D01*
X126118857Y-76649200D02*
X126023619Y-76696819D01*
X126023619Y-76696819D02*
X125928381Y-76696819D01*
X125928381Y-76696819D02*
X125833143Y-76649200D01*
X125833143Y-76649200D02*
X125785524Y-76601580D01*
X125785524Y-76601580D02*
X125737905Y-76506342D01*
X125737905Y-76506342D02*
X125690286Y-76315866D01*
X125690286Y-76315866D02*
X125690286Y-76077771D01*
X125690286Y-76077771D02*
X125737905Y-75887295D01*
X125737905Y-75887295D02*
X125785524Y-75792057D01*
X125785524Y-75792057D02*
X125833143Y-75744438D01*
X125833143Y-75744438D02*
X125928381Y-75696819D01*
X126690286Y-76696819D02*
X126690286Y-75696819D01*
X126785524Y-76315866D02*
X127071238Y-76696819D01*
X127071238Y-76030152D02*
X126690286Y-76411104D01*
X127452191Y-76696819D02*
X127690286Y-76696819D01*
X127690286Y-76696819D02*
X127690286Y-76506342D01*
X127690286Y-76506342D02*
X127595048Y-76458723D01*
X127595048Y-76458723D02*
X127499810Y-76363485D01*
X127499810Y-76363485D02*
X127452191Y-76220628D01*
X127452191Y-76220628D02*
X127452191Y-75982533D01*
X127452191Y-75982533D02*
X127499810Y-75839676D01*
X127499810Y-75839676D02*
X127595048Y-75744438D01*
X127595048Y-75744438D02*
X127737905Y-75696819D01*
X127737905Y-75696819D02*
X127928381Y-75696819D01*
X127928381Y-75696819D02*
X128071238Y-75744438D01*
X128071238Y-75744438D02*
X128166476Y-75839676D01*
X128166476Y-75839676D02*
X128214095Y-75982533D01*
X128214095Y-75982533D02*
X128214095Y-76220628D01*
X128214095Y-76220628D02*
X128166476Y-76363485D01*
X128166476Y-76363485D02*
X128071238Y-76458723D01*
X128071238Y-76458723D02*
X127976000Y-76506342D01*
X127976000Y-76506342D02*
X127976000Y-76696819D01*
X127976000Y-76696819D02*
X128214095Y-76696819D01*
X130476666Y-83622819D02*
X130476666Y-84337104D01*
X130476666Y-84337104D02*
X130429047Y-84479961D01*
X130429047Y-84479961D02*
X130333809Y-84575200D01*
X130333809Y-84575200D02*
X130190952Y-84622819D01*
X130190952Y-84622819D02*
X130095714Y-84622819D01*
X130857619Y-83622819D02*
X131476666Y-83622819D01*
X131476666Y-83622819D02*
X131143333Y-84003771D01*
X131143333Y-84003771D02*
X131286190Y-84003771D01*
X131286190Y-84003771D02*
X131381428Y-84051390D01*
X131381428Y-84051390D02*
X131429047Y-84099009D01*
X131429047Y-84099009D02*
X131476666Y-84194247D01*
X131476666Y-84194247D02*
X131476666Y-84432342D01*
X131476666Y-84432342D02*
X131429047Y-84527580D01*
X131429047Y-84527580D02*
X131381428Y-84575200D01*
X131381428Y-84575200D02*
X131286190Y-84622819D01*
X131286190Y-84622819D02*
X131000476Y-84622819D01*
X131000476Y-84622819D02*
X130905238Y-84575200D01*
X130905238Y-84575200D02*
X130857619Y-84527580D01*
D10*
X119775678Y-56357141D02*
X119751869Y-56333332D01*
X119751869Y-56333332D02*
X119728059Y-56285713D01*
X119728059Y-56285713D02*
X119728059Y-56166665D01*
X119728059Y-56166665D02*
X119751869Y-56119046D01*
X119751869Y-56119046D02*
X119775678Y-56095237D01*
X119775678Y-56095237D02*
X119823297Y-56071427D01*
X119823297Y-56071427D02*
X119870916Y-56071427D01*
X119870916Y-56071427D02*
X119942345Y-56095237D01*
X119942345Y-56095237D02*
X120228059Y-56380951D01*
X120228059Y-56380951D02*
X120228059Y-56071427D01*
X119728059Y-55761904D02*
X119728059Y-55714285D01*
X119728059Y-55714285D02*
X119751869Y-55666666D01*
X119751869Y-55666666D02*
X119775678Y-55642856D01*
X119775678Y-55642856D02*
X119823297Y-55619047D01*
X119823297Y-55619047D02*
X119918535Y-55595237D01*
X119918535Y-55595237D02*
X120037583Y-55595237D01*
X120037583Y-55595237D02*
X120132821Y-55619047D01*
X120132821Y-55619047D02*
X120180440Y-55642856D01*
X120180440Y-55642856D02*
X120204250Y-55666666D01*
X120204250Y-55666666D02*
X120228059Y-55714285D01*
X120228059Y-55714285D02*
X120228059Y-55761904D01*
X120228059Y-55761904D02*
X120204250Y-55809523D01*
X120204250Y-55809523D02*
X120180440Y-55833332D01*
X120180440Y-55833332D02*
X120132821Y-55857142D01*
X120132821Y-55857142D02*
X120037583Y-55880951D01*
X120037583Y-55880951D02*
X119918535Y-55880951D01*
X119918535Y-55880951D02*
X119823297Y-55857142D01*
X119823297Y-55857142D02*
X119775678Y-55833332D01*
X119775678Y-55833332D02*
X119751869Y-55809523D01*
X119751869Y-55809523D02*
X119728059Y-55761904D01*
X119728059Y-55285714D02*
X119728059Y-55238095D01*
X119728059Y-55238095D02*
X119751869Y-55190476D01*
X119751869Y-55190476D02*
X119775678Y-55166666D01*
X119775678Y-55166666D02*
X119823297Y-55142857D01*
X119823297Y-55142857D02*
X119918535Y-55119047D01*
X119918535Y-55119047D02*
X120037583Y-55119047D01*
X120037583Y-55119047D02*
X120132821Y-55142857D01*
X120132821Y-55142857D02*
X120180440Y-55166666D01*
X120180440Y-55166666D02*
X120204250Y-55190476D01*
X120204250Y-55190476D02*
X120228059Y-55238095D01*
X120228059Y-55238095D02*
X120228059Y-55285714D01*
X120228059Y-55285714D02*
X120204250Y-55333333D01*
X120204250Y-55333333D02*
X120180440Y-55357142D01*
X120180440Y-55357142D02*
X120132821Y-55380952D01*
X120132821Y-55380952D02*
X120037583Y-55404761D01*
X120037583Y-55404761D02*
X119918535Y-55404761D01*
X119918535Y-55404761D02*
X119823297Y-55380952D01*
X119823297Y-55380952D02*
X119775678Y-55357142D01*
X119775678Y-55357142D02*
X119751869Y-55333333D01*
X119751869Y-55333333D02*
X119728059Y-55285714D01*
X120228059Y-54904762D02*
X119728059Y-54904762D01*
X120037583Y-54857143D02*
X120228059Y-54714286D01*
X119894726Y-54714286D02*
X120085202Y-54904762D01*
X120228059Y-54523809D02*
X120228059Y-54404762D01*
X120228059Y-54404762D02*
X120132821Y-54404762D01*
X120132821Y-54404762D02*
X120109011Y-54452381D01*
X120109011Y-54452381D02*
X120061392Y-54500000D01*
X120061392Y-54500000D02*
X119989964Y-54523809D01*
X119989964Y-54523809D02*
X119870916Y-54523809D01*
X119870916Y-54523809D02*
X119799488Y-54500000D01*
X119799488Y-54500000D02*
X119751869Y-54452381D01*
X119751869Y-54452381D02*
X119728059Y-54380952D01*
X119728059Y-54380952D02*
X119728059Y-54285714D01*
X119728059Y-54285714D02*
X119751869Y-54214286D01*
X119751869Y-54214286D02*
X119799488Y-54166667D01*
X119799488Y-54166667D02*
X119870916Y-54142857D01*
X119870916Y-54142857D02*
X119989964Y-54142857D01*
X119989964Y-54142857D02*
X120061392Y-54166667D01*
X120061392Y-54166667D02*
X120109011Y-54214286D01*
X120109011Y-54214286D02*
X120132821Y-54261905D01*
X120132821Y-54261905D02*
X120228059Y-54261905D01*
X120228059Y-54261905D02*
X120228059Y-54142857D01*
D11*
X115826318Y-59697619D02*
X115826318Y-60269047D01*
X115826318Y-59983333D02*
X114826318Y-59983333D01*
X114826318Y-59983333D02*
X114969175Y-60078571D01*
X114969175Y-60078571D02*
X115064413Y-60173809D01*
X115064413Y-60173809D02*
X115112032Y-60269047D01*
X114826318Y-59078571D02*
X114826318Y-58983333D01*
X114826318Y-58983333D02*
X114873937Y-58888095D01*
X114873937Y-58888095D02*
X114921556Y-58840476D01*
X114921556Y-58840476D02*
X115016794Y-58792857D01*
X115016794Y-58792857D02*
X115207270Y-58745238D01*
X115207270Y-58745238D02*
X115445365Y-58745238D01*
X115445365Y-58745238D02*
X115635841Y-58792857D01*
X115635841Y-58792857D02*
X115731079Y-58840476D01*
X115731079Y-58840476D02*
X115778699Y-58888095D01*
X115778699Y-58888095D02*
X115826318Y-58983333D01*
X115826318Y-58983333D02*
X115826318Y-59078571D01*
X115826318Y-59078571D02*
X115778699Y-59173809D01*
X115778699Y-59173809D02*
X115731079Y-59221428D01*
X115731079Y-59221428D02*
X115635841Y-59269047D01*
X115635841Y-59269047D02*
X115445365Y-59316666D01*
X115445365Y-59316666D02*
X115207270Y-59316666D01*
X115207270Y-59316666D02*
X115016794Y-59269047D01*
X115016794Y-59269047D02*
X114921556Y-59221428D01*
X114921556Y-59221428D02*
X114873937Y-59173809D01*
X114873937Y-59173809D02*
X114826318Y-59078571D01*
X114826318Y-58126190D02*
X114826318Y-58030952D01*
X114826318Y-58030952D02*
X114873937Y-57935714D01*
X114873937Y-57935714D02*
X114921556Y-57888095D01*
X114921556Y-57888095D02*
X115016794Y-57840476D01*
X115016794Y-57840476D02*
X115207270Y-57792857D01*
X115207270Y-57792857D02*
X115445365Y-57792857D01*
X115445365Y-57792857D02*
X115635841Y-57840476D01*
X115635841Y-57840476D02*
X115731079Y-57888095D01*
X115731079Y-57888095D02*
X115778699Y-57935714D01*
X115778699Y-57935714D02*
X115826318Y-58030952D01*
X115826318Y-58030952D02*
X115826318Y-58126190D01*
X115826318Y-58126190D02*
X115778699Y-58221428D01*
X115778699Y-58221428D02*
X115731079Y-58269047D01*
X115731079Y-58269047D02*
X115635841Y-58316666D01*
X115635841Y-58316666D02*
X115445365Y-58364285D01*
X115445365Y-58364285D02*
X115207270Y-58364285D01*
X115207270Y-58364285D02*
X115016794Y-58316666D01*
X115016794Y-58316666D02*
X114921556Y-58269047D01*
X114921556Y-58269047D02*
X114873937Y-58221428D01*
X114873937Y-58221428D02*
X114826318Y-58126190D01*
X115159651Y-57364285D02*
X115826318Y-57364285D01*
X115254889Y-57364285D02*
X115207270Y-57316666D01*
X115207270Y-57316666D02*
X115159651Y-57221428D01*
X115159651Y-57221428D02*
X115159651Y-57078571D01*
X115159651Y-57078571D02*
X115207270Y-56983333D01*
X115207270Y-56983333D02*
X115302508Y-56935714D01*
X115302508Y-56935714D02*
X115826318Y-56935714D01*
X115302508Y-56126190D02*
X115302508Y-56459523D01*
X115826318Y-56459523D02*
X114826318Y-56459523D01*
X114826318Y-56459523D02*
X114826318Y-55983333D01*
X118169104Y-82499999D02*
X118169104Y-82023809D01*
X118454819Y-82595237D02*
X117454819Y-82261904D01*
X117454819Y-82261904D02*
X118454819Y-81928571D01*
X117454819Y-81738094D02*
X117454819Y-81166666D01*
X118454819Y-81452380D02*
X117454819Y-81452380D01*
X117788152Y-80976189D02*
X117788152Y-80595237D01*
X117454819Y-80833332D02*
X118311961Y-80833332D01*
X118311961Y-80833332D02*
X118407200Y-80785713D01*
X118407200Y-80785713D02*
X118454819Y-80690475D01*
X118454819Y-80690475D02*
X118454819Y-80595237D01*
X118454819Y-80261903D02*
X117788152Y-80261903D01*
X117454819Y-80261903D02*
X117502438Y-80309522D01*
X117502438Y-80309522D02*
X117550057Y-80261903D01*
X117550057Y-80261903D02*
X117502438Y-80214284D01*
X117502438Y-80214284D02*
X117454819Y-80261903D01*
X117454819Y-80261903D02*
X117550057Y-80261903D01*
X117788152Y-79785713D02*
X118454819Y-79785713D01*
X117883390Y-79785713D02*
X117835771Y-79738094D01*
X117835771Y-79738094D02*
X117788152Y-79642856D01*
X117788152Y-79642856D02*
X117788152Y-79499999D01*
X117788152Y-79499999D02*
X117835771Y-79404761D01*
X117835771Y-79404761D02*
X117931009Y-79357142D01*
X117931009Y-79357142D02*
X118454819Y-79357142D01*
X117788152Y-78976189D02*
X118454819Y-78738094D01*
X117788152Y-78499999D02*
X118454819Y-78738094D01*
X118454819Y-78738094D02*
X118692914Y-78833332D01*
X118692914Y-78833332D02*
X118740533Y-78880951D01*
X118740533Y-78880951D02*
X118788152Y-78976189D01*
X117883390Y-77976189D02*
X117835771Y-78071427D01*
X117835771Y-78071427D02*
X117788152Y-78119046D01*
X117788152Y-78119046D02*
X117692914Y-78166665D01*
X117692914Y-78166665D02*
X117645295Y-78166665D01*
X117645295Y-78166665D02*
X117550057Y-78119046D01*
X117550057Y-78119046D02*
X117502438Y-78071427D01*
X117502438Y-78071427D02*
X117454819Y-77976189D01*
X117454819Y-77976189D02*
X117454819Y-77785713D01*
X117454819Y-77785713D02*
X117502438Y-77690475D01*
X117502438Y-77690475D02*
X117550057Y-77642856D01*
X117550057Y-77642856D02*
X117645295Y-77595237D01*
X117645295Y-77595237D02*
X117692914Y-77595237D01*
X117692914Y-77595237D02*
X117788152Y-77642856D01*
X117788152Y-77642856D02*
X117835771Y-77690475D01*
X117835771Y-77690475D02*
X117883390Y-77785713D01*
X117883390Y-77785713D02*
X117883390Y-77976189D01*
X117883390Y-77976189D02*
X117931009Y-78071427D01*
X117931009Y-78071427D02*
X117978628Y-78119046D01*
X117978628Y-78119046D02*
X118073866Y-78166665D01*
X118073866Y-78166665D02*
X118264342Y-78166665D01*
X118264342Y-78166665D02*
X118359580Y-78119046D01*
X118359580Y-78119046D02*
X118407200Y-78071427D01*
X118407200Y-78071427D02*
X118454819Y-77976189D01*
X118454819Y-77976189D02*
X118454819Y-77785713D01*
X118454819Y-77785713D02*
X118407200Y-77690475D01*
X118407200Y-77690475D02*
X118359580Y-77642856D01*
X118359580Y-77642856D02*
X118264342Y-77595237D01*
X118264342Y-77595237D02*
X118073866Y-77595237D01*
X118073866Y-77595237D02*
X117978628Y-77642856D01*
X117978628Y-77642856D02*
X117931009Y-77690475D01*
X117931009Y-77690475D02*
X117883390Y-77785713D01*
X118454819Y-76642856D02*
X118454819Y-77214284D01*
X118454819Y-76928570D02*
X117454819Y-76928570D01*
X117454819Y-76928570D02*
X117597676Y-77023808D01*
X117597676Y-77023808D02*
X117692914Y-77119046D01*
X117692914Y-77119046D02*
X117740533Y-77214284D01*
X117454819Y-75785713D02*
X117454819Y-75976189D01*
X117454819Y-75976189D02*
X117502438Y-76071427D01*
X117502438Y-76071427D02*
X117550057Y-76119046D01*
X117550057Y-76119046D02*
X117692914Y-76214284D01*
X117692914Y-76214284D02*
X117883390Y-76261903D01*
X117883390Y-76261903D02*
X118264342Y-76261903D01*
X118264342Y-76261903D02*
X118359580Y-76214284D01*
X118359580Y-76214284D02*
X118407200Y-76166665D01*
X118407200Y-76166665D02*
X118454819Y-76071427D01*
X118454819Y-76071427D02*
X118454819Y-75880951D01*
X118454819Y-75880951D02*
X118407200Y-75785713D01*
X118407200Y-75785713D02*
X118359580Y-75738094D01*
X118359580Y-75738094D02*
X118264342Y-75690475D01*
X118264342Y-75690475D02*
X118026247Y-75690475D01*
X118026247Y-75690475D02*
X117931009Y-75738094D01*
X117931009Y-75738094D02*
X117883390Y-75785713D01*
X117883390Y-75785713D02*
X117835771Y-75880951D01*
X117835771Y-75880951D02*
X117835771Y-76071427D01*
X117835771Y-76071427D02*
X117883390Y-76166665D01*
X117883390Y-76166665D02*
X117931009Y-76214284D01*
X117931009Y-76214284D02*
X118026247Y-76261903D01*
X118073866Y-75261903D02*
X118073866Y-74499999D01*
X118407200Y-74071427D02*
X118454819Y-73928570D01*
X118454819Y-73928570D02*
X118454819Y-73690475D01*
X118454819Y-73690475D02*
X118407200Y-73595237D01*
X118407200Y-73595237D02*
X118359580Y-73547618D01*
X118359580Y-73547618D02*
X118264342Y-73499999D01*
X118264342Y-73499999D02*
X118169104Y-73499999D01*
X118169104Y-73499999D02*
X118073866Y-73547618D01*
X118073866Y-73547618D02*
X118026247Y-73595237D01*
X118026247Y-73595237D02*
X117978628Y-73690475D01*
X117978628Y-73690475D02*
X117931009Y-73880951D01*
X117931009Y-73880951D02*
X117883390Y-73976189D01*
X117883390Y-73976189D02*
X117835771Y-74023808D01*
X117835771Y-74023808D02*
X117740533Y-74071427D01*
X117740533Y-74071427D02*
X117645295Y-74071427D01*
X117645295Y-74071427D02*
X117550057Y-74023808D01*
X117550057Y-74023808D02*
X117502438Y-73976189D01*
X117502438Y-73976189D02*
X117454819Y-73880951D01*
X117454819Y-73880951D02*
X117454819Y-73642856D01*
X117454819Y-73642856D02*
X117502438Y-73499999D01*
X107204819Y-74107142D02*
X107204819Y-73488095D01*
X107204819Y-73488095D02*
X107585771Y-73821428D01*
X107585771Y-73821428D02*
X107585771Y-73678571D01*
X107585771Y-73678571D02*
X107633390Y-73583333D01*
X107633390Y-73583333D02*
X107681009Y-73535714D01*
X107681009Y-73535714D02*
X107776247Y-73488095D01*
X107776247Y-73488095D02*
X108014342Y-73488095D01*
X108014342Y-73488095D02*
X108109580Y-73535714D01*
X108109580Y-73535714D02*
X108157200Y-73583333D01*
X108157200Y-73583333D02*
X108204819Y-73678571D01*
X108204819Y-73678571D02*
X108204819Y-73964285D01*
X108204819Y-73964285D02*
X108157200Y-74059523D01*
X108157200Y-74059523D02*
X108109580Y-74107142D01*
X107204819Y-72869047D02*
X107204819Y-72773809D01*
X107204819Y-72773809D02*
X107252438Y-72678571D01*
X107252438Y-72678571D02*
X107300057Y-72630952D01*
X107300057Y-72630952D02*
X107395295Y-72583333D01*
X107395295Y-72583333D02*
X107585771Y-72535714D01*
X107585771Y-72535714D02*
X107823866Y-72535714D01*
X107823866Y-72535714D02*
X108014342Y-72583333D01*
X108014342Y-72583333D02*
X108109580Y-72630952D01*
X108109580Y-72630952D02*
X108157200Y-72678571D01*
X108157200Y-72678571D02*
X108204819Y-72773809D01*
X108204819Y-72773809D02*
X108204819Y-72869047D01*
X108204819Y-72869047D02*
X108157200Y-72964285D01*
X108157200Y-72964285D02*
X108109580Y-73011904D01*
X108109580Y-73011904D02*
X108014342Y-73059523D01*
X108014342Y-73059523D02*
X107823866Y-73107142D01*
X107823866Y-73107142D02*
X107585771Y-73107142D01*
X107585771Y-73107142D02*
X107395295Y-73059523D01*
X107395295Y-73059523D02*
X107300057Y-73011904D01*
X107300057Y-73011904D02*
X107252438Y-72964285D01*
X107252438Y-72964285D02*
X107204819Y-72869047D01*
X107204819Y-71916666D02*
X107204819Y-71821428D01*
X107204819Y-71821428D02*
X107252438Y-71726190D01*
X107252438Y-71726190D02*
X107300057Y-71678571D01*
X107300057Y-71678571D02*
X107395295Y-71630952D01*
X107395295Y-71630952D02*
X107585771Y-71583333D01*
X107585771Y-71583333D02*
X107823866Y-71583333D01*
X107823866Y-71583333D02*
X108014342Y-71630952D01*
X108014342Y-71630952D02*
X108109580Y-71678571D01*
X108109580Y-71678571D02*
X108157200Y-71726190D01*
X108157200Y-71726190D02*
X108204819Y-71821428D01*
X108204819Y-71821428D02*
X108204819Y-71916666D01*
X108204819Y-71916666D02*
X108157200Y-72011904D01*
X108157200Y-72011904D02*
X108109580Y-72059523D01*
X108109580Y-72059523D02*
X108014342Y-72107142D01*
X108014342Y-72107142D02*
X107823866Y-72154761D01*
X107823866Y-72154761D02*
X107585771Y-72154761D01*
X107585771Y-72154761D02*
X107395295Y-72107142D01*
X107395295Y-72107142D02*
X107300057Y-72059523D01*
X107300057Y-72059523D02*
X107252438Y-72011904D01*
X107252438Y-72011904D02*
X107204819Y-71916666D01*
X108204819Y-71202380D02*
X108204819Y-70964285D01*
X108204819Y-70964285D02*
X108014342Y-70964285D01*
X108014342Y-70964285D02*
X107966723Y-71059523D01*
X107966723Y-71059523D02*
X107871485Y-71154761D01*
X107871485Y-71154761D02*
X107728628Y-71202380D01*
X107728628Y-71202380D02*
X107490533Y-71202380D01*
X107490533Y-71202380D02*
X107347676Y-71154761D01*
X107347676Y-71154761D02*
X107252438Y-71059523D01*
X107252438Y-71059523D02*
X107204819Y-70916666D01*
X107204819Y-70916666D02*
X107204819Y-70726190D01*
X107204819Y-70726190D02*
X107252438Y-70583333D01*
X107252438Y-70583333D02*
X107347676Y-70488095D01*
X107347676Y-70488095D02*
X107490533Y-70440476D01*
X107490533Y-70440476D02*
X107728628Y-70440476D01*
X107728628Y-70440476D02*
X107871485Y-70488095D01*
X107871485Y-70488095D02*
X107966723Y-70583333D01*
X107966723Y-70583333D02*
X108014342Y-70678571D01*
X108014342Y-70678571D02*
X108204819Y-70678571D01*
X108204819Y-70678571D02*
X108204819Y-70440476D01*
X121202380Y-69704819D02*
X120630952Y-69704819D01*
X120916666Y-69704819D02*
X120916666Y-68704819D01*
X120916666Y-68704819D02*
X120821428Y-68847676D01*
X120821428Y-68847676D02*
X120726190Y-68942914D01*
X120726190Y-68942914D02*
X120630952Y-68990533D01*
X121821428Y-68704819D02*
X121916666Y-68704819D01*
X121916666Y-68704819D02*
X122011904Y-68752438D01*
X122011904Y-68752438D02*
X122059523Y-68800057D01*
X122059523Y-68800057D02*
X122107142Y-68895295D01*
X122107142Y-68895295D02*
X122154761Y-69085771D01*
X122154761Y-69085771D02*
X122154761Y-69323866D01*
X122154761Y-69323866D02*
X122107142Y-69514342D01*
X122107142Y-69514342D02*
X122059523Y-69609580D01*
X122059523Y-69609580D02*
X122011904Y-69657200D01*
X122011904Y-69657200D02*
X121916666Y-69704819D01*
X121916666Y-69704819D02*
X121821428Y-69704819D01*
X121821428Y-69704819D02*
X121726190Y-69657200D01*
X121726190Y-69657200D02*
X121678571Y-69609580D01*
X121678571Y-69609580D02*
X121630952Y-69514342D01*
X121630952Y-69514342D02*
X121583333Y-69323866D01*
X121583333Y-69323866D02*
X121583333Y-69085771D01*
X121583333Y-69085771D02*
X121630952Y-68895295D01*
X121630952Y-68895295D02*
X121678571Y-68800057D01*
X121678571Y-68800057D02*
X121726190Y-68752438D01*
X121726190Y-68752438D02*
X121821428Y-68704819D01*
X122773809Y-68704819D02*
X122869047Y-68704819D01*
X122869047Y-68704819D02*
X122964285Y-68752438D01*
X122964285Y-68752438D02*
X123011904Y-68800057D01*
X123011904Y-68800057D02*
X123059523Y-68895295D01*
X123059523Y-68895295D02*
X123107142Y-69085771D01*
X123107142Y-69085771D02*
X123107142Y-69323866D01*
X123107142Y-69323866D02*
X123059523Y-69514342D01*
X123059523Y-69514342D02*
X123011904Y-69609580D01*
X123011904Y-69609580D02*
X122964285Y-69657200D01*
X122964285Y-69657200D02*
X122869047Y-69704819D01*
X122869047Y-69704819D02*
X122773809Y-69704819D01*
X122773809Y-69704819D02*
X122678571Y-69657200D01*
X122678571Y-69657200D02*
X122630952Y-69609580D01*
X122630952Y-69609580D02*
X122583333Y-69514342D01*
X122583333Y-69514342D02*
X122535714Y-69323866D01*
X122535714Y-69323866D02*
X122535714Y-69085771D01*
X122535714Y-69085771D02*
X122583333Y-68895295D01*
X122583333Y-68895295D02*
X122630952Y-68800057D01*
X122630952Y-68800057D02*
X122678571Y-68752438D01*
X122678571Y-68752438D02*
X122773809Y-68704819D01*
X123535714Y-69038152D02*
X123535714Y-69704819D01*
X123535714Y-69133390D02*
X123583333Y-69085771D01*
X123583333Y-69085771D02*
X123678571Y-69038152D01*
X123678571Y-69038152D02*
X123821428Y-69038152D01*
X123821428Y-69038152D02*
X123916666Y-69085771D01*
X123916666Y-69085771D02*
X123964285Y-69181009D01*
X123964285Y-69181009D02*
X123964285Y-69704819D01*
X124773809Y-69181009D02*
X124440476Y-69181009D01*
X124440476Y-69704819D02*
X124440476Y-68704819D01*
X124440476Y-68704819D02*
X124916666Y-68704819D01*
X108500000Y-83288152D02*
X108500000Y-83954819D01*
X108261905Y-82907200D02*
X108023810Y-83621485D01*
X108023810Y-83621485D02*
X108642857Y-83621485D01*
X109023810Y-83859580D02*
X109071429Y-83907200D01*
X109071429Y-83907200D02*
X109023810Y-83954819D01*
X109023810Y-83954819D02*
X108976191Y-83907200D01*
X108976191Y-83907200D02*
X109023810Y-83859580D01*
X109023810Y-83859580D02*
X109023810Y-83954819D01*
X109404762Y-82954819D02*
X110071428Y-82954819D01*
X110071428Y-82954819D02*
X109642857Y-83954819D01*
X110452381Y-83954819D02*
X110452381Y-82954819D01*
X110547619Y-83573866D02*
X110833333Y-83954819D01*
X110833333Y-83288152D02*
X110452381Y-83669104D01*
X111214286Y-83954819D02*
X111452381Y-83954819D01*
X111452381Y-83954819D02*
X111452381Y-83764342D01*
X111452381Y-83764342D02*
X111357143Y-83716723D01*
X111357143Y-83716723D02*
X111261905Y-83621485D01*
X111261905Y-83621485D02*
X111214286Y-83478628D01*
X111214286Y-83478628D02*
X111214286Y-83240533D01*
X111214286Y-83240533D02*
X111261905Y-83097676D01*
X111261905Y-83097676D02*
X111357143Y-83002438D01*
X111357143Y-83002438D02*
X111500000Y-82954819D01*
X111500000Y-82954819D02*
X111690476Y-82954819D01*
X111690476Y-82954819D02*
X111833333Y-83002438D01*
X111833333Y-83002438D02*
X111928571Y-83097676D01*
X111928571Y-83097676D02*
X111976190Y-83240533D01*
X111976190Y-83240533D02*
X111976190Y-83478628D01*
X111976190Y-83478628D02*
X111928571Y-83621485D01*
X111928571Y-83621485D02*
X111833333Y-83716723D01*
X111833333Y-83716723D02*
X111738095Y-83764342D01*
X111738095Y-83764342D02*
X111738095Y-83954819D01*
X111738095Y-83954819D02*
X111976190Y-83954819D01*
D10*
X110126191Y-70228059D02*
X109840477Y-70228059D01*
X109983334Y-70228059D02*
X109983334Y-69728059D01*
X109983334Y-69728059D02*
X109935715Y-69799488D01*
X109935715Y-69799488D02*
X109888096Y-69847107D01*
X109888096Y-69847107D02*
X109840477Y-69870916D01*
X110435714Y-69728059D02*
X110483333Y-69728059D01*
X110483333Y-69728059D02*
X110530952Y-69751869D01*
X110530952Y-69751869D02*
X110554762Y-69775678D01*
X110554762Y-69775678D02*
X110578571Y-69823297D01*
X110578571Y-69823297D02*
X110602381Y-69918535D01*
X110602381Y-69918535D02*
X110602381Y-70037583D01*
X110602381Y-70037583D02*
X110578571Y-70132821D01*
X110578571Y-70132821D02*
X110554762Y-70180440D01*
X110554762Y-70180440D02*
X110530952Y-70204250D01*
X110530952Y-70204250D02*
X110483333Y-70228059D01*
X110483333Y-70228059D02*
X110435714Y-70228059D01*
X110435714Y-70228059D02*
X110388095Y-70204250D01*
X110388095Y-70204250D02*
X110364286Y-70180440D01*
X110364286Y-70180440D02*
X110340476Y-70132821D01*
X110340476Y-70132821D02*
X110316667Y-70037583D01*
X110316667Y-70037583D02*
X110316667Y-69918535D01*
X110316667Y-69918535D02*
X110340476Y-69823297D01*
X110340476Y-69823297D02*
X110364286Y-69775678D01*
X110364286Y-69775678D02*
X110388095Y-69751869D01*
X110388095Y-69751869D02*
X110435714Y-69728059D01*
X110911904Y-69728059D02*
X110959523Y-69728059D01*
X110959523Y-69728059D02*
X111007142Y-69751869D01*
X111007142Y-69751869D02*
X111030952Y-69775678D01*
X111030952Y-69775678D02*
X111054761Y-69823297D01*
X111054761Y-69823297D02*
X111078571Y-69918535D01*
X111078571Y-69918535D02*
X111078571Y-70037583D01*
X111078571Y-70037583D02*
X111054761Y-70132821D01*
X111054761Y-70132821D02*
X111030952Y-70180440D01*
X111030952Y-70180440D02*
X111007142Y-70204250D01*
X111007142Y-70204250D02*
X110959523Y-70228059D01*
X110959523Y-70228059D02*
X110911904Y-70228059D01*
X110911904Y-70228059D02*
X110864285Y-70204250D01*
X110864285Y-70204250D02*
X110840476Y-70180440D01*
X110840476Y-70180440D02*
X110816666Y-70132821D01*
X110816666Y-70132821D02*
X110792857Y-70037583D01*
X110792857Y-70037583D02*
X110792857Y-69918535D01*
X110792857Y-69918535D02*
X110816666Y-69823297D01*
X110816666Y-69823297D02*
X110840476Y-69775678D01*
X110840476Y-69775678D02*
X110864285Y-69751869D01*
X110864285Y-69751869D02*
X110911904Y-69728059D01*
X111292856Y-69894726D02*
X111292856Y-70228059D01*
X111292856Y-69942345D02*
X111316666Y-69918535D01*
X111316666Y-69918535D02*
X111364285Y-69894726D01*
X111364285Y-69894726D02*
X111435713Y-69894726D01*
X111435713Y-69894726D02*
X111483332Y-69918535D01*
X111483332Y-69918535D02*
X111507142Y-69966154D01*
X111507142Y-69966154D02*
X111507142Y-70228059D01*
X111911904Y-69966154D02*
X111745237Y-69966154D01*
X111745237Y-70228059D02*
X111745237Y-69728059D01*
X111745237Y-69728059D02*
X111983332Y-69728059D01*
D11*
X118254819Y-59521428D02*
X118254819Y-60092856D01*
X118254819Y-59807142D02*
X117254819Y-59807142D01*
X117254819Y-59807142D02*
X117397676Y-59902380D01*
X117397676Y-59902380D02*
X117492914Y-59997618D01*
X117492914Y-59997618D02*
X117540533Y-60092856D01*
X117254819Y-58902380D02*
X117254819Y-58807142D01*
X117254819Y-58807142D02*
X117302438Y-58711904D01*
X117302438Y-58711904D02*
X117350057Y-58664285D01*
X117350057Y-58664285D02*
X117445295Y-58616666D01*
X117445295Y-58616666D02*
X117635771Y-58569047D01*
X117635771Y-58569047D02*
X117873866Y-58569047D01*
X117873866Y-58569047D02*
X118064342Y-58616666D01*
X118064342Y-58616666D02*
X118159580Y-58664285D01*
X118159580Y-58664285D02*
X118207200Y-58711904D01*
X118207200Y-58711904D02*
X118254819Y-58807142D01*
X118254819Y-58807142D02*
X118254819Y-58902380D01*
X118254819Y-58902380D02*
X118207200Y-58997618D01*
X118207200Y-58997618D02*
X118159580Y-59045237D01*
X118159580Y-59045237D02*
X118064342Y-59092856D01*
X118064342Y-59092856D02*
X117873866Y-59140475D01*
X117873866Y-59140475D02*
X117635771Y-59140475D01*
X117635771Y-59140475D02*
X117445295Y-59092856D01*
X117445295Y-59092856D02*
X117350057Y-59045237D01*
X117350057Y-59045237D02*
X117302438Y-58997618D01*
X117302438Y-58997618D02*
X117254819Y-58902380D01*
X117588152Y-57711904D02*
X118254819Y-57711904D01*
X117588152Y-58140475D02*
X118111961Y-58140475D01*
X118111961Y-58140475D02*
X118207200Y-58092856D01*
X118207200Y-58092856D02*
X118254819Y-57997618D01*
X118254819Y-57997618D02*
X118254819Y-57854761D01*
X118254819Y-57854761D02*
X118207200Y-57759523D01*
X118207200Y-57759523D02*
X118159580Y-57711904D01*
X117731009Y-56902380D02*
X117731009Y-57235713D01*
X118254819Y-57235713D02*
X117254819Y-57235713D01*
X117254819Y-57235713D02*
X117254819Y-56759523D01*
X122795238Y-62538152D02*
X122795238Y-63204819D01*
X122557143Y-62157200D02*
X122319048Y-62871485D01*
X122319048Y-62871485D02*
X122938095Y-62871485D01*
X123319048Y-63109580D02*
X123366667Y-63157200D01*
X123366667Y-63157200D02*
X123319048Y-63204819D01*
X123319048Y-63204819D02*
X123271429Y-63157200D01*
X123271429Y-63157200D02*
X123319048Y-63109580D01*
X123319048Y-63109580D02*
X123319048Y-63204819D01*
X123700000Y-62204819D02*
X124366666Y-62204819D01*
X124366666Y-62204819D02*
X123938095Y-63204819D01*
X125176190Y-62538152D02*
X125176190Y-63204819D01*
X124747619Y-62538152D02*
X124747619Y-63061961D01*
X124747619Y-63061961D02*
X124795238Y-63157200D01*
X124795238Y-63157200D02*
X124890476Y-63204819D01*
X124890476Y-63204819D02*
X125033333Y-63204819D01*
X125033333Y-63204819D02*
X125128571Y-63157200D01*
X125128571Y-63157200D02*
X125176190Y-63109580D01*
X125985714Y-62681009D02*
X125652381Y-62681009D01*
X125652381Y-63204819D02*
X125652381Y-62204819D01*
X125652381Y-62204819D02*
X126128571Y-62204819D01*
X106583333Y-77454819D02*
X106011905Y-77454819D01*
X106297619Y-77454819D02*
X106297619Y-76454819D01*
X106297619Y-76454819D02*
X106202381Y-76597676D01*
X106202381Y-76597676D02*
X106107143Y-76692914D01*
X106107143Y-76692914D02*
X106011905Y-76740533D01*
X107202381Y-76454819D02*
X107297619Y-76454819D01*
X107297619Y-76454819D02*
X107392857Y-76502438D01*
X107392857Y-76502438D02*
X107440476Y-76550057D01*
X107440476Y-76550057D02*
X107488095Y-76645295D01*
X107488095Y-76645295D02*
X107535714Y-76835771D01*
X107535714Y-76835771D02*
X107535714Y-77073866D01*
X107535714Y-77073866D02*
X107488095Y-77264342D01*
X107488095Y-77264342D02*
X107440476Y-77359580D01*
X107440476Y-77359580D02*
X107392857Y-77407200D01*
X107392857Y-77407200D02*
X107297619Y-77454819D01*
X107297619Y-77454819D02*
X107202381Y-77454819D01*
X107202381Y-77454819D02*
X107107143Y-77407200D01*
X107107143Y-77407200D02*
X107059524Y-77359580D01*
X107059524Y-77359580D02*
X107011905Y-77264342D01*
X107011905Y-77264342D02*
X106964286Y-77073866D01*
X106964286Y-77073866D02*
X106964286Y-76835771D01*
X106964286Y-76835771D02*
X107011905Y-76645295D01*
X107011905Y-76645295D02*
X107059524Y-76550057D01*
X107059524Y-76550057D02*
X107107143Y-76502438D01*
X107107143Y-76502438D02*
X107202381Y-76454819D01*
X107964286Y-77454819D02*
X107964286Y-76454819D01*
X108059524Y-77073866D02*
X108345238Y-77454819D01*
X108345238Y-76788152D02*
X107964286Y-77169104D01*
X108726191Y-77454819D02*
X108964286Y-77454819D01*
X108964286Y-77454819D02*
X108964286Y-77264342D01*
X108964286Y-77264342D02*
X108869048Y-77216723D01*
X108869048Y-77216723D02*
X108773810Y-77121485D01*
X108773810Y-77121485D02*
X108726191Y-76978628D01*
X108726191Y-76978628D02*
X108726191Y-76740533D01*
X108726191Y-76740533D02*
X108773810Y-76597676D01*
X108773810Y-76597676D02*
X108869048Y-76502438D01*
X108869048Y-76502438D02*
X109011905Y-76454819D01*
X109011905Y-76454819D02*
X109202381Y-76454819D01*
X109202381Y-76454819D02*
X109345238Y-76502438D01*
X109345238Y-76502438D02*
X109440476Y-76597676D01*
X109440476Y-76597676D02*
X109488095Y-76740533D01*
X109488095Y-76740533D02*
X109488095Y-76978628D01*
X109488095Y-76978628D02*
X109440476Y-77121485D01*
X109440476Y-77121485D02*
X109345238Y-77216723D01*
X109345238Y-77216723D02*
X109250000Y-77264342D01*
X109250000Y-77264342D02*
X109250000Y-77454819D01*
X109250000Y-77454819D02*
X109488095Y-77454819D01*
X106857142Y-60138152D02*
X106857142Y-60804819D01*
X106619047Y-59757200D02*
X106380952Y-60471485D01*
X106380952Y-60471485D02*
X106999999Y-60471485D01*
X107285714Y-59804819D02*
X107952380Y-59804819D01*
X107952380Y-59804819D02*
X107523809Y-60804819D01*
X108523809Y-59804819D02*
X108619047Y-59804819D01*
X108619047Y-59804819D02*
X108714285Y-59852438D01*
X108714285Y-59852438D02*
X108761904Y-59900057D01*
X108761904Y-59900057D02*
X108809523Y-59995295D01*
X108809523Y-59995295D02*
X108857142Y-60185771D01*
X108857142Y-60185771D02*
X108857142Y-60423866D01*
X108857142Y-60423866D02*
X108809523Y-60614342D01*
X108809523Y-60614342D02*
X108761904Y-60709580D01*
X108761904Y-60709580D02*
X108714285Y-60757200D01*
X108714285Y-60757200D02*
X108619047Y-60804819D01*
X108619047Y-60804819D02*
X108523809Y-60804819D01*
X108523809Y-60804819D02*
X108428571Y-60757200D01*
X108428571Y-60757200D02*
X108380952Y-60709580D01*
X108380952Y-60709580D02*
X108333333Y-60614342D01*
X108333333Y-60614342D02*
X108285714Y-60423866D01*
X108285714Y-60423866D02*
X108285714Y-60185771D01*
X108285714Y-60185771D02*
X108333333Y-59995295D01*
X108333333Y-59995295D02*
X108380952Y-59900057D01*
X108380952Y-59900057D02*
X108428571Y-59852438D01*
X108428571Y-59852438D02*
X108523809Y-59804819D01*
X109285714Y-60138152D02*
X109285714Y-61138152D01*
X109285714Y-60185771D02*
X109380952Y-60138152D01*
X109380952Y-60138152D02*
X109571428Y-60138152D01*
X109571428Y-60138152D02*
X109666666Y-60185771D01*
X109666666Y-60185771D02*
X109714285Y-60233390D01*
X109714285Y-60233390D02*
X109761904Y-60328628D01*
X109761904Y-60328628D02*
X109761904Y-60614342D01*
X109761904Y-60614342D02*
X109714285Y-60709580D01*
X109714285Y-60709580D02*
X109666666Y-60757200D01*
X109666666Y-60757200D02*
X109571428Y-60804819D01*
X109571428Y-60804819D02*
X109380952Y-60804819D01*
X109380952Y-60804819D02*
X109285714Y-60757200D01*
X110523809Y-60281009D02*
X110190476Y-60281009D01*
X110190476Y-60804819D02*
X110190476Y-59804819D01*
X110190476Y-59804819D02*
X110666666Y-59804819D01*
D12*
%TO.C,S1*%
X103500000Y-79950000D02*
X99500000Y-79950000D01*
X103500000Y-79720000D02*
X103500000Y-79950000D01*
X103500000Y-77050000D02*
X103500000Y-77280000D01*
X99500000Y-79950000D02*
X99500000Y-79720000D01*
X99500000Y-77050000D02*
X103500000Y-77050000D01*
X99500000Y-77050000D02*
X99500000Y-77280000D01*
D13*
%TO.C,U1*%
X114686000Y-65162500D02*
X114686000Y-64927500D01*
X114706000Y-67407500D02*
X114706000Y-66932500D01*
X114931000Y-67407500D02*
X114706000Y-67407500D01*
X117201000Y-64687500D02*
X117426000Y-64687500D01*
X117201000Y-67407500D02*
X117426000Y-67407500D01*
X117426000Y-64687500D02*
X117426000Y-65162500D01*
X117426000Y-67407500D02*
X117426000Y-66932500D01*
X114686000Y-64687500D02*
X114446000Y-64357500D01*
X114926000Y-64357500D01*
X114686000Y-64687500D01*
G36*
X114686000Y-64687500D02*
G01*
X114446000Y-64357500D01*
X114926000Y-64357500D01*
X114686000Y-64687500D01*
G37*
%TO.C,D5*%
X96359000Y-66684000D02*
X96359000Y-68604000D01*
X96359000Y-68604000D02*
X99044000Y-68604000D01*
X99044000Y-66684000D02*
X96359000Y-66684000D01*
D14*
%TO.C,U3*%
X118704500Y-58549400D02*
X118704500Y-58949812D01*
X118704500Y-60993788D02*
X118704500Y-61394200D01*
X122260500Y-58949812D02*
X122260500Y-58549400D01*
X122260500Y-61394200D02*
X122260500Y-60993788D01*
D15*
G36*
X121272999Y-57881101D02*
G01*
X120891999Y-57881101D01*
X120891999Y-57627101D01*
X121272999Y-57627101D01*
X121272999Y-57881101D01*
G37*
D13*
%TO.C,J2*%
X124475500Y-63460000D02*
X132815500Y-63460000D01*
X124475500Y-73700000D02*
X124475500Y-63460000D01*
X124475500Y-73700000D02*
X132815500Y-73700000D01*
X124595500Y-64830000D02*
X125595500Y-64830000D01*
X124595500Y-67330000D02*
X124595500Y-64830000D01*
X124595500Y-67330000D02*
X125595500Y-67330000D01*
X124595500Y-69830000D02*
X125595500Y-69830000D01*
X124595500Y-72330000D02*
X124595500Y-69830000D01*
X124595500Y-72330000D02*
X125595500Y-72330000D01*
X125595500Y-67330000D02*
X125595500Y-64830000D01*
X125595500Y-72330000D02*
X125595500Y-69830000D01*
X126595500Y-73700000D02*
X126595500Y-63460000D01*
X131495500Y-73700000D02*
X131495500Y-63460000D01*
X132095500Y-73700000D02*
X132095500Y-63460000D01*
X132815500Y-70780000D02*
X132815500Y-63460000D01*
X132815500Y-73700000D02*
X132815500Y-71380000D01*
X133425500Y-71520000D02*
X132815500Y-71080000D01*
X133425500Y-70640000D01*
X133425500Y-71520000D01*
G36*
X133425500Y-71520000D02*
G01*
X132815500Y-71080000D01*
X133425500Y-70640000D01*
X133425500Y-71520000D01*
G37*
D11*
%TO.C,U2*%
X103931000Y-60535000D02*
X103931000Y-61685000D01*
X103931000Y-65195000D02*
X103931000Y-64045000D01*
X106581000Y-60535000D02*
X103931000Y-60535000D01*
X106581000Y-65195000D02*
X103931000Y-65195000D01*
X106911000Y-64865000D02*
G75*
G02*
X106851000Y-64865000I-30000J0D01*
G01*
X106851000Y-64865000D02*
G75*
G02*
X106911000Y-64865000I30000J0D01*
G01*
D13*
%TO.C,J3*%
X129430000Y-80518000D02*
X129430000Y-75328000D01*
X132190000Y-75328000D02*
X129430000Y-75328000D01*
X132190000Y-80518000D02*
X129430000Y-80518000D01*
X132190000Y-80518000D02*
X132190000Y-75328000D01*
X132190000Y-81788000D02*
X132190000Y-83168000D01*
X132190000Y-83168000D02*
X130810000Y-83168000D01*
%TO.C,J1*%
X98548000Y-55528000D02*
X100248000Y-55528000D01*
X98548000Y-64868000D02*
X100248000Y-64868000D01*
%TO.C,D7*%
X96359000Y-71684000D02*
X96359000Y-73604000D01*
X96359000Y-73604000D02*
X99044000Y-73604000D01*
X99044000Y-71684000D02*
X96359000Y-71684000D01*
%TO.C,U4*%
X113820000Y-70071000D02*
X113820000Y-70306000D01*
X113820000Y-83091000D02*
X113820000Y-82856000D01*
X117680000Y-70071000D02*
X113820000Y-70071000D01*
X117680000Y-70071000D02*
X121540000Y-70071000D01*
X117680000Y-83091000D02*
X113820000Y-83091000D01*
X117680000Y-83091000D02*
X121540000Y-83091000D01*
X121540000Y-70071000D02*
X121540000Y-70306000D01*
X121540000Y-83091000D02*
X121540000Y-82856000D01*
X112967500Y-70306000D02*
X112627500Y-69836000D01*
X113307500Y-69836000D01*
X112967500Y-70306000D01*
G36*
X112967500Y-70306000D02*
G01*
X112627500Y-69836000D01*
X113307500Y-69836000D01*
X112967500Y-70306000D01*
G37*
%TO.C,D8*%
X96359000Y-74184000D02*
X96359000Y-76104000D01*
X96359000Y-76104000D02*
X99044000Y-76104000D01*
X99044000Y-74184000D02*
X96359000Y-74184000D01*
%TO.C,D6*%
X96359000Y-69184000D02*
X96359000Y-71104000D01*
X96359000Y-71104000D02*
X99044000Y-71104000D01*
X99044000Y-69184000D02*
X96359000Y-69184000D01*
%TD*%
%LPC*%
D16*
%TO.C,R1*%
X125680000Y-82250000D03*
X127500000Y-82250000D03*
%TD*%
%TO.C,R3*%
X125680000Y-80000000D03*
X127500000Y-80000000D03*
%TD*%
D17*
%TO.C,S1*%
X103575000Y-78500000D03*
X99425000Y-78500000D03*
%TD*%
D18*
%TO.C,R7*%
X121282000Y-56176000D03*
X121282000Y-54356000D03*
%TD*%
D19*
%TO.C,C3*%
X119126000Y-66106000D03*
X119126000Y-68006000D03*
%TD*%
%TO.C,C10*%
X126746000Y-59502000D03*
X126746000Y-61402000D03*
%TD*%
D20*
%TO.C,U1*%
X114803500Y-65547500D03*
X114803500Y-66047500D03*
X114803500Y-66547500D03*
D21*
X115316000Y-67310000D03*
X115816000Y-67310000D03*
X116316000Y-67310000D03*
X116816000Y-67310000D03*
D20*
X117328500Y-66547500D03*
X117328500Y-66047500D03*
X117328500Y-65547500D03*
D21*
X116816000Y-64785000D03*
X116316000Y-64785000D03*
X115816000Y-64785000D03*
X115316000Y-64785000D03*
D22*
X116066000Y-66047500D03*
%TD*%
D23*
%TO.C,D5*%
X97106500Y-67644000D03*
X98981500Y-67644000D03*
%TD*%
D24*
%TO.C,U3*%
X119282500Y-61214000D03*
X119882501Y-61214000D03*
X120482500Y-61214000D03*
X121082499Y-61214000D03*
X121682500Y-61214000D03*
D25*
X121839000Y-60571748D03*
X121839000Y-59971800D03*
X121839000Y-59371852D03*
D24*
X121682500Y-58729600D03*
X121082499Y-58729600D03*
X120482500Y-58729600D03*
X119882501Y-58729600D03*
X119282500Y-58729600D03*
D25*
X119126000Y-59371852D03*
X119126000Y-59971800D03*
X119126000Y-60571748D03*
%TD*%
D26*
%TO.C,C9*%
X123872000Y-56216000D03*
X123872000Y-54316000D03*
%TD*%
D16*
%TO.C,R6*%
X118718501Y-63019800D03*
X120538501Y-63019800D03*
%TD*%
D27*
%TO.C,J2*%
X128645500Y-71080000D03*
D28*
X128645500Y-66080000D03*
%TD*%
D26*
%TO.C,C13*%
X111704000Y-63754000D03*
X111704000Y-61854000D03*
%TD*%
D29*
%TO.C,C4*%
X109860000Y-66040000D03*
X111760000Y-66040000D03*
%TD*%
D30*
%TO.C,R8*%
X127508000Y-77978000D03*
X125688000Y-77978000D03*
%TD*%
D31*
%TO.C,U2*%
X107241000Y-64365000D03*
D32*
X104521000Y-62865000D03*
D33*
X104881000Y-62865000D03*
X105881000Y-62865000D03*
D31*
X107241000Y-62865000D03*
X107241000Y-61365000D03*
%TD*%
D34*
%TO.C,J3*%
X130810000Y-81788000D03*
D35*
X130810000Y-79248000D03*
X130810000Y-76708000D03*
%TD*%
D36*
%TO.C,J1*%
X101378000Y-59698000D03*
D37*
X101378000Y-61718000D03*
D38*
X101378000Y-62948000D03*
D39*
X101378000Y-60698000D03*
D40*
X101378000Y-58678000D03*
D41*
X101378000Y-57448000D03*
D42*
X101298000Y-55878000D03*
X97498000Y-55878000D03*
X101298000Y-64518000D03*
X97498000Y-64518000D03*
%TD*%
D23*
%TO.C,D7*%
X97106500Y-72644000D03*
X98981500Y-72644000D03*
%TD*%
D18*
%TO.C,R9*%
X118872000Y-56176000D03*
X118872000Y-54356000D03*
%TD*%
D26*
%TO.C,C8*%
X113800000Y-59116000D03*
X113800000Y-57216000D03*
%TD*%
D16*
%TO.C,R11*%
X103484000Y-67604000D03*
X105304000Y-67604000D03*
%TD*%
D43*
%TO.C,U4*%
X113030000Y-70866000D03*
X113030000Y-72136000D03*
X113030000Y-73406000D03*
X113030000Y-74676000D03*
X113030000Y-75946000D03*
X113030000Y-77216000D03*
X113030000Y-78486000D03*
X113030000Y-79756000D03*
X113030000Y-81026000D03*
X113030000Y-82296000D03*
X122330000Y-82296000D03*
X122330000Y-81026000D03*
X122330000Y-79756000D03*
X122330000Y-78486000D03*
X122330000Y-77216000D03*
X122330000Y-75946000D03*
X122330000Y-74676000D03*
X122330000Y-73406000D03*
X122330000Y-72136000D03*
X122330000Y-70866000D03*
%TD*%
D16*
%TO.C,R14*%
X103484000Y-75104000D03*
X105304000Y-75104000D03*
%TD*%
%TO.C,R12*%
X103484000Y-70104000D03*
X105304000Y-70104000D03*
%TD*%
D26*
%TO.C,C12*%
X111400000Y-59100000D03*
X111400000Y-57200000D03*
%TD*%
D19*
%TO.C,C1*%
X122326000Y-66156000D03*
X122326000Y-68056000D03*
%TD*%
D29*
%TO.C,C7*%
X107442000Y-56388000D03*
X109342000Y-56388000D03*
%TD*%
D18*
%TO.C,R2*%
X110236000Y-82338000D03*
X110236000Y-80518000D03*
%TD*%
D44*
%TO.C,C5*%
X111760000Y-68580000D03*
X109860000Y-68580000D03*
%TD*%
D30*
%TO.C,RPA0*%
X127508000Y-75819000D03*
X125688000Y-75819000D03*
%TD*%
D23*
%TO.C,D8*%
X97106500Y-75144000D03*
X98981500Y-75144000D03*
%TD*%
D16*
%TO.C,R13*%
X103484000Y-72604000D03*
X105304000Y-72604000D03*
%TD*%
D26*
%TO.C,C2*%
X116278501Y-59116000D03*
X116278501Y-57216000D03*
%TD*%
D19*
%TO.C,C11*%
X124206000Y-59502000D03*
X124206000Y-61402000D03*
%TD*%
D18*
%TO.C,R10*%
X107442000Y-80412000D03*
X107442000Y-78592000D03*
%TD*%
D29*
%TO.C,C6*%
X107442000Y-58674000D03*
X109342000Y-58674000D03*
%TD*%
D23*
%TO.C,D6*%
X97106500Y-70144000D03*
X98981500Y-70144000D03*
%TD*%
%LPD*%
M02*
