%TF.GenerationSoftware,KiCad,Pcbnew,9.0.1*%
%TF.CreationDate,2026-03-04T19:57:25-05:00*%
%TF.ProjectId,USBC_PD_Trigger_Kicad_V2,55534243-5f50-4445-9f54-726967676572,rev?*%
%TF.SameCoordinates,Original*%
%TF.FileFunction,Copper,L1,Top*%
%TF.FilePolarity,Positive*%
%FSLAX46Y46*%
G04 Gerber Fmt 4.6, Leading zero omitted, Abs format (unit mm)*
G04 Created by KiCad (PCBNEW 9.0.1) date 2026-03-04 19:57:25*
%MOMM*%
%LPD*%
G01*
G04 APERTURE LIST*
G04 Aperture macros list*
%AMRoundRect*
0 Rectangle with rounded corners*
0 $1 Rounding radius*
0 $2 $3 $4 $5 $6 $7 $8 $9 X,Y pos of 4 corners*
0 Add a 4 corners polygon primitive as box body*
4,1,4,$2,$3,$4,$5,$6,$7,$8,$9,$2,$3,0*
0 Add four circle primitives for the rounded corners*
1,1,$1+$1,$2,$3*
1,1,$1+$1,$4,$5*
1,1,$1+$1,$6,$7*
1,1,$1+$1,$8,$9*
0 Add four rect primitives between the rounded corners*
20,1,$1+$1,$2,$3,$4,$5,0*
20,1,$1+$1,$4,$5,$6,$7,0*
20,1,$1+$1,$6,$7,$8,$9,0*
20,1,$1+$1,$8,$9,$2,$3,0*%
%AMFreePoly0*
4,1,123,0.971755,0.948895,1.016180,0.945771,1.060427,0.940564,1.104369,0.933299,1.147930,0.923952,1.190983,0.912598,1.233477,0.899238,1.275286,0.883896,1.316332,0.866599,1.356541,0.847422,1.395784,0.826365,1.434011,0.803480,1.471120,0.778842,1.507036,0.752502,1.541656,0.724511,1.574956,0.694895,1.606807,0.663780,1.637186,0.631191,1.665989,0.597231,1.693167,0.561951,
1.718669,0.525425,1.742418,0.487757,1.764389,0.448997,1.784531,0.409271,1.802769,0.329972,2.700102,0.329972,2.700102,-0.330023,1.802769,-0.330023,1.784531,-0.409373,1.764389,-0.449098,1.742418,-0.487859,1.718669,-0.525527,1.693167,-0.562052,1.665989,-0.597333,1.637186,-0.631293,1.606807,-0.663881,1.574956,-0.694996,1.541656,-0.724613,1.507036,-0.752604,1.471120,-0.778943,
1.434011,-0.803581,1.395784,-0.826467,1.356541,-0.847523,1.316332,-0.866701,1.275286,-0.883998,1.233477,-0.899340,1.190983,-0.912700,1.147930,-0.924054,1.104369,-0.933401,1.060427,-0.940665,1.016180,-0.945872,0.971755,-0.948997,0.927229,-0.950064,-0.926975,-0.950064,-0.971501,-0.948997,-1.015926,-0.945872,-1.060173,-0.940665,-1.104115,-0.933401,-1.147676,-0.924054,-1.190729,-0.912700,
-1.233223,-0.899340,-1.275032,-0.883998,-1.316078,-0.866701,-1.356287,-0.847523,-1.395530,-0.826467,-1.433757,-0.803581,-1.470866,-0.778943,-1.506782,-0.752604,-1.541402,-0.724613,-1.574702,-0.694996,-1.606553,-0.663881,-1.636932,-0.631293,-1.665735,-0.597333,-1.692913,-0.562052,-1.718415,-0.525527,-1.742164,-0.487859,-1.764135,-0.449098,-1.784277,-0.409373,-1.802515,-0.368733,-1.818847,-0.327305,
-1.833198,-0.285141,-1.845568,-0.242342,-1.855906,-0.199009,-1.864211,-0.155271,-1.870460,-0.111151,-1.874625,-0.066802,-1.876708,-0.022327,-1.876708,0.022225,-1.874625,0.066701,-1.870460,0.111049,-1.864211,0.155169,-1.855906,0.198908,-1.845568,0.242240,-1.833198,0.285039,-1.818847,0.327203,-1.802515,0.368631,-1.784277,0.409271,-1.764135,0.448997,-1.742164,0.487757,-1.718415,0.525425,
-1.692913,0.561951,-1.665735,0.597231,-1.636932,0.631191,-1.606553,0.663780,-1.574702,0.694895,-1.541402,0.724511,-1.506782,0.752502,-1.470866,0.778842,-1.433757,0.803480,-1.395530,0.826365,-1.356287,0.847422,-1.316078,0.866599,-1.275032,0.883896,-1.233223,0.899238,-1.190729,0.912598,-1.147676,0.923952,-1.104115,0.933299,-1.060173,0.940564,-1.015926,0.945771,-0.971501,0.948895,
-0.926975,0.950000,0.927229,0.950000,0.971755,0.948895,0.971755,0.948895,$1*%
G04 Aperture macros list end*
%TA.AperFunction,SMDPad,CuDef*%
%ADD10RoundRect,0.248780X-0.261220X-0.451220X0.261220X-0.451220X0.261220X0.451220X-0.261220X0.451220X0*%
%TD*%
%TA.AperFunction,SMDPad,CuDef*%
%ADD11RoundRect,0.250000X0.425000X0.650000X-0.425000X0.650000X-0.425000X-0.650000X0.425000X-0.650000X0*%
%TD*%
%TA.AperFunction,SMDPad,CuDef*%
%ADD12RoundRect,0.248780X0.451220X-0.261220X0.451220X0.261220X-0.451220X0.261220X-0.451220X-0.261220X0*%
%TD*%
%TA.AperFunction,SMDPad,CuDef*%
%ADD13RoundRect,0.250000X-0.475000X0.250000X-0.475000X-0.250000X0.475000X-0.250000X0.475000X0.250000X0*%
%TD*%
%TA.AperFunction,SMDPad,CuDef*%
%ADD14RoundRect,0.062500X-0.275000X-0.062500X0.275000X-0.062500X0.275000X0.062500X-0.275000X0.062500X0*%
%TD*%
%TA.AperFunction,SMDPad,CuDef*%
%ADD15RoundRect,0.062500X-0.062500X-0.275000X0.062500X-0.275000X0.062500X0.275000X-0.062500X0.275000X0*%
%TD*%
%TA.AperFunction,HeatsinkPad*%
%ADD16R,1.450000X1.450000*%
%TD*%
%TA.AperFunction,SMDPad,CuDef*%
%ADD17RoundRect,0.243750X-0.243750X-0.456250X0.243750X-0.456250X0.243750X0.456250X-0.243750X0.456250X0*%
%TD*%
%TA.AperFunction,SMDPad,CuDef*%
%ADD18R,0.254800X0.706399*%
%TD*%
%TA.AperFunction,SMDPad,CuDef*%
%ADD19R,1.188999X0.178600*%
%TD*%
%TA.AperFunction,SMDPad,CuDef*%
%ADD20RoundRect,0.250000X0.475000X-0.250000X0.475000X0.250000X-0.475000X0.250000X-0.475000X-0.250000X0*%
%TD*%
%TA.AperFunction,ComponentPad*%
%ADD21RoundRect,0.250001X0.799999X-0.799999X0.799999X0.799999X-0.799999X0.799999X-0.799999X-0.799999X0*%
%TD*%
%TA.AperFunction,ComponentPad*%
%ADD22C,2.100000*%
%TD*%
%TA.AperFunction,SMDPad,CuDef*%
%ADD23RoundRect,0.250000X-0.250000X-0.475000X0.250000X-0.475000X0.250000X0.475000X-0.250000X0.475000X0*%
%TD*%
%TA.AperFunction,SMDPad,CuDef*%
%ADD24RoundRect,0.248780X0.261220X0.451220X-0.261220X0.451220X-0.261220X-0.451220X0.261220X-0.451220X0*%
%TD*%
%TA.AperFunction,SMDPad,CuDef*%
%ADD25RoundRect,0.167500X-0.622500X-0.167500X0.622500X-0.167500X0.622500X0.167500X-0.622500X0.167500X0*%
%TD*%
%TA.AperFunction,SMDPad,CuDef*%
%ADD26FreePoly0,0.000000*%
%TD*%
%TA.AperFunction,ComponentPad*%
%ADD27C,0.500000*%
%TD*%
%TA.AperFunction,ComponentPad*%
%ADD28R,1.700000X1.700000*%
%TD*%
%TA.AperFunction,ComponentPad*%
%ADD29C,1.700000*%
%TD*%
%TA.AperFunction,SMDPad,CuDef*%
%ADD30RoundRect,0.175000X-0.425000X0.175000X-0.425000X-0.175000X0.425000X-0.175000X0.425000X0.175000X0*%
%TD*%
%TA.AperFunction,SMDPad,CuDef*%
%ADD31RoundRect,0.190000X0.410000X-0.190000X0.410000X0.190000X-0.410000X0.190000X-0.410000X-0.190000X0*%
%TD*%
%TA.AperFunction,SMDPad,CuDef*%
%ADD32RoundRect,0.200000X0.400000X-0.200000X0.400000X0.200000X-0.400000X0.200000X-0.400000X-0.200000X0*%
%TD*%
%TA.AperFunction,SMDPad,CuDef*%
%ADD33RoundRect,0.175000X0.425000X-0.175000X0.425000X0.175000X-0.425000X0.175000X-0.425000X-0.175000X0*%
%TD*%
%TA.AperFunction,SMDPad,CuDef*%
%ADD34RoundRect,0.190000X-0.410000X0.190000X-0.410000X-0.190000X0.410000X-0.190000X0.410000X0.190000X0*%
%TD*%
%TA.AperFunction,SMDPad,CuDef*%
%ADD35RoundRect,0.200000X-0.400000X0.200000X-0.400000X-0.200000X0.400000X-0.200000X0.400000X0.200000X0*%
%TD*%
%TA.AperFunction,HeatsinkPad*%
%ADD36O,1.700000X1.100000*%
%TD*%
%TA.AperFunction,SMDPad,CuDef*%
%ADD37RoundRect,0.150000X-0.875000X-0.150000X0.875000X-0.150000X0.875000X0.150000X-0.875000X0.150000X0*%
%TD*%
%TA.AperFunction,SMDPad,CuDef*%
%ADD38RoundRect,0.250000X0.250000X0.475000X-0.250000X0.475000X-0.250000X-0.475000X0.250000X-0.475000X0*%
%TD*%
%TA.AperFunction,ViaPad*%
%ADD39C,0.600000*%
%TD*%
%TA.AperFunction,Conductor*%
%ADD40C,0.800000*%
%TD*%
%TA.AperFunction,Conductor*%
%ADD41C,0.400000*%
%TD*%
%TA.AperFunction,Conductor*%
%ADD42C,0.200000*%
%TD*%
%TA.AperFunction,Conductor*%
%ADD43C,0.600000*%
%TD*%
G04 APERTURE END LIST*
D10*
%TO.P,R1,1*%
%TO.N,/SDA*%
X125680000Y-82250000D03*
%TO.P,R1,2*%
%TO.N,VCC*%
X127500000Y-82250000D03*
%TD*%
%TO.P,R3,1*%
%TO.N,/INT_N*%
X125680000Y-80000000D03*
%TO.P,R3,2*%
%TO.N,VCC*%
X127500000Y-80000000D03*
%TD*%
D11*
%TO.P,S1,1,A*%
%TO.N,/IO5*%
X103575000Y-78500000D03*
%TO.P,S1,2,B*%
%TO.N,GND*%
X99425000Y-78500000D03*
%TD*%
D12*
%TO.P,R7,1*%
%TO.N,/ILIM*%
X121282000Y-56176000D03*
%TO.P,R7,2*%
%TO.N,GND*%
X121282000Y-54356000D03*
%TD*%
D13*
%TO.P,C3,1*%
%TO.N,VCONN*%
X119126000Y-66106000D03*
%TO.P,C3,2*%
%TO.N,GND*%
X119126000Y-68006000D03*
%TD*%
%TO.P,C10,1*%
%TO.N,/VOUT*%
X126746000Y-59502000D03*
%TO.P,C10,2*%
%TO.N,GND*%
X126746000Y-61402000D03*
%TD*%
D14*
%TO.P,U1,1,CC2*%
%TO.N,/CC2*%
X114803500Y-65547500D03*
%TO.P,U1,2,VBUS*%
%TO.N,/VBUS*%
X114803500Y-66047500D03*
%TO.P,U1,3,VDD*%
%TO.N,VCC*%
X114803500Y-66547500D03*
D15*
%TO.P,U1,4,VDD*%
X115316000Y-67310000D03*
%TO.P,U1,5,INT_N*%
%TO.N,/INT_N*%
X115816000Y-67310000D03*
%TO.P,U1,6,SCL*%
%TO.N,/SCL*%
X116316000Y-67310000D03*
%TO.P,U1,7,SDA*%
%TO.N,/SDA*%
X116816000Y-67310000D03*
D14*
%TO.P,U1,8,GND*%
%TO.N,GND*%
X117328500Y-66547500D03*
%TO.P,U1,9,GND*%
X117328500Y-66047500D03*
%TO.P,U1,10,CC1*%
%TO.N,/CC1*%
X117328500Y-65547500D03*
D15*
%TO.P,U1,11,CC1*%
X116816000Y-64785000D03*
%TO.P,U1,12,VCONN*%
%TO.N,VCONN*%
X116316000Y-64785000D03*
%TO.P,U1,13,VCONN*%
X115816000Y-64785000D03*
%TO.P,U1,14,CC2*%
%TO.N,/CC2*%
X115316000Y-64785000D03*
D16*
%TO.P,U1,15,GND*%
%TO.N,GND*%
X116066000Y-66047500D03*
%TD*%
D17*
%TO.P,D5,1,K*%
%TO.N,GND*%
X97106500Y-67644000D03*
%TO.P,D5,2,A*%
%TO.N,Net-(D5-A)*%
X98981500Y-67644000D03*
%TD*%
D18*
%TO.P,U3,1,NOSS*%
%TO.N,unconnected-(U3-NOSS-Pad1)*%
X119282500Y-61214000D03*
%TO.P,U3,2,DISCI*%
%TO.N,unconnected-(U3-DISCI-Pad2)*%
X119882501Y-61214000D03*
%TO.P,U3,3,DISCO*%
%TO.N,unconnected-(U3-DISCO-Pad3)*%
X120482500Y-61214000D03*
%TO.P,U3,4,EN*%
%TO.N,/EN*%
X121082499Y-61214000D03*
%TO.P,U3,5,NC*%
%TO.N,unconnected-(U3-NC-Pad5)*%
X121682500Y-61214000D03*
D19*
%TO.P,U3,6,IN*%
%TO.N,unconnected-(U3-IN-Pad6)*%
X121839000Y-60571748D03*
%TO.P,U3,7,MOUT*%
%TO.N,unconnected-(U3-MOUT-Pad7)*%
X121839000Y-59971800D03*
%TO.P,U3,8,OUT*%
%TO.N,/VOUT*%
X121839000Y-59371852D03*
D18*
%TO.P,U3,9,FLTB*%
%TO.N,Net-(U3-FLTB)*%
X121682500Y-58729600D03*
%TO.P,U3,10,SS*%
%TO.N,/SS*%
X121082499Y-58729600D03*
%TO.P,U3,11,ILIM*%
%TO.N,/ILIM*%
X120482500Y-58729600D03*
%TO.P,U3,12,VLIM*%
%TO.N,/VLIM*%
X119882501Y-58729600D03*
%TO.P,U3,13,GND*%
%TO.N,GND*%
X119282500Y-58729600D03*
D19*
%TO.P,U3,14,OUT*%
%TO.N,unconnected-(U3-OUT-Pad14)*%
X119126000Y-59371852D03*
%TO.P,U3,15,MOUT*%
%TO.N,unconnected-(U3-MOUT-Pad15)*%
X119126000Y-59971800D03*
%TO.P,U3,16,IN*%
%TO.N,/VBUS*%
X119126000Y-60571748D03*
%TD*%
D20*
%TO.P,C9,1*%
%TO.N,/SS*%
X123872000Y-56216000D03*
%TO.P,C9,2*%
%TO.N,GND*%
X123872000Y-54316000D03*
%TD*%
D10*
%TO.P,R6,1*%
%TO.N,/VBUS*%
X118718501Y-63019800D03*
%TO.P,R6,2*%
%TO.N,/EN*%
X120538501Y-63019800D03*
%TD*%
D21*
%TO.P,J2,1,Pin_1*%
%TO.N,GND*%
X128645500Y-71080000D03*
D22*
%TO.P,J2,2,Pin_2*%
%TO.N,/VOUT*%
X128645500Y-66080000D03*
%TD*%
D20*
%TO.P,C13,1*%
%TO.N,VCC*%
X111704000Y-63754000D03*
%TO.P,C13,2*%
%TO.N,GND*%
X111704000Y-61854000D03*
%TD*%
D23*
%TO.P,C4,1*%
%TO.N,GND*%
X109860000Y-66040000D03*
%TO.P,C4,2*%
%TO.N,VCC*%
X111760000Y-66040000D03*
%TD*%
D24*
%TO.P,R8,1*%
%TO.N,Net-(U3-FLTB)*%
X127508000Y-77978000D03*
%TO.P,R8,2*%
%TO.N,/FLTB*%
X125688000Y-77978000D03*
%TD*%
D25*
%TO.P,U2,1,GND*%
%TO.N,GND*%
X107241000Y-64365000D03*
D26*
%TO.P,U2,2,VIN*%
%TO.N,/VBUS*%
X104521000Y-62865000D03*
D27*
X104881000Y-62865000D03*
X105881000Y-62865000D03*
D25*
X107241000Y-62865000D03*
%TO.P,U2,3,VOUT*%
%TO.N,VCC*%
X107241000Y-61365000D03*
%TD*%
D28*
%TO.P,J3,1,Pin_1*%
%TO.N,GND*%
X130810000Y-81788000D03*
D29*
%TO.P,J3,2,Pin_2*%
%TO.N,VCC*%
X130810000Y-79248000D03*
%TO.P,J3,3,Pin_3*%
%TO.N,Net-(J3-Pin_3)*%
X130810000Y-76708000D03*
%TD*%
D30*
%TO.P,J1,A5,CC1*%
%TO.N,/CC1*%
X101378000Y-59698000D03*
D31*
%TO.P,J1,A9,VBUS*%
%TO.N,/VBUS*%
X101378000Y-61718000D03*
D32*
%TO.P,J1,A12,GND*%
%TO.N,GND*%
X101378000Y-62948000D03*
D33*
%TO.P,J1,B5,CC2*%
%TO.N,/CC2*%
X101378000Y-60698000D03*
D34*
%TO.P,J1,B9,VBUS*%
%TO.N,/VBUS*%
X101378000Y-58678000D03*
D35*
%TO.P,J1,B12,GND*%
%TO.N,GND*%
X101378000Y-57448000D03*
D36*
%TO.P,J1,S1,SHIELD*%
X101298000Y-55878000D03*
X97498000Y-55878000D03*
X101298000Y-64518000D03*
X97498000Y-64518000D03*
%TD*%
D17*
%TO.P,D7,1,K*%
%TO.N,GND*%
X97106500Y-72644000D03*
%TO.P,D7,2,A*%
%TO.N,Net-(D7-A)*%
X98981500Y-72644000D03*
%TD*%
D12*
%TO.P,R9,1*%
%TO.N,/VLIM*%
X118872000Y-56176000D03*
%TO.P,R9,2*%
%TO.N,GND*%
X118872000Y-54356000D03*
%TD*%
D20*
%TO.P,C8,1*%
%TO.N,/VBUS*%
X113800000Y-59116000D03*
%TO.P,C8,2*%
%TO.N,GND*%
X113800000Y-57216000D03*
%TD*%
D10*
%TO.P,R11,1*%
%TO.N,Net-(D5-A)*%
X103484000Y-67604000D03*
%TO.P,R11,2*%
%TO.N,/IO4*%
X105304000Y-67604000D03*
%TD*%
D37*
%TO.P,U4,1,VCC*%
%TO.N,VCC*%
X113030000Y-70866000D03*
%TO.P,U4,2,PA4*%
%TO.N,/IO4*%
X113030000Y-72136000D03*
%TO.P,U4,3,PA5*%
%TO.N,/IO3*%
X113030000Y-73406000D03*
%TO.P,U4,4,PA6*%
%TO.N,/IO2*%
X113030000Y-74676000D03*
%TO.P,U4,5,PA7*%
%TO.N,/IO1*%
X113030000Y-75946000D03*
%TO.P,U4,6,PB5*%
%TO.N,unconnected-(U4-PB5-Pad6)*%
X113030000Y-77216000D03*
%TO.P,U4,7,PB4*%
%TO.N,/IO5*%
X113030000Y-78486000D03*
%TO.P,U4,8,PB3*%
%TO.N,unconnected-(U4-PB3-Pad8)*%
X113030000Y-79756000D03*
%TO.P,U4,9,PB2*%
%TO.N,unconnected-(U4-PB2-Pad9)*%
X113030000Y-81026000D03*
%TO.P,U4,10,PB1*%
%TO.N,/SCL*%
X113030000Y-82296000D03*
%TO.P,U4,11,PB0*%
%TO.N,/SDA*%
X122330000Y-82296000D03*
%TO.P,U4,12,PC0*%
%TO.N,/INT_N*%
X122330000Y-81026000D03*
%TO.P,U4,13,PC1*%
%TO.N,/FLTB*%
X122330000Y-79756000D03*
%TO.P,U4,14,PC2*%
%TO.N,unconnected-(U4-PC2-Pad14)*%
X122330000Y-78486000D03*
%TO.P,U4,15,PC3*%
%TO.N,unconnected-(U4-PC3-Pad15)*%
X122330000Y-77216000D03*
%TO.P,U4,16,~{RESET}/PA0*%
%TO.N,/PA0*%
X122330000Y-75946000D03*
%TO.P,U4,17,PA1*%
%TO.N,unconnected-(U4-PA1-Pad17)*%
X122330000Y-74676000D03*
%TO.P,U4,18,PA2*%
%TO.N,unconnected-(U4-PA2-Pad18)*%
X122330000Y-73406000D03*
%TO.P,U4,19,PA3*%
%TO.N,unconnected-(U4-PA3-Pad19)*%
X122330000Y-72136000D03*
%TO.P,U4,20,GND*%
%TO.N,GND*%
X122330000Y-70866000D03*
%TD*%
D10*
%TO.P,R14,1*%
%TO.N,Net-(D8-A)*%
X103484000Y-75104000D03*
%TO.P,R14,2*%
%TO.N,/IO1*%
X105304000Y-75104000D03*
%TD*%
%TO.P,R12,1*%
%TO.N,Net-(D6-A)*%
X103484000Y-70104000D03*
%TO.P,R12,2*%
%TO.N,/IO3*%
X105304000Y-70104000D03*
%TD*%
D20*
%TO.P,C12,1*%
%TO.N,/VBUS*%
X111400000Y-59100000D03*
%TO.P,C12,2*%
%TO.N,GND*%
X111400000Y-57200000D03*
%TD*%
D13*
%TO.P,C1,1*%
%TO.N,VCONN*%
X122326000Y-66156000D03*
%TO.P,C1,2*%
%TO.N,GND*%
X122326000Y-68056000D03*
%TD*%
D23*
%TO.P,C7,1*%
%TO.N,/CC1*%
X107442000Y-56388000D03*
%TO.P,C7,2*%
%TO.N,GND*%
X109342000Y-56388000D03*
%TD*%
D12*
%TO.P,R2,1*%
%TO.N,/SCL*%
X110236000Y-82338000D03*
%TO.P,R2,2*%
%TO.N,VCC*%
X110236000Y-80518000D03*
%TD*%
D38*
%TO.P,C5,1*%
%TO.N,VCC*%
X111760000Y-68580000D03*
%TO.P,C5,2*%
%TO.N,GND*%
X109860000Y-68580000D03*
%TD*%
D24*
%TO.P,RPA0,1*%
%TO.N,Net-(J3-Pin_3)*%
X127508000Y-75819000D03*
%TO.P,RPA0,2*%
%TO.N,/PA0*%
X125688000Y-75819000D03*
%TD*%
D17*
%TO.P,D8,1,K*%
%TO.N,GND*%
X97106500Y-75144000D03*
%TO.P,D8,2,A*%
%TO.N,Net-(D8-A)*%
X98981500Y-75144000D03*
%TD*%
D10*
%TO.P,R13,1*%
%TO.N,Net-(D7-A)*%
X103484000Y-72604000D03*
%TO.P,R13,2*%
%TO.N,/IO2*%
X105304000Y-72604000D03*
%TD*%
D20*
%TO.P,C2,1*%
%TO.N,/VBUS*%
X116278501Y-59116000D03*
%TO.P,C2,2*%
%TO.N,GND*%
X116278501Y-57216000D03*
%TD*%
D13*
%TO.P,C11,1*%
%TO.N,/VOUT*%
X124206000Y-59502000D03*
%TO.P,C11,2*%
%TO.N,GND*%
X124206000Y-61402000D03*
%TD*%
D12*
%TO.P,R10,1*%
%TO.N,VCC*%
X107442000Y-80412000D03*
%TO.P,R10,2*%
%TO.N,/IO5*%
X107442000Y-78592000D03*
%TD*%
D23*
%TO.P,C6,1*%
%TO.N,/CC2*%
X107442000Y-58674000D03*
%TO.P,C6,2*%
%TO.N,GND*%
X109342000Y-58674000D03*
%TD*%
D17*
%TO.P,D6,1,K*%
%TO.N,GND*%
X97106500Y-70144000D03*
%TO.P,D6,2,A*%
%TO.N,Net-(D6-A)*%
X98981500Y-70144000D03*
%TD*%
D39*
%TO.N,GND*%
X96500000Y-79500000D03*
X97500000Y-79500000D03*
X96500000Y-77500000D03*
X96500000Y-78500000D03*
X97500000Y-78500000D03*
X97500000Y-77500000D03*
X104500000Y-80500000D03*
X104500000Y-82500000D03*
X105500000Y-80500000D03*
X105500000Y-83500000D03*
X105500000Y-82500000D03*
X105500000Y-81500000D03*
X104500000Y-81500000D03*
X104500000Y-83500000D03*
X101500000Y-81500000D03*
X100500000Y-80500000D03*
X101500000Y-82500000D03*
X102500000Y-80500000D03*
X103500000Y-82500000D03*
X100500000Y-82500000D03*
X102500000Y-83500000D03*
X102500000Y-82500000D03*
X103500000Y-80500000D03*
X100500000Y-81500000D03*
X103500000Y-81500000D03*
X102500000Y-81500000D03*
X101500000Y-80500000D03*
X103500000Y-83500000D03*
X101500000Y-83500000D03*
X100500000Y-83500000D03*
X97500000Y-81500000D03*
X96500000Y-80500000D03*
X97500000Y-82500000D03*
X98500000Y-80500000D03*
X99500000Y-82500000D03*
X96500000Y-82500000D03*
X98500000Y-83500000D03*
X98500000Y-82500000D03*
X99500000Y-80500000D03*
X96500000Y-81500000D03*
X99500000Y-81500000D03*
X98500000Y-81500000D03*
X97500000Y-80500000D03*
X99500000Y-83500000D03*
X97500000Y-83500000D03*
X96500000Y-83500000D03*
X115000000Y-55000000D03*
X119500000Y-74500000D03*
X108331000Y-67310000D03*
X130500000Y-56000000D03*
X131500000Y-58000000D03*
X116000000Y-56000000D03*
X96000000Y-54000000D03*
X108000000Y-54000000D03*
X132500000Y-54000000D03*
X96000000Y-61000000D03*
X118500000Y-69500000D03*
X131500000Y-59000000D03*
X110000000Y-55000000D03*
X127500000Y-57000000D03*
X120500000Y-76500000D03*
X131500000Y-60000000D03*
X112000000Y-54000000D03*
X129500000Y-59000000D03*
X119500000Y-69500000D03*
X132500000Y-58000000D03*
X109000000Y-54000000D03*
X130500000Y-57000000D03*
X125476000Y-62738000D03*
X96000000Y-63000000D03*
X119500000Y-71500000D03*
X97000000Y-63000000D03*
X126500000Y-57000000D03*
X111000000Y-55000000D03*
X132500000Y-60000000D03*
X117000000Y-55000000D03*
X106000000Y-54000000D03*
X127500000Y-58000000D03*
X129500000Y-57000000D03*
X105000000Y-55000000D03*
X127500000Y-54000000D03*
X103000000Y-56000000D03*
X102000000Y-54000000D03*
X118500000Y-70500000D03*
X132500000Y-61000000D03*
X132500000Y-56000000D03*
X118500000Y-76500000D03*
X112000000Y-55000000D03*
X97000000Y-58000000D03*
X101000000Y-54000000D03*
X118500000Y-72500000D03*
X120500000Y-72500000D03*
X120500000Y-70500000D03*
X128500000Y-55000000D03*
X120500000Y-75500000D03*
X132500000Y-57000000D03*
X118500000Y-73500000D03*
X109000000Y-55000000D03*
X118500000Y-71500000D03*
X132500000Y-59000000D03*
X131500000Y-54000000D03*
X96000000Y-57000000D03*
X104000000Y-56000000D03*
X103000000Y-55000000D03*
X130500000Y-59000000D03*
X116000000Y-54000000D03*
X113000000Y-55000000D03*
X114000000Y-56000000D03*
X132500000Y-55000000D03*
X128500000Y-58000000D03*
X129500000Y-55000000D03*
X97000000Y-57000000D03*
X105000000Y-56000000D03*
X98000000Y-54000000D03*
X130500000Y-55000000D03*
X126500000Y-55000000D03*
X97000000Y-61000000D03*
X106000000Y-55000000D03*
X130500000Y-54000000D03*
X114000000Y-55000000D03*
X97000000Y-62000000D03*
X113000000Y-54000000D03*
X113000000Y-56000000D03*
X120500000Y-69500000D03*
X126500000Y-58000000D03*
X128500000Y-57000000D03*
X96000000Y-58000000D03*
X120500000Y-73500000D03*
X100000000Y-54000000D03*
X126500000Y-56000000D03*
X119500000Y-72500000D03*
X129500000Y-54000000D03*
X96000000Y-59000000D03*
X102000000Y-55000000D03*
X115000000Y-56000000D03*
X129500000Y-56000000D03*
X128500000Y-56000000D03*
X130500000Y-58000000D03*
X107000000Y-54000000D03*
X97000000Y-60000000D03*
X118500000Y-74500000D03*
X119500000Y-75500000D03*
X105000000Y-54000000D03*
X103000000Y-54000000D03*
X128500000Y-54000000D03*
X119500000Y-76500000D03*
X96000000Y-62000000D03*
X118500000Y-75500000D03*
X131500000Y-56000000D03*
X127500000Y-56000000D03*
X131500000Y-57000000D03*
X99000000Y-54000000D03*
X126500000Y-54000000D03*
X132500000Y-62000000D03*
X131500000Y-62000000D03*
X111000000Y-54000000D03*
X129500000Y-58000000D03*
X112000000Y-56000000D03*
X114000000Y-54000000D03*
X104000000Y-55000000D03*
X127500000Y-55000000D03*
X116000000Y-55000000D03*
X119500000Y-70500000D03*
X110000000Y-54000000D03*
X131500000Y-61000000D03*
X115000000Y-54000000D03*
X97000000Y-54000000D03*
X120500000Y-71500000D03*
X119500000Y-73500000D03*
X131500000Y-55000000D03*
X110363000Y-61976000D03*
X97000000Y-59000000D03*
X120500000Y-74500000D03*
X117000000Y-54000000D03*
X111000000Y-56000000D03*
X96000000Y-60000000D03*
X104000000Y-54000000D03*
X117000000Y-56000000D03*
%TO.N,/CC2*%
X108458000Y-57658000D03*
X114554000Y-63754000D03*
%TO.N,/CC1*%
X107442000Y-54864000D03*
X116991000Y-64000000D03*
%TO.N,/INT_N*%
X115698397Y-68959603D03*
X117602000Y-69342000D03*
%TO.N,/SCL*%
X116332000Y-81534000D03*
X114383246Y-81620337D03*
%TO.N,Net-(U3-FLTB)*%
X123952000Y-57912000D03*
X123952000Y-63500000D03*
%TD*%
D40*
%TO.N,/IO5*%
X103667000Y-78592000D02*
X103575000Y-78500000D01*
X107442000Y-78592000D02*
X103667000Y-78592000D01*
D41*
%TO.N,VCONN*%
X119126000Y-66106000D02*
X119126000Y-65548000D01*
X122276000Y-66106000D02*
X122326000Y-66156000D01*
X117281364Y-63299000D02*
X116700636Y-63299000D01*
X116139000Y-64634000D02*
X116290000Y-64785000D01*
X117692000Y-64114000D02*
X117692000Y-63709636D01*
X116139000Y-64361000D02*
X116139000Y-64634000D01*
X116290000Y-64210000D02*
X116139000Y-64361000D01*
X119126000Y-66106000D02*
X122276000Y-66106000D01*
X119126000Y-65548000D02*
X117692000Y-64114000D01*
X117692000Y-63709636D02*
X117281364Y-63299000D01*
X116700636Y-63299000D02*
X116290000Y-63709636D01*
X116290000Y-63709636D02*
X116290000Y-64210000D01*
D42*
X116316000Y-64785000D02*
X115816000Y-64785000D01*
D43*
%TO.N,/CC2*%
X104865198Y-58674000D02*
X107442000Y-58674000D01*
X101378000Y-60698000D02*
X102841198Y-60698000D01*
X114803500Y-64266500D02*
X114803500Y-65421500D01*
X115190000Y-64390000D02*
X115190000Y-64785000D01*
X114554000Y-63754000D02*
X114935000Y-64135000D01*
X107442000Y-58674000D02*
X108458000Y-57658000D01*
X102841198Y-60698000D02*
X104865198Y-58674000D01*
X114935000Y-64135000D02*
X115190000Y-64390000D01*
X114935000Y-64135000D02*
X114803500Y-64266500D01*
%TO.N,/CC1*%
X116991000Y-64785000D02*
X117328500Y-65122500D01*
X106018412Y-56388000D02*
X107442000Y-56388000D01*
X102708412Y-59698000D02*
X106018412Y-56388000D01*
X116991000Y-64000000D02*
X116991000Y-64785000D01*
X117328500Y-65122500D02*
X117328500Y-65421500D01*
X107442000Y-56388000D02*
X107442000Y-54864000D01*
X101378000Y-59698000D02*
X102708412Y-59698000D01*
D40*
%TO.N,VCC*%
X113968232Y-83449000D02*
X115062000Y-82355232D01*
X127508000Y-82275000D02*
X127529000Y-82296000D01*
X129921000Y-80137000D02*
X130810000Y-79248000D01*
X107749464Y-61365000D02*
X107368000Y-61365000D01*
X107442000Y-81465102D02*
X109425898Y-83449000D01*
X116895768Y-83681000D02*
X115316000Y-82101232D01*
X107442000Y-80412000D02*
X107442000Y-81465102D01*
X115062000Y-82355232D02*
X115316000Y-82101232D01*
X115316000Y-69850000D02*
X114554000Y-69088000D01*
X110236000Y-80518000D02*
X107548000Y-80518000D01*
X109425898Y-83449000D02*
X113968232Y-83449000D01*
X126844000Y-83681000D02*
X116895768Y-83681000D01*
X127529000Y-82996000D02*
X126844000Y-83681000D01*
X127529000Y-82296000D02*
X127529000Y-82996000D01*
X115316000Y-82101232D02*
X115316000Y-69850000D01*
X111704000Y-63754000D02*
X110138464Y-63754000D01*
X127508000Y-80137000D02*
X129921000Y-80137000D01*
X127508000Y-80137000D02*
X127508000Y-82275000D01*
X114554000Y-69088000D02*
X114300000Y-69088000D01*
X110138464Y-63754000D02*
X107749464Y-61365000D01*
X107548000Y-80518000D02*
X107442000Y-80412000D01*
D41*
%TO.N,/IO1*%
X106146000Y-75946000D02*
X105304000Y-75104000D01*
X113030000Y-75946000D02*
X106146000Y-75946000D01*
D40*
%TO.N,/IO5*%
X113030000Y-78486000D02*
X107548000Y-78486000D01*
X107548000Y-78486000D02*
X107442000Y-78592000D01*
D42*
%TO.N,/VBUS*%
X114803500Y-66047500D02*
X114450202Y-66047500D01*
X113284000Y-64881298D02*
X113284000Y-60960000D01*
X114450202Y-66047500D02*
X113284000Y-64881298D01*
%TO.N,/INT_N*%
X115816000Y-68842000D02*
X115698397Y-68959603D01*
D40*
X124799000Y-81026000D02*
X122330000Y-81026000D01*
D41*
X121791612Y-81026000D02*
X122330000Y-81026000D01*
X117602000Y-76836388D02*
X121791612Y-81026000D01*
X117602000Y-69342000D02*
X117602000Y-76836388D01*
D42*
X115816000Y-67310000D02*
X115816000Y-68842000D01*
D40*
X125688000Y-80137000D02*
X124799000Y-81026000D01*
D41*
%TO.N,/SDA*%
X120396000Y-82296000D02*
X116842000Y-78742000D01*
D40*
X125709000Y-82296000D02*
X122330000Y-82296000D01*
D41*
X122330000Y-82296000D02*
X120396000Y-82296000D01*
X116842000Y-78742000D02*
X116842000Y-67310000D01*
D40*
%TO.N,/SCL*%
X110278000Y-82296000D02*
X110236000Y-82338000D01*
X113030000Y-82296000D02*
X110278000Y-82296000D01*
D41*
X113707583Y-82296000D02*
X113030000Y-82296000D01*
D42*
X116316000Y-67310000D02*
X116316000Y-81518000D01*
X116316000Y-81518000D02*
X116332000Y-81534000D01*
D41*
X114383246Y-81620337D02*
X113707583Y-82296000D01*
%TO.N,/IO4*%
X109836000Y-72136000D02*
X105304000Y-67604000D01*
X113030000Y-72136000D02*
X109836000Y-72136000D01*
%TO.N,/IO3*%
X108606000Y-73406000D02*
X105304000Y-70104000D01*
X113030000Y-73406000D02*
X108606000Y-73406000D01*
%TO.N,/IO2*%
X113030000Y-74676000D02*
X107376000Y-74676000D01*
X107376000Y-74676000D02*
X105304000Y-72604000D01*
%TO.N,Net-(D5-A)*%
X103484000Y-67604000D02*
X99021500Y-67604000D01*
X99021500Y-67604000D02*
X98981500Y-67644000D01*
%TO.N,Net-(D6-A)*%
X99021500Y-70104000D02*
X98981500Y-70144000D01*
X103484000Y-70104000D02*
X99021500Y-70104000D01*
%TO.N,Net-(D7-A)*%
X103484000Y-72604000D02*
X99021500Y-72604000D01*
X99021500Y-72604000D02*
X98981500Y-72644000D01*
%TO.N,Net-(D8-A)*%
X103484000Y-75104000D02*
X99021500Y-75104000D01*
X99021500Y-75104000D02*
X98981500Y-75144000D01*
D40*
%TO.N,/FLTB*%
X125688000Y-77978000D02*
X123910000Y-79756000D01*
X123910000Y-79756000D02*
X122330000Y-79756000D01*
D41*
%TO.N,Net-(U3-FLTB)*%
X126598000Y-66146000D02*
X123952000Y-63500000D01*
X127508000Y-77978000D02*
X126598000Y-77068000D01*
X126598000Y-77068000D02*
X126598000Y-66146000D01*
X122500100Y-57912000D02*
X121682500Y-58729600D01*
X123952000Y-57912000D02*
X122500100Y-57912000D01*
%TO.N,/SS*%
X122880260Y-56216000D02*
X123872000Y-56216000D01*
X121082499Y-58729600D02*
X121082499Y-58013761D01*
X121082499Y-58013761D02*
X122880260Y-56216000D01*
D42*
%TO.N,/EN*%
X121082499Y-61214000D02*
X121082499Y-62475802D01*
X121082499Y-62475802D02*
X120538501Y-63019800D01*
D41*
%TO.N,/ILIM*%
X120482500Y-58729600D02*
X120482500Y-56975500D01*
X120482500Y-56975500D02*
X121282000Y-56176000D01*
%TO.N,/VLIM*%
X118872000Y-56176000D02*
X119882501Y-57186501D01*
X119882501Y-57186501D02*
X119882501Y-58729600D01*
%TO.N,Net-(J3-Pin_3)*%
X130810000Y-76708000D02*
X128397000Y-76708000D01*
X128397000Y-76708000D02*
X127508000Y-75819000D01*
D40*
%TO.N,/PA0*%
X122457000Y-75819000D02*
X122330000Y-75946000D01*
X125688000Y-75819000D02*
X122457000Y-75819000D01*
%TD*%
%TA.AperFunction,Conductor*%
%TO.N,VCC*%
G36*
X112719039Y-62757685D02*
G01*
X112764794Y-62810489D01*
X112776000Y-62862000D01*
X112776000Y-62992000D01*
X112776000Y-66294000D01*
X114149658Y-66294000D01*
X114214809Y-66312495D01*
X114227112Y-66320092D01*
X114234990Y-66327970D01*
X114308395Y-66370350D01*
X114314914Y-66374114D01*
X114396967Y-66396100D01*
X114417270Y-66403489D01*
X114446240Y-66416999D01*
X114491821Y-66423000D01*
X114966500Y-66422999D01*
X115033539Y-66442683D01*
X115079294Y-66495487D01*
X115090500Y-66546999D01*
X115090500Y-66797178D01*
X115105032Y-66870235D01*
X115105033Y-66870239D01*
X115123405Y-66897735D01*
X115160399Y-66953101D01*
X115243260Y-67008466D01*
X115243264Y-67008467D01*
X115316321Y-67022999D01*
X115316324Y-67023000D01*
X115316326Y-67023000D01*
X115316500Y-67023000D01*
X115316589Y-67023026D01*
X115322386Y-67023597D01*
X115322277Y-67024696D01*
X115383539Y-67042685D01*
X115429294Y-67095489D01*
X115440500Y-67147000D01*
X115440500Y-67621680D01*
X115446500Y-67667256D01*
X115446502Y-67667263D01*
X115453881Y-67683086D01*
X115456320Y-67694090D01*
X115460477Y-67700558D01*
X115465500Y-67735493D01*
X115465500Y-67915999D01*
X115445815Y-67983038D01*
X115440700Y-67990399D01*
X114808000Y-68834000D01*
X114808000Y-71504000D01*
X114788315Y-71571039D01*
X114735511Y-71616794D01*
X114684000Y-71628000D01*
X114114332Y-71628000D01*
X114058037Y-71614485D01*
X114048023Y-71609382D01*
X114030301Y-71600352D01*
X113936524Y-71585500D01*
X112277054Y-71585500D01*
X112210015Y-71565815D01*
X112189267Y-71549076D01*
X110788137Y-70144569D01*
X110754726Y-70083205D01*
X110752337Y-70046883D01*
X110810000Y-69341996D01*
X110810000Y-65024000D01*
X110490000Y-64770000D01*
X110489999Y-64770000D01*
X108582000Y-64770000D01*
X108514961Y-64750315D01*
X108469206Y-64697511D01*
X108458000Y-64646000D01*
X108458000Y-62862000D01*
X108477685Y-62794961D01*
X108530489Y-62749206D01*
X108582000Y-62738000D01*
X112652000Y-62738000D01*
X112719039Y-62757685D01*
G37*
%TD.AperFunction*%
%TD*%
%TA.AperFunction,Conductor*%
%TO.N,/VOUT*%
G36*
X128603177Y-58693685D02*
G01*
X128623819Y-58710319D01*
X128914206Y-59000706D01*
X128947691Y-59062029D01*
X128949464Y-59072199D01*
X128949500Y-59072472D01*
X128949500Y-59072475D01*
X128987016Y-59212485D01*
X128987017Y-59212488D01*
X129059488Y-59338011D01*
X129059490Y-59338013D01*
X129059491Y-59338015D01*
X129161985Y-59440509D01*
X129161986Y-59440510D01*
X129161988Y-59440511D01*
X129287511Y-59512982D01*
X129287512Y-59512982D01*
X129287515Y-59512984D01*
X129427525Y-59550500D01*
X129427533Y-59550500D01*
X129427788Y-59550534D01*
X129427993Y-59550624D01*
X129435376Y-59552603D01*
X129435067Y-59553753D01*
X129491686Y-59578795D01*
X129499293Y-59585793D01*
X130519681Y-60606181D01*
X130553166Y-60667504D01*
X130556000Y-60693862D01*
X130556000Y-66750638D01*
X130536315Y-66817677D01*
X130519681Y-66838319D01*
X129830319Y-67527681D01*
X129768996Y-67561166D01*
X129742638Y-67564000D01*
X128130862Y-67564000D01*
X128063823Y-67544315D01*
X128043181Y-67527681D01*
X127544319Y-67028819D01*
X127510834Y-66967496D01*
X127508000Y-66941138D01*
X127508000Y-62124425D01*
X127527685Y-62057386D01*
X127557687Y-62025160D01*
X127578546Y-62009546D01*
X127664796Y-61894331D01*
X127715091Y-61759483D01*
X127721500Y-61699873D01*
X127721499Y-61104128D01*
X127715091Y-61044517D01*
X127664796Y-60909669D01*
X127664795Y-60909668D01*
X127664793Y-60909664D01*
X127578548Y-60794457D01*
X127578545Y-60794453D01*
X127573451Y-60790640D01*
X127556630Y-60778048D01*
X127516381Y-60726234D01*
X127508000Y-60706001D01*
X127508000Y-60706000D01*
X127000000Y-60198000D01*
X123495362Y-60198000D01*
X123428323Y-60178315D01*
X123407681Y-60161681D01*
X122936000Y-59690000D01*
X122633908Y-59690000D01*
X122566869Y-59670315D01*
X122565019Y-59669103D01*
X122531240Y-59646533D01*
X122458176Y-59632000D01*
X122458174Y-59632000D01*
X121282000Y-59632000D01*
X121273314Y-59629449D01*
X121264353Y-59630738D01*
X121240312Y-59619759D01*
X121214961Y-59612315D01*
X121209033Y-59605474D01*
X121200797Y-59601713D01*
X121186507Y-59579478D01*
X121169206Y-59559511D01*
X121166918Y-59548996D01*
X121163023Y-59542935D01*
X121158000Y-59508000D01*
X121158000Y-59450295D01*
X121177685Y-59383256D01*
X121230489Y-59337501D01*
X121257803Y-59328679D01*
X121307639Y-59318766D01*
X121313605Y-59314779D01*
X121380280Y-59293899D01*
X121447661Y-59312381D01*
X121451388Y-59314777D01*
X121457358Y-59318766D01*
X121530421Y-59333299D01*
X121530424Y-59333300D01*
X121530426Y-59333300D01*
X121834576Y-59333300D01*
X121834577Y-59333299D01*
X121907640Y-59318766D01*
X121990501Y-59263401D01*
X122045866Y-59180540D01*
X122060400Y-59107474D01*
X122060400Y-59052000D01*
X122080085Y-58984961D01*
X122132889Y-58939206D01*
X122184400Y-58928000D01*
X122428000Y-58928000D01*
X122645681Y-58710319D01*
X122707004Y-58676834D01*
X122733362Y-58674000D01*
X128536138Y-58674000D01*
X128603177Y-58693685D01*
G37*
%TD.AperFunction*%
%TD*%
%TA.AperFunction,Conductor*%
%TO.N,GND*%
G36*
X132949788Y-53351454D02*
G01*
X133030570Y-53405430D01*
X133084546Y-53486212D01*
X133103500Y-53581500D01*
X133103500Y-83832500D01*
X133084546Y-83927788D01*
X133030570Y-84008570D01*
X132949788Y-84062546D01*
X132854500Y-84081500D01*
X127964586Y-84081500D01*
X127869298Y-84062546D01*
X127788516Y-84008570D01*
X127734540Y-83927788D01*
X127715586Y-83832500D01*
X127734540Y-83737212D01*
X127788516Y-83656430D01*
X128034276Y-83410670D01*
X128105465Y-83304127D01*
X128154501Y-83185744D01*
X128156494Y-83175724D01*
X128179500Y-83060069D01*
X128179500Y-83031394D01*
X128182651Y-83011776D01*
X128192778Y-82984506D01*
X128197722Y-82959651D01*
X128197710Y-82959647D01*
X128197738Y-82959571D01*
X128198454Y-82955973D01*
X128201294Y-82950035D01*
X128203931Y-82942963D01*
X128203934Y-82942960D01*
X128254107Y-82808441D01*
X128260500Y-82748975D01*
X128260499Y-81751026D01*
X128254107Y-81691559D01*
X128203934Y-81557040D01*
X128203932Y-81557038D01*
X128203932Y-81557036D01*
X128195400Y-81541411D01*
X128197447Y-81540293D01*
X128194734Y-81534623D01*
X128177454Y-81508760D01*
X128173960Y-81491194D01*
X128166232Y-81475040D01*
X128158500Y-81413472D01*
X128158500Y-81036500D01*
X128177454Y-80941212D01*
X128231430Y-80860430D01*
X128312212Y-80806454D01*
X128407500Y-80787500D01*
X129985070Y-80787500D01*
X129985070Y-80787499D01*
X130110744Y-80762501D01*
X130229127Y-80713465D01*
X130259815Y-80692960D01*
X130335669Y-80642277D01*
X130560928Y-80417016D01*
X130565554Y-80412833D01*
X130601997Y-80391039D01*
X130637296Y-80367454D01*
X130643504Y-80366218D01*
X130648938Y-80362970D01*
X130690946Y-80356782D01*
X130732584Y-80348500D01*
X130896607Y-80348500D01*
X130896611Y-80348500D01*
X131067701Y-80321402D01*
X131232445Y-80267873D01*
X131386788Y-80189232D01*
X131526928Y-80087414D01*
X131649414Y-79964928D01*
X131751232Y-79824788D01*
X131829873Y-79670445D01*
X131883402Y-79505701D01*
X131910500Y-79334611D01*
X131910500Y-79161389D01*
X131883402Y-78990299D01*
X131829873Y-78825555D01*
X131751232Y-78671212D01*
X131751230Y-78671209D01*
X131751229Y-78671207D01*
X131649418Y-78531077D01*
X131649416Y-78531075D01*
X131649414Y-78531072D01*
X131526928Y-78408586D01*
X131526924Y-78408583D01*
X131526922Y-78408581D01*
X131386792Y-78306770D01*
X131232443Y-78228126D01*
X131232434Y-78228122D01*
X131191470Y-78214813D01*
X131106702Y-78167342D01*
X131046554Y-78091045D01*
X131020182Y-77997538D01*
X131031601Y-77901056D01*
X131079072Y-77816288D01*
X131155369Y-77756140D01*
X131191470Y-77741187D01*
X131232434Y-77727877D01*
X131232437Y-77727875D01*
X131232445Y-77727873D01*
X131386788Y-77649232D01*
X131526928Y-77547414D01*
X131649414Y-77424928D01*
X131751232Y-77284788D01*
X131829873Y-77130445D01*
X131883402Y-76965701D01*
X131910500Y-76794611D01*
X131910500Y-76621389D01*
X131883402Y-76450299D01*
X131829873Y-76285555D01*
X131751232Y-76131212D01*
X131751230Y-76131209D01*
X131751229Y-76131207D01*
X131649418Y-75991077D01*
X131649416Y-75991075D01*
X131649414Y-75991072D01*
X131526928Y-75868586D01*
X131526924Y-75868583D01*
X131526922Y-75868581D01*
X131386792Y-75766770D01*
X131232443Y-75688126D01*
X131232437Y-75688124D01*
X131138195Y-75657503D01*
X131067701Y-75634598D01*
X131067699Y-75634597D01*
X131067697Y-75634597D01*
X130896621Y-75607501D01*
X130896614Y-75607500D01*
X130896611Y-75607500D01*
X130723389Y-75607500D01*
X130723386Y-75607500D01*
X130723378Y-75607501D01*
X130552302Y-75634597D01*
X130387562Y-75688124D01*
X130387556Y-75688126D01*
X130233207Y-75766770D01*
X130093077Y-75868581D01*
X129970581Y-75991077D01*
X129868765Y-76131215D01*
X129864236Y-76138606D01*
X129798286Y-76209948D01*
X129710054Y-76250621D01*
X129651931Y-76257500D01*
X128686743Y-76257500D01*
X128591455Y-76238546D01*
X128510675Y-76184571D01*
X128341428Y-76015325D01*
X128287453Y-75934544D01*
X128268499Y-75839256D01*
X128268499Y-75320034D01*
X128268499Y-75320026D01*
X128262107Y-75260559D01*
X128211934Y-75126040D01*
X128125895Y-75011105D01*
X128010960Y-74925066D01*
X127876441Y-74874893D01*
X127864547Y-74873614D01*
X127816979Y-74868500D01*
X127297500Y-74868500D01*
X127202212Y-74849546D01*
X127121430Y-74795570D01*
X127067454Y-74714788D01*
X127048500Y-74619500D01*
X127048500Y-67495471D01*
X127067454Y-67400183D01*
X127121430Y-67319401D01*
X127202212Y-67265425D01*
X127297500Y-67246471D01*
X127392788Y-67265425D01*
X127473566Y-67319398D01*
X127862515Y-67708347D01*
X127882865Y-67726626D01*
X127903507Y-67743260D01*
X127903509Y-67743261D01*
X127991840Y-67789466D01*
X128058872Y-67809149D01*
X128058875Y-67809149D01*
X128058877Y-67809150D01*
X128130862Y-67819500D01*
X128130866Y-67819500D01*
X129742647Y-67819500D01*
X129756295Y-67818768D01*
X129769952Y-67818036D01*
X129796310Y-67815202D01*
X129856477Y-67796361D01*
X129891439Y-67785415D01*
X129891440Y-67785413D01*
X129891444Y-67785413D01*
X129952767Y-67751928D01*
X130010985Y-67708347D01*
X130700347Y-67018985D01*
X130718626Y-66998635D01*
X130735260Y-66977993D01*
X130781465Y-66889662D01*
X130792318Y-66852701D01*
X130801149Y-66822627D01*
X130801149Y-66822626D01*
X130801148Y-66822626D01*
X130801150Y-66822623D01*
X130811500Y-66750638D01*
X130811500Y-60693862D01*
X130811500Y-60693852D01*
X130810036Y-60666556D01*
X130810036Y-60666548D01*
X130807202Y-60640190D01*
X130777414Y-60545060D01*
X130777415Y-60545060D01*
X130773216Y-60537370D01*
X130743928Y-60483733D01*
X130700347Y-60425515D01*
X129679959Y-59405127D01*
X129672275Y-59397757D01*
X129664668Y-59390759D01*
X129595034Y-59345130D01*
X129563606Y-59331230D01*
X129556949Y-59327988D01*
X129542050Y-59316673D01*
X129531874Y-59313947D01*
X129495605Y-59301154D01*
X129493851Y-59300378D01*
X129466645Y-59296464D01*
X129417750Y-59283358D01*
X129357721Y-59258490D01*
X129347259Y-59252450D01*
X129333169Y-59241638D01*
X129330618Y-59240380D01*
X129328743Y-59238242D01*
X129295675Y-59212867D01*
X129287107Y-59204298D01*
X129247550Y-59152745D01*
X129241499Y-59142265D01*
X129216621Y-59082205D01*
X129183333Y-58957975D01*
X129177499Y-58948153D01*
X129176821Y-58948524D01*
X129167525Y-58931500D01*
X129138453Y-58878258D01*
X129094872Y-58820040D01*
X128804485Y-58529653D01*
X128784135Y-58511374D01*
X128763493Y-58494740D01*
X128763491Y-58494739D01*
X128763490Y-58494738D01*
X128675159Y-58448533D01*
X128608127Y-58428850D01*
X128572130Y-58423675D01*
X128536138Y-58418500D01*
X128536134Y-58418500D01*
X124710706Y-58418500D01*
X124615418Y-58399546D01*
X124534636Y-58345570D01*
X124480660Y-58264788D01*
X124461706Y-58169500D01*
X124470189Y-58105058D01*
X124502500Y-57984475D01*
X124502500Y-57839525D01*
X124498352Y-57824046D01*
X124483241Y-57767650D01*
X124464984Y-57699515D01*
X124392509Y-57573985D01*
X124290015Y-57471491D01*
X124290012Y-57471489D01*
X124290011Y-57471488D01*
X124220124Y-57431139D01*
X124147079Y-57367080D01*
X124104108Y-57279945D01*
X124097754Y-57182998D01*
X124128984Y-57090999D01*
X124193043Y-57017954D01*
X124280178Y-56974983D01*
X124344623Y-56966499D01*
X124394872Y-56966499D01*
X124454483Y-56960091D01*
X124589331Y-56909796D01*
X124704546Y-56823546D01*
X124790796Y-56708331D01*
X124841091Y-56573483D01*
X124847500Y-56513873D01*
X124847499Y-55918128D01*
X124841091Y-55858517D01*
X124790796Y-55723669D01*
X124704546Y-55608454D01*
X124589331Y-55522204D01*
X124507444Y-55491662D01*
X124454481Y-55471908D01*
X124394873Y-55465500D01*
X123349134Y-55465500D01*
X123349130Y-55465500D01*
X123349128Y-55465501D01*
X123336314Y-55466878D01*
X123289519Y-55471908D01*
X123289515Y-55471909D01*
X123154670Y-55522203D01*
X123039455Y-55608453D01*
X123039450Y-55608458D01*
X122995774Y-55666801D01*
X122968298Y-55691480D01*
X122943294Y-55718663D01*
X122933805Y-55722462D01*
X122923495Y-55731723D01*
X122855164Y-55759554D01*
X122830661Y-55765500D01*
X122820951Y-55765500D01*
X122730586Y-55789713D01*
X122706373Y-55796201D01*
X122706371Y-55796201D01*
X122706371Y-55796202D01*
X122603643Y-55855512D01*
X122591206Y-55865056D01*
X122504069Y-55908025D01*
X122407122Y-55914378D01*
X122315124Y-55883147D01*
X122242080Y-55819088D01*
X122206327Y-55754526D01*
X122194367Y-55722462D01*
X122175934Y-55673040D01*
X122089895Y-55558105D01*
X121974960Y-55472066D01*
X121840441Y-55421893D01*
X121780975Y-55415500D01*
X120783034Y-55415500D01*
X120783024Y-55415501D01*
X120723561Y-55421892D01*
X120589040Y-55472066D01*
X120474107Y-55558103D01*
X120474103Y-55558107D01*
X120436415Y-55608453D01*
X120389843Y-55670667D01*
X120388065Y-55673042D01*
X120337894Y-55807555D01*
X120337893Y-55807559D01*
X120331500Y-55867020D01*
X120331500Y-56386256D01*
X120322277Y-56432621D01*
X120312555Y-56481523D01*
X120312548Y-56481533D01*
X120312546Y-56481544D01*
X120260397Y-56559599D01*
X120258586Y-56562310D01*
X120253084Y-56567812D01*
X120172309Y-56621794D01*
X120077023Y-56640757D01*
X119981733Y-56621812D01*
X119900946Y-56567843D01*
X119895429Y-56562326D01*
X119841453Y-56481544D01*
X119822499Y-56386260D01*
X119822499Y-55867026D01*
X119816107Y-55807559D01*
X119765934Y-55673040D01*
X119679895Y-55558105D01*
X119564960Y-55472066D01*
X119430441Y-55421893D01*
X119370975Y-55415500D01*
X118373034Y-55415500D01*
X118373024Y-55415501D01*
X118313561Y-55421892D01*
X118179040Y-55472066D01*
X118064107Y-55558103D01*
X118064103Y-55558107D01*
X118026415Y-55608453D01*
X117979843Y-55670667D01*
X117978065Y-55673042D01*
X117927894Y-55807555D01*
X117927893Y-55807559D01*
X117921500Y-55867020D01*
X117921500Y-56484965D01*
X117921501Y-56484975D01*
X117927892Y-56544438D01*
X117927892Y-56544440D01*
X117927893Y-56544441D01*
X117978066Y-56678960D01*
X118064105Y-56793895D01*
X118179040Y-56879934D01*
X118313559Y-56930107D01*
X118373025Y-56936500D01*
X118892256Y-56936499D01*
X118987544Y-56955453D01*
X119068326Y-57009429D01*
X119359071Y-57300174D01*
X119413047Y-57380956D01*
X119432001Y-57476244D01*
X119432001Y-58783052D01*
X119413047Y-58878340D01*
X119359071Y-58959122D01*
X119278289Y-59013098D01*
X119183001Y-59032052D01*
X118587239Y-59032052D01*
X118491951Y-59013098D01*
X118411169Y-58959122D01*
X118357193Y-58878340D01*
X118348019Y-58849920D01*
X118347637Y-58850034D01*
X118345572Y-58843108D01*
X118325439Y-58787565D01*
X118325431Y-58787547D01*
X118118804Y-58374293D01*
X118118798Y-58374282D01*
X118110778Y-58362500D01*
X118080387Y-58317851D01*
X118080385Y-58317848D01*
X118036521Y-58268995D01*
X118036512Y-58268985D01*
X118006724Y-58240744D01*
X118006721Y-58240741D01*
X117918395Y-58194538D01*
X117918390Y-58194536D01*
X117918388Y-58194535D01*
X117918385Y-58194534D01*
X117918377Y-58194531D01*
X117851353Y-58174850D01*
X117814139Y-58169500D01*
X117779364Y-58164500D01*
X110216499Y-58164500D01*
X110194427Y-58166872D01*
X110162189Y-58170338D01*
X110110678Y-58181544D01*
X110084298Y-58188781D01*
X109997674Y-58238109D01*
X109997667Y-58238114D01*
X109944870Y-58283863D01*
X109913240Y-58316642D01*
X109867033Y-58404978D01*
X109847348Y-58472017D01*
X109847347Y-58472020D01*
X109837000Y-58543984D01*
X109836999Y-58544004D01*
X109836999Y-59144999D01*
X109818045Y-59240287D01*
X109764069Y-59321069D01*
X109683287Y-59375045D01*
X109587999Y-59393999D01*
X109093331Y-59393999D01*
X108998043Y-59375045D01*
X108944110Y-59344333D01*
X108932698Y-59335790D01*
X108896678Y-59302849D01*
X108892937Y-59298684D01*
X108860711Y-59268682D01*
X108846933Y-59256743D01*
X108758598Y-59210535D01*
X108758593Y-59210533D01*
X108758587Y-59210531D01*
X108691563Y-59190850D01*
X108655566Y-59185675D01*
X108619574Y-59180500D01*
X108619570Y-59180500D01*
X108441499Y-59180500D01*
X108346211Y-59161546D01*
X108265429Y-59107570D01*
X108211453Y-59026788D01*
X108192499Y-58931500D01*
X108192499Y-58805163D01*
X108211453Y-58709875D01*
X108265424Y-58629099D01*
X108898510Y-57996015D01*
X108970984Y-57870485D01*
X108982448Y-57827701D01*
X109008500Y-57730477D01*
X109008500Y-57585522D01*
X108970986Y-57445521D01*
X108970984Y-57445516D01*
X108970984Y-57445515D01*
X108898510Y-57319985D01*
X108796015Y-57217490D01*
X108796012Y-57217488D01*
X108670490Y-57145018D01*
X108670483Y-57145015D01*
X108581721Y-57121231D01*
X108530475Y-57107500D01*
X108441500Y-57107500D01*
X108346212Y-57088546D01*
X108265430Y-57034570D01*
X108211454Y-56953788D01*
X108192500Y-56858500D01*
X108192499Y-55865134D01*
X108192499Y-55865128D01*
X108186091Y-55805517D01*
X108135796Y-55670669D01*
X108132900Y-55666801D01*
X108042166Y-55545595D01*
X108000235Y-55457955D01*
X107992500Y-55396374D01*
X107992500Y-54791524D01*
X107979994Y-54744855D01*
X107954984Y-54651515D01*
X107882509Y-54525985D01*
X107780015Y-54423491D01*
X107780012Y-54423489D01*
X107780011Y-54423488D01*
X107654487Y-54351017D01*
X107654482Y-54351015D01*
X107514475Y-54313500D01*
X107369525Y-54313500D01*
X107229517Y-54351015D01*
X107229512Y-54351017D01*
X107103988Y-54423488D01*
X107001488Y-54525988D01*
X106929017Y-54651512D01*
X106929015Y-54651517D01*
X106891500Y-54791524D01*
X106891500Y-55396374D01*
X106886626Y-55420875D01*
X106886534Y-55445854D01*
X106877766Y-55465417D01*
X106872546Y-55491662D01*
X106849023Y-55535475D01*
X106836697Y-55553774D01*
X106834454Y-55555454D01*
X106748204Y-55670669D01*
X106736091Y-55703144D01*
X106719619Y-55727601D01*
X106705669Y-55741448D01*
X106695340Y-55758170D01*
X106671515Y-55775350D01*
X106650667Y-55796046D01*
X106632480Y-55803500D01*
X106616538Y-55814997D01*
X106587949Y-55821752D01*
X106560771Y-55832893D01*
X106541116Y-55832820D01*
X106521987Y-55837341D01*
X106513096Y-55837500D01*
X105945937Y-55837500D01*
X105835745Y-55867026D01*
X105835742Y-55867027D01*
X105805930Y-55875014D01*
X105805928Y-55875015D01*
X105680399Y-55947488D01*
X103042570Y-58585317D01*
X102961788Y-58639293D01*
X102866500Y-58658247D01*
X102771212Y-58639293D01*
X102690430Y-58585317D01*
X102636454Y-58504535D01*
X102617500Y-58409247D01*
X102617500Y-58036003D01*
X102612556Y-57990009D01*
X102611661Y-57981687D01*
X102600455Y-57930176D01*
X102593219Y-57903802D01*
X102543888Y-57817172D01*
X102498133Y-57764368D01*
X102465359Y-57732743D01*
X102377024Y-57686535D01*
X102377018Y-57686533D01*
X102377013Y-57686531D01*
X102309989Y-57666850D01*
X102273992Y-57661675D01*
X102238000Y-57656500D01*
X102205664Y-57656500D01*
X102205647Y-57656500D01*
X102169299Y-57659101D01*
X102169293Y-57659101D01*
X102134391Y-57664120D01*
X102125379Y-57665580D01*
X102118690Y-57668211D01*
X102115315Y-57668832D01*
X102096670Y-57672988D01*
X102055090Y-57693229D01*
X102051572Y-57694612D01*
X102046015Y-57696799D01*
X102046011Y-57696799D01*
X102032609Y-57702072D01*
X102032608Y-57702073D01*
X102031501Y-57702783D01*
X102031502Y-57702784D01*
X102019115Y-57710743D01*
X102007036Y-57716624D01*
X101990910Y-57728866D01*
X101982700Y-57734142D01*
X101982702Y-57734142D01*
X101964602Y-57745772D01*
X101960143Y-57750477D01*
X101923827Y-57778683D01*
X101923102Y-57777749D01*
X101858866Y-57822330D01*
X101763927Y-57842961D01*
X101759535Y-57843000D01*
X100995769Y-57843000D01*
X100966066Y-57837091D01*
X100935814Y-57835674D01*
X100918858Y-57827701D01*
X100900481Y-57824046D01*
X100847893Y-57794334D01*
X100843421Y-57791033D01*
X100821007Y-57772365D01*
X100797657Y-57750477D01*
X100792112Y-57745279D01*
X100777695Y-57732743D01*
X100689360Y-57686535D01*
X100689354Y-57686533D01*
X100689349Y-57686531D01*
X100622325Y-57666850D01*
X100586328Y-57661675D01*
X100550336Y-57656500D01*
X98603362Y-57656500D01*
X98603353Y-57656500D01*
X98576056Y-57657963D01*
X98569932Y-57658621D01*
X98549690Y-57660798D01*
X98549687Y-57660798D01*
X98549685Y-57660799D01*
X98454560Y-57690584D01*
X98393233Y-57724072D01*
X98335018Y-57767650D01*
X98153649Y-57949019D01*
X98135375Y-57969364D01*
X98118738Y-57990009D01*
X98072533Y-58078340D01*
X98052850Y-58145372D01*
X98052850Y-58145373D01*
X98049261Y-58170338D01*
X98042500Y-58217362D01*
X98042500Y-62614000D01*
X98042668Y-62615559D01*
X98048338Y-62668309D01*
X98053161Y-62690479D01*
X98055042Y-62699127D01*
X98059548Y-62719837D01*
X98059551Y-62719849D01*
X98066779Y-62746193D01*
X98066780Y-62746195D01*
X98066781Y-62746198D01*
X98116112Y-62832828D01*
X98161867Y-62885632D01*
X98194641Y-62917257D01*
X98282976Y-62963465D01*
X98282985Y-62963467D01*
X98282986Y-62963468D01*
X98350010Y-62983149D01*
X98350013Y-62983149D01*
X98350015Y-62983150D01*
X98422000Y-62993500D01*
X98422004Y-62993500D01*
X100278647Y-62993500D01*
X100292295Y-62992768D01*
X100305952Y-62992036D01*
X100332310Y-62989202D01*
X100427444Y-62959413D01*
X100488767Y-62925928D01*
X100546985Y-62882346D01*
X100730213Y-62699115D01*
X100747556Y-62683335D01*
X100751539Y-62680039D01*
X100800197Y-62643098D01*
X100817944Y-62625106D01*
X100827647Y-62617080D01*
X100830465Y-62615559D01*
X100838497Y-62608599D01*
X100847914Y-62601648D01*
X100912607Y-62571239D01*
X100913151Y-62570946D01*
X100913253Y-62570935D01*
X100935837Y-62560320D01*
X100995767Y-62553000D01*
X101740431Y-62553000D01*
X101835719Y-62571954D01*
X101916501Y-62625930D01*
X101963494Y-62695407D01*
X101964771Y-62694757D01*
X101999713Y-62763333D01*
X101999718Y-62763342D01*
X101999721Y-62763347D01*
X102037301Y-62817587D01*
X102063564Y-62849601D01*
X102145487Y-62906408D01*
X102145490Y-62906409D01*
X102145491Y-62906410D01*
X102170021Y-62917069D01*
X102209568Y-62934255D01*
X102209570Y-62934255D01*
X102210738Y-62934763D01*
X102290578Y-62990124D01*
X102343154Y-63071823D01*
X102360500Y-63163133D01*
X102360500Y-64646000D01*
X102361936Y-64659353D01*
X102366338Y-64700309D01*
X102377548Y-64751837D01*
X102377551Y-64751849D01*
X102384779Y-64778193D01*
X102384780Y-64778195D01*
X102384781Y-64778198D01*
X102434112Y-64864828D01*
X102479867Y-64917632D01*
X102512641Y-64949257D01*
X102600976Y-64995465D01*
X102600985Y-64995467D01*
X102600986Y-64995468D01*
X102668010Y-65015149D01*
X102668013Y-65015149D01*
X102668015Y-65015150D01*
X102740000Y-65025500D01*
X102740004Y-65025500D01*
X106087852Y-65025500D01*
X106089050Y-65025495D01*
X106089599Y-65025493D01*
X106091368Y-65025480D01*
X106164963Y-65014086D01*
X106231715Y-64993447D01*
X106273855Y-64976168D01*
X106351703Y-64913894D01*
X106396700Y-64860443D01*
X106422810Y-64823123D01*
X106454631Y-64728647D01*
X106463587Y-64659353D01*
X106462549Y-64586633D01*
X106459066Y-64564642D01*
X106456000Y-64525687D01*
X106456000Y-64284000D01*
X106474954Y-64188712D01*
X106528930Y-64107930D01*
X106609712Y-64053954D01*
X106705000Y-64035000D01*
X107571996Y-64035000D01*
X107572000Y-64035000D01*
X107626313Y-64029161D01*
X107677824Y-64017955D01*
X107704198Y-64010719D01*
X107790828Y-63961388D01*
X107790838Y-63961378D01*
X107800813Y-63954322D01*
X107801567Y-63955388D01*
X107874862Y-63913650D01*
X107971260Y-63901540D01*
X108064953Y-63927242D01*
X108141679Y-63986843D01*
X108189756Y-64071268D01*
X108202500Y-64149906D01*
X108202500Y-64646000D01*
X108203936Y-64659353D01*
X108208338Y-64700309D01*
X108219548Y-64751837D01*
X108219551Y-64751849D01*
X108226779Y-64778193D01*
X108226780Y-64778195D01*
X108226781Y-64778198D01*
X108276112Y-64864828D01*
X108321867Y-64917632D01*
X108354641Y-64949257D01*
X108442976Y-64995465D01*
X108442985Y-64995467D01*
X108442986Y-64995468D01*
X108510010Y-65015149D01*
X108510013Y-65015149D01*
X108510015Y-65015150D01*
X108582000Y-65025500D01*
X110305500Y-65025500D01*
X110400788Y-65044454D01*
X110481570Y-65098430D01*
X110535546Y-65179212D01*
X110554500Y-65274500D01*
X110554500Y-69321398D01*
X110553671Y-69341700D01*
X110497688Y-70026043D01*
X110497688Y-70026046D01*
X110497387Y-70063647D01*
X110497387Y-70063651D01*
X110499777Y-70099985D01*
X110500655Y-70110200D01*
X110500656Y-70110204D01*
X110500657Y-70110209D01*
X110530331Y-70205382D01*
X110530333Y-70205387D01*
X110530334Y-70205388D01*
X110563742Y-70266746D01*
X110607254Y-70325017D01*
X111540632Y-71260645D01*
X111594509Y-71341489D01*
X111613349Y-71436800D01*
X111594280Y-71532065D01*
X111540207Y-71612781D01*
X111459360Y-71666660D01*
X111364349Y-71685500D01*
X110125743Y-71685500D01*
X110030455Y-71666546D01*
X109949673Y-71612570D01*
X106137429Y-67800326D01*
X106083453Y-67719544D01*
X106064499Y-67624256D01*
X106064499Y-67105034D01*
X106064499Y-67105026D01*
X106058107Y-67045559D01*
X106007934Y-66911040D01*
X105921895Y-66796105D01*
X105806960Y-66710066D01*
X105672441Y-66659893D01*
X105638825Y-66656279D01*
X105612976Y-66653500D01*
X104995034Y-66653500D01*
X104995024Y-66653501D01*
X104935561Y-66659892D01*
X104801040Y-66710066D01*
X104686107Y-66796103D01*
X104686103Y-66796107D01*
X104640895Y-66856499D01*
X104603466Y-66906499D01*
X104593335Y-66920032D01*
X104521057Y-66984955D01*
X104429437Y-67017277D01*
X104332421Y-67012077D01*
X104244780Y-66970147D01*
X104194665Y-66920032D01*
X104184535Y-66906500D01*
X104101895Y-66796105D01*
X103986960Y-66710066D01*
X103852441Y-66659893D01*
X103818825Y-66656279D01*
X103792976Y-66653500D01*
X103175034Y-66653500D01*
X103175024Y-66653501D01*
X103115561Y-66659892D01*
X102981040Y-66710066D01*
X102866107Y-66796103D01*
X102866103Y-66796107D01*
X102780065Y-66911041D01*
X102750049Y-66991518D01*
X102698990Y-67074174D01*
X102620186Y-67130999D01*
X102525635Y-67153341D01*
X102516749Y-67153500D01*
X99912868Y-67153500D01*
X99817580Y-67134546D01*
X99736798Y-67080570D01*
X99682822Y-66999788D01*
X99679568Y-66991518D01*
X99663503Y-66948446D01*
X99578331Y-66834669D01*
X99562243Y-66822626D01*
X99505102Y-66779851D01*
X99464554Y-66749497D01*
X99464553Y-66749496D01*
X99464551Y-66749495D01*
X99331391Y-66699829D01*
X99272522Y-66693500D01*
X98690487Y-66693500D01*
X98690480Y-66693501D01*
X98631611Y-66699828D01*
X98631603Y-66699830D01*
X98498450Y-66749494D01*
X98498448Y-66749495D01*
X98384669Y-66834668D01*
X98384668Y-66834669D01*
X98299495Y-66948448D01*
X98249829Y-67081607D01*
X98249829Y-67081608D01*
X98243500Y-67140474D01*
X98243500Y-68147512D01*
X98243501Y-68147519D01*
X98249828Y-68206388D01*
X98249830Y-68206396D01*
X98299494Y-68339549D01*
X98299495Y-68339551D01*
X98353650Y-68411895D01*
X98384669Y-68453331D01*
X98498446Y-68538503D01*
X98498447Y-68538503D01*
X98498448Y-68538504D01*
X98524192Y-68548106D01*
X98631609Y-68588171D01*
X98690479Y-68594500D01*
X99272520Y-68594499D01*
X99331391Y-68588171D01*
X99421668Y-68554499D01*
X99464549Y-68538505D01*
X99464551Y-68538504D01*
X99464550Y-68538504D01*
X99464554Y-68538503D01*
X99578331Y-68453331D01*
X99663503Y-68339554D01*
X99682744Y-68287968D01*
X99709407Y-68216483D01*
X99760466Y-68133827D01*
X99839269Y-68077001D01*
X99933820Y-68054659D01*
X99942707Y-68054500D01*
X102516750Y-68054500D01*
X102612038Y-68073454D01*
X102692820Y-68127430D01*
X102746796Y-68208212D01*
X102750038Y-68216454D01*
X102780066Y-68296960D01*
X102866105Y-68411895D01*
X102981040Y-68497934D01*
X103115559Y-68548107D01*
X103175025Y-68554500D01*
X103792974Y-68554499D01*
X103852441Y-68548107D01*
X103986960Y-68497934D01*
X104101895Y-68411895D01*
X104187934Y-68296960D01*
X104187935Y-68296958D01*
X104194665Y-68287968D01*
X104266942Y-68223044D01*
X104358562Y-68190722D01*
X104455578Y-68195921D01*
X104543219Y-68237852D01*
X104593335Y-68287968D01*
X104686100Y-68411889D01*
X104686102Y-68411891D01*
X104686105Y-68411895D01*
X104801040Y-68497934D01*
X104935559Y-68548107D01*
X104995025Y-68554500D01*
X105514256Y-68554499D01*
X105609544Y-68573453D01*
X105690326Y-68627429D01*
X105791327Y-68728430D01*
X105845303Y-68809212D01*
X105864257Y-68904500D01*
X105845303Y-68999788D01*
X105791327Y-69080570D01*
X105710545Y-69134546D01*
X105615257Y-69153500D01*
X104995034Y-69153500D01*
X104995024Y-69153501D01*
X104935561Y-69159892D01*
X104801040Y-69210066D01*
X104686107Y-69296103D01*
X104686103Y-69296107D01*
X104593335Y-69420032D01*
X104521057Y-69484955D01*
X104429437Y-69517277D01*
X104332421Y-69512077D01*
X104244780Y-69470147D01*
X104194665Y-69420032D01*
X104145041Y-69353742D01*
X104101895Y-69296105D01*
X103986960Y-69210066D01*
X103852441Y-69159893D01*
X103822708Y-69156696D01*
X103792976Y-69153500D01*
X103175034Y-69153500D01*
X103175024Y-69153501D01*
X103115561Y-69159892D01*
X102981040Y-69210066D01*
X102866107Y-69296103D01*
X102866103Y-69296107D01*
X102780065Y-69411041D01*
X102750049Y-69491518D01*
X102698990Y-69574174D01*
X102620186Y-69630999D01*
X102525635Y-69653341D01*
X102516749Y-69653500D01*
X99912868Y-69653500D01*
X99817580Y-69634546D01*
X99736798Y-69580570D01*
X99682822Y-69499788D01*
X99679568Y-69491518D01*
X99663503Y-69448446D01*
X99578331Y-69334669D01*
X99574187Y-69331567D01*
X99464551Y-69249495D01*
X99331391Y-69199829D01*
X99272522Y-69193500D01*
X98690487Y-69193500D01*
X98690480Y-69193501D01*
X98631611Y-69199828D01*
X98631603Y-69199830D01*
X98498450Y-69249494D01*
X98498448Y-69249495D01*
X98384669Y-69334668D01*
X98384668Y-69334669D01*
X98299495Y-69448448D01*
X98249829Y-69581607D01*
X98249829Y-69581608D01*
X98243500Y-69640474D01*
X98243500Y-70647512D01*
X98243501Y-70647519D01*
X98249828Y-70706388D01*
X98249830Y-70706396D01*
X98299494Y-70839549D01*
X98299495Y-70839551D01*
X98353650Y-70911895D01*
X98384669Y-70953331D01*
X98498446Y-71038503D01*
X98498447Y-71038503D01*
X98498448Y-71038504D01*
X98524192Y-71048106D01*
X98631609Y-71088171D01*
X98690479Y-71094500D01*
X99272520Y-71094499D01*
X99331391Y-71088171D01*
X99421668Y-71054499D01*
X99464549Y-71038505D01*
X99464551Y-71038504D01*
X99464550Y-71038504D01*
X99464554Y-71038503D01*
X99578331Y-70953331D01*
X99663503Y-70839554D01*
X99682744Y-70787968D01*
X99709407Y-70716483D01*
X99760466Y-70633827D01*
X99839269Y-70577001D01*
X99933820Y-70554659D01*
X99942707Y-70554500D01*
X102516750Y-70554500D01*
X102612038Y-70573454D01*
X102692820Y-70627430D01*
X102746796Y-70708212D01*
X102750038Y-70716454D01*
X102780066Y-70796960D01*
X102866105Y-70911895D01*
X102981040Y-70997934D01*
X103115559Y-71048107D01*
X103175025Y-71054500D01*
X103792974Y-71054499D01*
X103852441Y-71048107D01*
X103986960Y-70997934D01*
X104101895Y-70911895D01*
X104187934Y-70796960D01*
X104187935Y-70796958D01*
X104194665Y-70787968D01*
X104266942Y-70723044D01*
X104358562Y-70690722D01*
X104455578Y-70695921D01*
X104543219Y-70737852D01*
X104593335Y-70787968D01*
X104686100Y-70911889D01*
X104686102Y-70911891D01*
X104686105Y-70911895D01*
X104801040Y-70997934D01*
X104935559Y-71048107D01*
X104995025Y-71054500D01*
X105514256Y-71054499D01*
X105609544Y-71073453D01*
X105690326Y-71127429D01*
X105791327Y-71228430D01*
X105845303Y-71309212D01*
X105864257Y-71404500D01*
X105845303Y-71499788D01*
X105791327Y-71580570D01*
X105710545Y-71634546D01*
X105615257Y-71653500D01*
X104995034Y-71653500D01*
X104995024Y-71653501D01*
X104935561Y-71659892D01*
X104801040Y-71710066D01*
X104686107Y-71796103D01*
X104686103Y-71796107D01*
X104593335Y-71920032D01*
X104521057Y-71984955D01*
X104429437Y-72017277D01*
X104332421Y-72012077D01*
X104244780Y-71970147D01*
X104194665Y-71920032D01*
X104145041Y-71853742D01*
X104101895Y-71796105D01*
X103986960Y-71710066D01*
X103870584Y-71666660D01*
X103852444Y-71659894D01*
X103852443Y-71659893D01*
X103852441Y-71659893D01*
X103822708Y-71656696D01*
X103792976Y-71653500D01*
X103175034Y-71653500D01*
X103175024Y-71653501D01*
X103115561Y-71659892D01*
X102981040Y-71710066D01*
X102866107Y-71796103D01*
X102866103Y-71796107D01*
X102780065Y-71911041D01*
X102750049Y-71991518D01*
X102698990Y-72074174D01*
X102620186Y-72130999D01*
X102525635Y-72153341D01*
X102516749Y-72153500D01*
X99912868Y-72153500D01*
X99817580Y-72134546D01*
X99736798Y-72080570D01*
X99682822Y-71999788D01*
X99679568Y-71991518D01*
X99663503Y-71948446D01*
X99578331Y-71834669D01*
X99464554Y-71749497D01*
X99464553Y-71749496D01*
X99464551Y-71749495D01*
X99331391Y-71699829D01*
X99272522Y-71693500D01*
X98690487Y-71693500D01*
X98690480Y-71693501D01*
X98631611Y-71699828D01*
X98631603Y-71699830D01*
X98498450Y-71749494D01*
X98498448Y-71749495D01*
X98384669Y-71834668D01*
X98384668Y-71834669D01*
X98299495Y-71948448D01*
X98249829Y-72081607D01*
X98249829Y-72081608D01*
X98243500Y-72140474D01*
X98243500Y-73147512D01*
X98243501Y-73147519D01*
X98249828Y-73206388D01*
X98249830Y-73206396D01*
X98299494Y-73339549D01*
X98299495Y-73339551D01*
X98353650Y-73411895D01*
X98384669Y-73453331D01*
X98498446Y-73538503D01*
X98498447Y-73538503D01*
X98498448Y-73538504D01*
X98524192Y-73548106D01*
X98631609Y-73588171D01*
X98690479Y-73594500D01*
X99272520Y-73594499D01*
X99331391Y-73588171D01*
X99421668Y-73554499D01*
X99464549Y-73538505D01*
X99464551Y-73538504D01*
X99464550Y-73538504D01*
X99464554Y-73538503D01*
X99578331Y-73453331D01*
X99663503Y-73339554D01*
X99682744Y-73287968D01*
X99709407Y-73216483D01*
X99760466Y-73133827D01*
X99839269Y-73077001D01*
X99933820Y-73054659D01*
X99942707Y-73054500D01*
X102516750Y-73054500D01*
X102612038Y-73073454D01*
X102692820Y-73127430D01*
X102746796Y-73208212D01*
X102750038Y-73216454D01*
X102780066Y-73296960D01*
X102866105Y-73411895D01*
X102981040Y-73497934D01*
X103115559Y-73548107D01*
X103175025Y-73554500D01*
X103792974Y-73554499D01*
X103852441Y-73548107D01*
X103986960Y-73497934D01*
X104101895Y-73411895D01*
X104187934Y-73296960D01*
X104187935Y-73296958D01*
X104194665Y-73287968D01*
X104266942Y-73223044D01*
X104358562Y-73190722D01*
X104455578Y-73195921D01*
X104543219Y-73237852D01*
X104593335Y-73287968D01*
X104686100Y-73411889D01*
X104686102Y-73411891D01*
X104686105Y-73411895D01*
X104801040Y-73497934D01*
X104935559Y-73548107D01*
X104995025Y-73554500D01*
X105514256Y-73554499D01*
X105609544Y-73573453D01*
X105690326Y-73627429D01*
X105791327Y-73728430D01*
X105845303Y-73809212D01*
X105864257Y-73904500D01*
X105845303Y-73999788D01*
X105791327Y-74080570D01*
X105710545Y-74134546D01*
X105615257Y-74153500D01*
X104995034Y-74153500D01*
X104995024Y-74153501D01*
X104935561Y-74159892D01*
X104801040Y-74210066D01*
X104686107Y-74296103D01*
X104686103Y-74296107D01*
X104657237Y-74334668D01*
X104607807Y-74400700D01*
X104593335Y-74420032D01*
X104521057Y-74484955D01*
X104429437Y-74517277D01*
X104332421Y-74512077D01*
X104244780Y-74470147D01*
X104194665Y-74420032D01*
X104187934Y-74411040D01*
X104101895Y-74296105D01*
X103986960Y-74210066D01*
X103852441Y-74159893D01*
X103822708Y-74156696D01*
X103792976Y-74153500D01*
X103175034Y-74153500D01*
X103175024Y-74153501D01*
X103115561Y-74159892D01*
X102981040Y-74210066D01*
X102866107Y-74296103D01*
X102866103Y-74296107D01*
X102780065Y-74411041D01*
X102750049Y-74491518D01*
X102698990Y-74574174D01*
X102620186Y-74630999D01*
X102525635Y-74653341D01*
X102516749Y-74653500D01*
X99912868Y-74653500D01*
X99817580Y-74634546D01*
X99736798Y-74580570D01*
X99682822Y-74499788D01*
X99679568Y-74491518D01*
X99663503Y-74448446D01*
X99578331Y-74334669D01*
X99464554Y-74249497D01*
X99464553Y-74249496D01*
X99464551Y-74249495D01*
X99331391Y-74199829D01*
X99272522Y-74193500D01*
X98690487Y-74193500D01*
X98690480Y-74193501D01*
X98631611Y-74199828D01*
X98631603Y-74199830D01*
X98498450Y-74249494D01*
X98498448Y-74249495D01*
X98384669Y-74334668D01*
X98384668Y-74334669D01*
X98299495Y-74448448D01*
X98249829Y-74581607D01*
X98249829Y-74581608D01*
X98243500Y-74640474D01*
X98243500Y-75647512D01*
X98243501Y-75647519D01*
X98249828Y-75706388D01*
X98249830Y-75706396D01*
X98299494Y-75839549D01*
X98299495Y-75839551D01*
X98353650Y-75911895D01*
X98384669Y-75953331D01*
X98498446Y-76038503D01*
X98498447Y-76038503D01*
X98498448Y-76038504D01*
X98524192Y-76048106D01*
X98631609Y-76088171D01*
X98690479Y-76094500D01*
X99272520Y-76094499D01*
X99331391Y-76088171D01*
X99421668Y-76054499D01*
X99464549Y-76038505D01*
X99464551Y-76038504D01*
X99464550Y-76038504D01*
X99464554Y-76038503D01*
X99578331Y-75953331D01*
X99663503Y-75839554D01*
X99682744Y-75787968D01*
X99709407Y-75716483D01*
X99760466Y-75633827D01*
X99839269Y-75577001D01*
X99933820Y-75554659D01*
X99942707Y-75554500D01*
X102516750Y-75554500D01*
X102612038Y-75573454D01*
X102692820Y-75627430D01*
X102746796Y-75708212D01*
X102750038Y-75716454D01*
X102780066Y-75796960D01*
X102866105Y-75911895D01*
X102981040Y-75997934D01*
X103115559Y-76048107D01*
X103175025Y-76054500D01*
X103792974Y-76054499D01*
X103852441Y-76048107D01*
X103986960Y-75997934D01*
X104101895Y-75911895D01*
X104187934Y-75796960D01*
X104187935Y-75796958D01*
X104194665Y-75787968D01*
X104266942Y-75723044D01*
X104358562Y-75690722D01*
X104455578Y-75695921D01*
X104543219Y-75737852D01*
X104593335Y-75787968D01*
X104686100Y-75911889D01*
X104686102Y-75911891D01*
X104686105Y-75911895D01*
X104801040Y-75997934D01*
X104935559Y-76048107D01*
X104995025Y-76054500D01*
X105514256Y-76054499D01*
X105609544Y-76073453D01*
X105690325Y-76127429D01*
X105690326Y-76127430D01*
X105869381Y-76306486D01*
X105869383Y-76306487D01*
X105869386Y-76306490D01*
X105972113Y-76365799D01*
X105996326Y-76372286D01*
X105996327Y-76372286D01*
X106086691Y-76396500D01*
X111656969Y-76396500D01*
X111752257Y-76415454D01*
X111833039Y-76469430D01*
X111887015Y-76550212D01*
X111905969Y-76645500D01*
X111887015Y-76740788D01*
X111833041Y-76821566D01*
X111826950Y-76827658D01*
X111826948Y-76827660D01*
X111769353Y-76940696D01*
X111769352Y-76940700D01*
X111754501Y-77034469D01*
X111754500Y-77034485D01*
X111754500Y-77397515D01*
X111758841Y-77424922D01*
X111769354Y-77491304D01*
X111769354Y-77491305D01*
X111769355Y-77491306D01*
X111775285Y-77509558D01*
X111786703Y-77606040D01*
X111760330Y-77699547D01*
X111700181Y-77775844D01*
X111615413Y-77823314D01*
X111538471Y-77835500D01*
X107991525Y-77835500D01*
X107964908Y-77834073D01*
X107940975Y-77831500D01*
X106943034Y-77831500D01*
X106943024Y-77831501D01*
X106883561Y-77837892D01*
X106749037Y-77888067D01*
X106744006Y-77891834D01*
X106656366Y-77933765D01*
X106594785Y-77941500D01*
X104738129Y-77941500D01*
X104642841Y-77922546D01*
X104562059Y-77868570D01*
X104508083Y-77787788D01*
X104495802Y-77749761D01*
X104494091Y-77742525D01*
X104494091Y-77742517D01*
X104443796Y-77607669D01*
X104357546Y-77492454D01*
X104242331Y-77406204D01*
X104162117Y-77376286D01*
X104107481Y-77355908D01*
X104047873Y-77349500D01*
X103102134Y-77349500D01*
X103102130Y-77349500D01*
X103102128Y-77349501D01*
X103089314Y-77350878D01*
X103042519Y-77355908D01*
X103042515Y-77355909D01*
X102907670Y-77406203D01*
X102792455Y-77492453D01*
X102792453Y-77492455D01*
X102706204Y-77607669D01*
X102655908Y-77742518D01*
X102649500Y-77802123D01*
X102649500Y-79197865D01*
X102649500Y-79197868D01*
X102649501Y-79197872D01*
X102650794Y-79209898D01*
X102655908Y-79257480D01*
X102655909Y-79257484D01*
X102706203Y-79392329D01*
X102706204Y-79392331D01*
X102792454Y-79507546D01*
X102907669Y-79593796D01*
X103042517Y-79644091D01*
X103102127Y-79650500D01*
X104047872Y-79650499D01*
X104107483Y-79644091D01*
X104242331Y-79593796D01*
X104357546Y-79507546D01*
X104443796Y-79392331D01*
X104443798Y-79392324D01*
X104452330Y-79376702D01*
X104455390Y-79378373D01*
X104490331Y-79321817D01*
X104569138Y-79264996D01*
X104663690Y-79242658D01*
X104672564Y-79242500D01*
X106594785Y-79242500D01*
X106625297Y-79248569D01*
X106656367Y-79250235D01*
X106672516Y-79257961D01*
X106690073Y-79261454D01*
X106744008Y-79292167D01*
X106758034Y-79302667D01*
X106822956Y-79374945D01*
X106855277Y-79466567D01*
X106850076Y-79563582D01*
X106808144Y-79651223D01*
X106758032Y-79701334D01*
X106634108Y-79794102D01*
X106634103Y-79794107D01*
X106611136Y-79824788D01*
X106554754Y-79900107D01*
X106548065Y-79909042D01*
X106497894Y-80043555D01*
X106497893Y-80043559D01*
X106491500Y-80103020D01*
X106491500Y-80720965D01*
X106491501Y-80720975D01*
X106497892Y-80780438D01*
X106497892Y-80780440D01*
X106497893Y-80780441D01*
X106548066Y-80914960D01*
X106634105Y-81029895D01*
X106691722Y-81073026D01*
X106698178Y-81080213D01*
X106706552Y-81085041D01*
X106730439Y-81116129D01*
X106756643Y-81145300D01*
X106759858Y-81154415D01*
X106765748Y-81162080D01*
X106771984Y-81188788D01*
X106788965Y-81236921D01*
X106790956Y-81255907D01*
X106791500Y-81264122D01*
X106791500Y-81529171D01*
X106814640Y-81645500D01*
X106816499Y-81654846D01*
X106817536Y-81657351D01*
X106817537Y-81657353D01*
X106865534Y-81773229D01*
X106936723Y-81879771D01*
X108713382Y-83656430D01*
X108767358Y-83737212D01*
X108786312Y-83832500D01*
X108767358Y-83927788D01*
X108713382Y-84008570D01*
X108632600Y-84062546D01*
X108537312Y-84081500D01*
X95745500Y-84081500D01*
X95650212Y-84062546D01*
X95569430Y-84008570D01*
X95515454Y-83927788D01*
X95496500Y-83832500D01*
X95496500Y-53581500D01*
X95515454Y-53486212D01*
X95569430Y-53405430D01*
X95650212Y-53351454D01*
X95745500Y-53332500D01*
X132854500Y-53332500D01*
X132949788Y-53351454D01*
G37*
%TD.AperFunction*%
%TA.AperFunction,Conductor*%
G36*
X122948913Y-60148116D02*
G01*
X122973437Y-60148116D01*
X122996096Y-60157501D01*
X123020149Y-60162286D01*
X123040538Y-60175909D01*
X123063197Y-60185295D01*
X123100925Y-60216257D01*
X123227015Y-60342347D01*
X123247365Y-60360626D01*
X123268007Y-60377260D01*
X123296821Y-60392332D01*
X123356340Y-60423466D01*
X123423372Y-60443149D01*
X123423375Y-60443149D01*
X123423377Y-60443150D01*
X123495362Y-60453500D01*
X126791028Y-60453500D01*
X126886316Y-60472454D01*
X126967098Y-60526430D01*
X127279147Y-60838479D01*
X127308713Y-60876885D01*
X127309940Y-60876058D01*
X127314603Y-60882970D01*
X127354855Y-60934788D01*
X127377571Y-60957102D01*
X127402406Y-60985505D01*
X127416327Y-61004101D01*
X127458261Y-61091737D01*
X127465999Y-61153328D01*
X127465999Y-61650668D01*
X127447045Y-61745956D01*
X127416335Y-61799886D01*
X127407796Y-61811293D01*
X127374856Y-61847314D01*
X127370692Y-61851054D01*
X127370685Y-61851060D01*
X127340683Y-61883286D01*
X127328742Y-61897066D01*
X127328742Y-61897067D01*
X127282538Y-61985394D01*
X127282531Y-61985411D01*
X127262850Y-62052435D01*
X127262850Y-62052436D01*
X127252500Y-62124428D01*
X127252500Y-65562257D01*
X127233546Y-65657545D01*
X127179570Y-65738327D01*
X127098788Y-65792303D01*
X127003500Y-65811257D01*
X126908212Y-65792303D01*
X126827430Y-65738327D01*
X124544505Y-63455402D01*
X124490529Y-63374620D01*
X124480059Y-63343776D01*
X124464985Y-63287520D01*
X124464984Y-63287515D01*
X124392509Y-63161985D01*
X124290015Y-63059491D01*
X124290012Y-63059489D01*
X124290011Y-63059488D01*
X124164487Y-62987017D01*
X124164482Y-62987015D01*
X124024475Y-62949500D01*
X123879525Y-62949500D01*
X123739517Y-62987015D01*
X123739512Y-62987017D01*
X123613988Y-63059488D01*
X123511488Y-63161988D01*
X123439017Y-63287512D01*
X123439015Y-63287517D01*
X123401500Y-63427524D01*
X123401500Y-63572475D01*
X123439015Y-63712482D01*
X123439017Y-63712487D01*
X123511488Y-63838011D01*
X123511489Y-63838012D01*
X123511491Y-63838015D01*
X123613985Y-63940509D01*
X123739515Y-64012984D01*
X123778377Y-64023397D01*
X123795776Y-64028059D01*
X123882912Y-64071029D01*
X123907402Y-64092505D01*
X126074570Y-66259673D01*
X126128546Y-66340455D01*
X126147500Y-66435743D01*
X126147500Y-74619500D01*
X126128546Y-74714788D01*
X126074570Y-74795570D01*
X125993788Y-74849546D01*
X125898500Y-74868500D01*
X125379034Y-74868500D01*
X125379024Y-74868501D01*
X125319561Y-74874892D01*
X125185040Y-74925066D01*
X125070107Y-75011103D01*
X125070104Y-75011106D01*
X125067348Y-75014788D01*
X125026973Y-75068722D01*
X124954700Y-75133643D01*
X124863079Y-75165965D01*
X124827641Y-75168500D01*
X123847787Y-75168500D01*
X123752499Y-75149546D01*
X123671717Y-75095570D01*
X123617741Y-75014788D01*
X123598787Y-74919500D01*
X123601853Y-74880547D01*
X123602796Y-74874586D01*
X123605500Y-74857519D01*
X123605499Y-74494482D01*
X123590646Y-74400696D01*
X123533050Y-74287658D01*
X123462458Y-74217066D01*
X123408485Y-74136288D01*
X123389531Y-74041000D01*
X123408485Y-73945712D01*
X123462458Y-73864933D01*
X123533050Y-73794342D01*
X123590646Y-73681304D01*
X123605500Y-73587519D01*
X123605499Y-73224482D01*
X123590646Y-73130696D01*
X123533050Y-73017658D01*
X123462458Y-72947066D01*
X123408485Y-72866288D01*
X123389531Y-72771000D01*
X123408485Y-72675712D01*
X123462458Y-72594933D01*
X123533050Y-72524342D01*
X123590646Y-72411304D01*
X123605500Y-72317519D01*
X123605499Y-71954482D01*
X123590646Y-71860696D01*
X123533050Y-71747658D01*
X123443342Y-71657950D01*
X123443339Y-71657948D01*
X123330303Y-71600353D01*
X123330299Y-71600352D01*
X123236530Y-71585501D01*
X123236522Y-71585500D01*
X123236519Y-71585500D01*
X123236514Y-71585500D01*
X121423484Y-71585500D01*
X121329695Y-71600354D01*
X121216659Y-71657949D01*
X121126948Y-71747660D01*
X121069353Y-71860696D01*
X121069352Y-71860700D01*
X121054501Y-71954469D01*
X121054500Y-71954485D01*
X121054500Y-72317515D01*
X121069353Y-72411299D01*
X121069354Y-72411304D01*
X121126950Y-72524342D01*
X121197541Y-72594933D01*
X121251515Y-72675712D01*
X121270469Y-72771000D01*
X121251515Y-72866288D01*
X121197541Y-72947066D01*
X121126950Y-73017658D01*
X121126948Y-73017660D01*
X121069353Y-73130696D01*
X121069352Y-73130700D01*
X121054501Y-73224469D01*
X121054500Y-73224485D01*
X121054500Y-73587515D01*
X121069353Y-73681299D01*
X121069354Y-73681304D01*
X121126950Y-73794342D01*
X121197541Y-73864933D01*
X121251515Y-73945712D01*
X121270469Y-74041000D01*
X121251515Y-74136288D01*
X121197541Y-74217066D01*
X121126950Y-74287658D01*
X121126948Y-74287660D01*
X121069353Y-74400696D01*
X121069352Y-74400700D01*
X121054501Y-74494469D01*
X121054500Y-74494485D01*
X121054500Y-74857515D01*
X121058148Y-74880547D01*
X121069354Y-74951304D01*
X121126950Y-75064342D01*
X121197541Y-75134933D01*
X121251515Y-75215712D01*
X121270469Y-75311000D01*
X121251515Y-75406288D01*
X121197541Y-75487066D01*
X121130108Y-75554500D01*
X121126948Y-75557660D01*
X121069353Y-75670696D01*
X121069352Y-75670700D01*
X121054501Y-75764469D01*
X121054500Y-75764485D01*
X121054500Y-76127515D01*
X121069354Y-76221304D01*
X121126950Y-76334342D01*
X121197541Y-76404933D01*
X121251515Y-76485712D01*
X121270469Y-76581000D01*
X121251515Y-76676288D01*
X121197541Y-76757066D01*
X121160002Y-76794606D01*
X121126948Y-76827660D01*
X121069353Y-76940696D01*
X121069352Y-76940700D01*
X121054501Y-77034469D01*
X121054500Y-77034485D01*
X121054500Y-77397515D01*
X121067411Y-77479034D01*
X121069354Y-77491304D01*
X121126950Y-77604342D01*
X121197541Y-77674933D01*
X121251515Y-77755712D01*
X121270469Y-77851000D01*
X121251515Y-77946288D01*
X121197541Y-78027066D01*
X121133563Y-78091045D01*
X121126948Y-78097660D01*
X121069353Y-78210696D01*
X121069352Y-78210700D01*
X121054501Y-78304469D01*
X121054500Y-78304485D01*
X121054500Y-78667515D01*
X121055046Y-78670960D01*
X121069354Y-78761304D01*
X121126950Y-78874342D01*
X121197541Y-78944933D01*
X121251515Y-79025712D01*
X121270469Y-79121000D01*
X121251515Y-79216288D01*
X121197541Y-79297066D01*
X121126950Y-79367658D01*
X121126948Y-79367660D01*
X121124732Y-79369877D01*
X121043950Y-79423853D01*
X120948662Y-79442807D01*
X120853374Y-79423853D01*
X120772592Y-79369877D01*
X118125430Y-76722715D01*
X118071454Y-76641933D01*
X118052500Y-76546645D01*
X118052500Y-69729429D01*
X118071454Y-69634141D01*
X118085856Y-69604935D01*
X118114984Y-69554485D01*
X118152500Y-69414475D01*
X118152500Y-69269525D01*
X118147133Y-69249497D01*
X118136568Y-69210066D01*
X118114984Y-69129515D01*
X118042509Y-69003985D01*
X117940015Y-68901491D01*
X117940012Y-68901489D01*
X117940011Y-68901488D01*
X117814487Y-68829017D01*
X117814482Y-68829015D01*
X117674475Y-68791500D01*
X117541500Y-68791500D01*
X117446212Y-68772546D01*
X117365430Y-68718570D01*
X117311454Y-68637788D01*
X117292500Y-68542500D01*
X117292500Y-67250694D01*
X117292500Y-67250691D01*
X117261799Y-67136114D01*
X117243855Y-67105034D01*
X117218998Y-67061980D01*
X117187768Y-66969981D01*
X117187768Y-66969976D01*
X117185499Y-66952742D01*
X117185499Y-66952740D01*
X117138850Y-66852701D01*
X117060799Y-66774650D01*
X117060798Y-66774649D01*
X116960763Y-66728001D01*
X116933411Y-66724400D01*
X116915179Y-66722000D01*
X116915177Y-66722000D01*
X116716823Y-66722000D01*
X116716815Y-66722001D01*
X116671242Y-66728000D01*
X116671232Y-66728003D01*
X116671216Y-66728011D01*
X116671154Y-66728025D01*
X116652950Y-66733332D01*
X116652718Y-66732536D01*
X116576844Y-66751097D01*
X116480821Y-66736311D01*
X116460774Y-66728006D01*
X116460765Y-66728002D01*
X116460761Y-66728001D01*
X116460760Y-66728001D01*
X116415179Y-66722000D01*
X116415177Y-66722000D01*
X116216823Y-66722000D01*
X116216815Y-66722001D01*
X116171242Y-66728000D01*
X116171232Y-66728003D01*
X116171216Y-66728011D01*
X116171154Y-66728025D01*
X116152950Y-66733332D01*
X116152718Y-66732536D01*
X116076844Y-66751097D01*
X116053473Y-66751018D01*
X116004869Y-66748569D01*
X115960760Y-66728001D01*
X115915179Y-66722000D01*
X115716822Y-66722001D01*
X115671240Y-66728001D01*
X115663957Y-66731396D01*
X115627972Y-66729584D01*
X115602376Y-66723138D01*
X115576045Y-66721412D01*
X115555729Y-66711392D01*
X115533758Y-66705860D01*
X115512578Y-66690111D01*
X115488911Y-66678439D01*
X115473975Y-66661407D01*
X115455794Y-66647888D01*
X115442252Y-66625231D01*
X115424855Y-66605392D01*
X115417574Y-66583941D01*
X115405950Y-66564493D01*
X115402109Y-66538380D01*
X115393628Y-66513392D01*
X115391499Y-66480899D01*
X115391499Y-66448319D01*
X115391498Y-66448315D01*
X115385648Y-66403872D01*
X115385499Y-66402740D01*
X115385493Y-66402727D01*
X115385482Y-66402682D01*
X115380168Y-66384450D01*
X115380964Y-66384217D01*
X115362403Y-66308356D01*
X115377184Y-66212332D01*
X115385498Y-66192263D01*
X115385498Y-66192262D01*
X115385497Y-66192262D01*
X115385499Y-66192260D01*
X115391500Y-66146679D01*
X115391499Y-65948322D01*
X115385499Y-65902740D01*
X115385493Y-65902727D01*
X115385482Y-65902682D01*
X115380168Y-65884450D01*
X115380964Y-65884217D01*
X115362403Y-65808356D01*
X115365291Y-65758175D01*
X115370787Y-65723808D01*
X115385499Y-65692260D01*
X115391500Y-65646679D01*
X115391499Y-65594308D01*
X115394624Y-65574775D01*
X115404761Y-65547424D01*
X115410451Y-65518817D01*
X115421485Y-65502301D01*
X115428389Y-65483676D01*
X115448221Y-65462286D01*
X115464425Y-65438035D01*
X115480940Y-65426999D01*
X115494446Y-65412433D01*
X115520952Y-65400262D01*
X115545205Y-65384056D01*
X115564688Y-65380180D01*
X115582739Y-65371892D01*
X115611884Y-65370791D01*
X115640493Y-65365100D01*
X115672999Y-65367230D01*
X115716821Y-65373000D01*
X115915178Y-65372999D01*
X115960760Y-65366999D01*
X115960770Y-65366994D01*
X115960805Y-65366985D01*
X115979050Y-65361668D01*
X115979282Y-65362464D01*
X116055138Y-65343903D01*
X116151162Y-65358683D01*
X116171231Y-65366995D01*
X116171240Y-65366999D01*
X116216821Y-65373000D01*
X116415178Y-65372999D01*
X116459004Y-65367230D01*
X116555948Y-65373585D01*
X116643084Y-65416557D01*
X116707142Y-65489602D01*
X116738370Y-65581602D01*
X116740500Y-65614094D01*
X116740500Y-65646674D01*
X116740501Y-65646684D01*
X116746500Y-65692257D01*
X116746501Y-65692259D01*
X116793149Y-65792298D01*
X116871201Y-65870350D01*
X116971236Y-65916998D01*
X116971238Y-65916998D01*
X116971240Y-65916999D01*
X117016821Y-65923000D01*
X117040371Y-65922999D01*
X117104821Y-65931484D01*
X117116013Y-65934483D01*
X117116015Y-65934484D01*
X117256025Y-65972000D01*
X117256026Y-65972000D01*
X117400974Y-65972000D01*
X117400975Y-65972000D01*
X117540985Y-65934484D01*
X117540986Y-65934483D01*
X117550369Y-65931969D01*
X117581970Y-65922999D01*
X117640178Y-65922999D01*
X117685760Y-65916999D01*
X117785799Y-65870350D01*
X117793070Y-65863078D01*
X117833507Y-65851601D01*
X117862442Y-65849274D01*
X117890638Y-65842375D01*
X117910410Y-65845418D01*
X117930350Y-65843815D01*
X117957970Y-65852738D01*
X117986662Y-65857154D01*
X118003765Y-65867532D01*
X118022800Y-65873682D01*
X118044903Y-65892495D01*
X118069721Y-65907555D01*
X118081549Y-65923687D01*
X118096784Y-65936654D01*
X118110006Y-65962497D01*
X118127170Y-65985905D01*
X118131924Y-66005335D01*
X118141037Y-66023145D01*
X118143363Y-66052080D01*
X118150263Y-66080276D01*
X118150500Y-66091137D01*
X118150500Y-66403865D01*
X118150501Y-66403869D01*
X118156908Y-66463480D01*
X118156909Y-66463484D01*
X118191602Y-66556500D01*
X118207204Y-66598331D01*
X118293454Y-66713546D01*
X118408669Y-66799796D01*
X118543517Y-66850091D01*
X118603127Y-66856500D01*
X119648872Y-66856499D01*
X119708483Y-66850091D01*
X119843331Y-66799796D01*
X119958546Y-66713546D01*
X120001416Y-66656278D01*
X120073694Y-66591356D01*
X120165315Y-66559034D01*
X120200750Y-66556500D01*
X121213820Y-66556500D01*
X121309108Y-66575454D01*
X121389890Y-66629430D01*
X121413154Y-66656279D01*
X121484134Y-66751097D01*
X121493454Y-66763546D01*
X121608669Y-66849796D01*
X121743517Y-66900091D01*
X121803127Y-66906500D01*
X122848872Y-66906499D01*
X122908483Y-66900091D01*
X123043331Y-66849796D01*
X123158546Y-66763546D01*
X123244796Y-66648331D01*
X123295091Y-66513483D01*
X123301500Y-66453873D01*
X123301499Y-65858128D01*
X123295091Y-65798517D01*
X123244796Y-65663669D01*
X123158546Y-65548454D01*
X123043331Y-65462204D01*
X122963117Y-65432286D01*
X122908481Y-65411908D01*
X122848873Y-65405500D01*
X121803134Y-65405500D01*
X121803130Y-65405500D01*
X121803128Y-65405501D01*
X121790314Y-65406878D01*
X121743519Y-65411908D01*
X121743515Y-65411909D01*
X121608670Y-65462203D01*
X121493450Y-65548457D01*
X121488012Y-65555722D01*
X121415734Y-65620645D01*
X121324113Y-65652966D01*
X121288679Y-65655500D01*
X120200750Y-65655500D01*
X120105462Y-65636546D01*
X120024680Y-65582570D01*
X120001416Y-65555721D01*
X119958549Y-65498458D01*
X119958548Y-65498457D01*
X119958546Y-65498454D01*
X119843331Y-65412204D01*
X119732297Y-65370791D01*
X119708481Y-65361908D01*
X119648250Y-65355433D01*
X119555534Y-65326402D01*
X119500525Y-65280429D01*
X119498029Y-65282926D01*
X118903673Y-64688569D01*
X118849697Y-64607788D01*
X118830743Y-64512500D01*
X118849697Y-64417212D01*
X118903674Y-64336430D01*
X118984455Y-64282454D01*
X119079743Y-64263500D01*
X119255996Y-64263500D01*
X119256000Y-64263500D01*
X119310313Y-64257661D01*
X119361824Y-64246455D01*
X119388198Y-64239219D01*
X119474828Y-64189888D01*
X119527632Y-64144133D01*
X119559257Y-64111359D01*
X119605465Y-64023024D01*
X119608234Y-64013591D01*
X119653266Y-63927505D01*
X119727814Y-63865202D01*
X119820530Y-63836171D01*
X119917299Y-63844830D01*
X119996365Y-63884407D01*
X120035541Y-63913734D01*
X120170060Y-63963907D01*
X120229526Y-63970300D01*
X120847475Y-63970299D01*
X120906942Y-63963907D01*
X121041461Y-63913734D01*
X121156396Y-63827695D01*
X121242435Y-63712760D01*
X121292608Y-63578241D01*
X121299001Y-63518775D01*
X121299000Y-62858120D01*
X121317954Y-62762833D01*
X121325956Y-62745438D01*
X121343896Y-62710084D01*
X121362968Y-62691014D01*
X121409113Y-62611090D01*
X121419145Y-62573649D01*
X121432999Y-62521946D01*
X121432999Y-62066700D01*
X121451953Y-61971412D01*
X121505929Y-61890630D01*
X121586711Y-61836654D01*
X121681999Y-61817700D01*
X121834575Y-61817700D01*
X121834575Y-61817699D01*
X121907640Y-61803166D01*
X121990501Y-61747801D01*
X122045866Y-61664940D01*
X122060400Y-61591874D01*
X122060400Y-61160548D01*
X122079354Y-61065260D01*
X122133330Y-60984478D01*
X122214112Y-60930502D01*
X122309400Y-60911548D01*
X122458175Y-60911548D01*
X122458175Y-60911547D01*
X122531240Y-60897014D01*
X122614101Y-60841649D01*
X122669466Y-60758788D01*
X122684000Y-60685722D01*
X122684000Y-60457774D01*
X122680646Y-60440911D01*
X122680645Y-60416386D01*
X122675861Y-60392332D01*
X122680645Y-60368279D01*
X122680645Y-60343756D01*
X122690030Y-60321096D01*
X122694815Y-60297044D01*
X122708438Y-60276654D01*
X122717824Y-60253996D01*
X122735165Y-60236654D01*
X122748791Y-60216262D01*
X122769183Y-60202636D01*
X122786523Y-60185297D01*
X122809179Y-60175912D01*
X122829573Y-60162286D01*
X122853626Y-60157501D01*
X122876282Y-60148117D01*
X122900806Y-60148116D01*
X122924861Y-60143332D01*
X122948913Y-60148116D01*
G37*
%TD.AperFunction*%
%TA.AperFunction,Conductor*%
G36*
X112272957Y-61377954D02*
G01*
X112326894Y-61408669D01*
X112331931Y-61412440D01*
X112338250Y-61417020D01*
X112344454Y-61421375D01*
X112344455Y-61421375D01*
X112344459Y-61421378D01*
X112369268Y-61433482D01*
X112416756Y-61456654D01*
X112483590Y-61477025D01*
X112483603Y-61477027D01*
X112555456Y-61488113D01*
X112555455Y-61488113D01*
X112687056Y-61489464D01*
X112733387Y-61499175D01*
X112779788Y-61508405D01*
X112780870Y-61509127D01*
X112782144Y-61509395D01*
X112821183Y-61536063D01*
X112860570Y-61562381D01*
X112861294Y-61563465D01*
X112862367Y-61564198D01*
X112888230Y-61603778D01*
X112914546Y-61643163D01*
X112914799Y-61644439D01*
X112915512Y-61645529D01*
X112933500Y-61738451D01*
X112933500Y-62235612D01*
X112914546Y-62330900D01*
X112860570Y-62411682D01*
X112779788Y-62465658D01*
X112684500Y-62484612D01*
X112660884Y-62482923D01*
X112660869Y-62483134D01*
X112652005Y-62482500D01*
X112652000Y-62482500D01*
X109890049Y-62482500D01*
X109794761Y-62463546D01*
X109713979Y-62409570D01*
X109713979Y-62409569D01*
X109198980Y-61894569D01*
X109145004Y-61813788D01*
X109126050Y-61718500D01*
X109145004Y-61623212D01*
X109198981Y-61542430D01*
X109279762Y-61488454D01*
X109375050Y-61469500D01*
X110742646Y-61469500D01*
X110867896Y-61470785D01*
X110878316Y-61470679D01*
X110888434Y-61470370D01*
X110969920Y-61454381D01*
X111035384Y-61429965D01*
X111099217Y-61395110D01*
X111110377Y-61386755D01*
X111155661Y-61369865D01*
X111172108Y-61366158D01*
X111192943Y-61365629D01*
X111229716Y-61359000D01*
X112177669Y-61359000D01*
X112272957Y-61377954D01*
G37*
%TD.AperFunction*%
%TD*%
%TA.AperFunction,Conductor*%
%TO.N,/VBUS*%
G36*
X100617375Y-57931685D02*
G01*
X100650105Y-57962366D01*
X100655850Y-57970150D01*
X100765118Y-58050793D01*
X100807845Y-58065744D01*
X100893299Y-58095646D01*
X100923730Y-58098500D01*
X100923734Y-58098500D01*
X101832270Y-58098500D01*
X101862699Y-58095646D01*
X101862701Y-58095646D01*
X101926790Y-58073219D01*
X101990882Y-58050793D01*
X102100150Y-57970150D01*
X102105893Y-57962367D01*
X102109873Y-57959345D01*
X102111951Y-57954797D01*
X102137422Y-57938427D01*
X102161539Y-57920116D01*
X102167671Y-57918988D01*
X102170729Y-57917023D01*
X102205664Y-57912000D01*
X102238000Y-57912000D01*
X102305039Y-57931685D01*
X102350794Y-57984489D01*
X102362000Y-58036000D01*
X102362000Y-59023500D01*
X102342315Y-59090539D01*
X102289511Y-59136294D01*
X102238000Y-59147500D01*
X102033055Y-59147500D01*
X101976762Y-59133986D01*
X101936122Y-59113279D01*
X101836493Y-59097500D01*
X101836488Y-59097500D01*
X100919512Y-59097500D01*
X100919507Y-59097500D01*
X100819878Y-59113279D01*
X100819874Y-59113280D01*
X100819874Y-59113281D01*
X100711528Y-59168485D01*
X100655237Y-59182000D01*
X100584000Y-59182000D01*
X100584000Y-59280188D01*
X100570485Y-59336482D01*
X100543279Y-59389876D01*
X100527500Y-59489506D01*
X100527500Y-59906493D01*
X100543279Y-60006123D01*
X100570485Y-60059516D01*
X100573606Y-60072519D01*
X100578977Y-60080876D01*
X100584000Y-60115811D01*
X100584000Y-60280188D01*
X100570485Y-60336482D01*
X100543279Y-60389876D01*
X100527500Y-60489506D01*
X100527500Y-60906493D01*
X100543279Y-61006121D01*
X100543280Y-61006124D01*
X100543281Y-61006126D01*
X100604472Y-61126220D01*
X100604473Y-61126221D01*
X100604476Y-61126225D01*
X100699774Y-61221523D01*
X100699778Y-61221526D01*
X100699780Y-61221528D01*
X100819874Y-61282719D01*
X100819876Y-61282719D01*
X100819878Y-61282720D01*
X100919507Y-61298500D01*
X100919512Y-61298500D01*
X101836493Y-61298500D01*
X101936122Y-61282720D01*
X101936123Y-61282719D01*
X101936126Y-61282719D01*
X101976762Y-61262013D01*
X102033055Y-61248500D01*
X102913670Y-61248500D01*
X102913672Y-61248500D01*
X102913673Y-61248500D01*
X103053683Y-61210984D01*
X103115566Y-61175256D01*
X103179213Y-61138510D01*
X103519409Y-60798313D01*
X103568018Y-60768313D01*
X104521000Y-60452000D01*
X105628764Y-59467321D01*
X105691948Y-59437495D01*
X105711145Y-59436000D01*
X106719574Y-59436000D01*
X106786613Y-59455685D01*
X106818839Y-59485687D01*
X106830758Y-59501609D01*
X106834452Y-59506544D01*
X106834454Y-59506546D01*
X106834457Y-59506548D01*
X106949664Y-59592793D01*
X106949671Y-59592797D01*
X106994618Y-59609561D01*
X107084517Y-59643091D01*
X107144127Y-59649500D01*
X107739872Y-59649499D01*
X107799483Y-59643091D01*
X107934331Y-59592796D01*
X108049546Y-59506546D01*
X108065159Y-59485688D01*
X108121092Y-59443819D01*
X108164426Y-59436000D01*
X108619574Y-59436000D01*
X108686613Y-59455685D01*
X108718839Y-59485687D01*
X108730758Y-59501609D01*
X108734452Y-59506544D01*
X108734454Y-59506546D01*
X108734457Y-59506548D01*
X108849664Y-59592793D01*
X108849671Y-59592797D01*
X108894618Y-59609561D01*
X108984517Y-59643091D01*
X109044127Y-59649500D01*
X109639872Y-59649499D01*
X109699483Y-59643091D01*
X109834331Y-59592796D01*
X109949546Y-59506546D01*
X110035796Y-59391331D01*
X110086091Y-59256483D01*
X110092500Y-59196873D01*
X110092499Y-58543998D01*
X110112183Y-58476961D01*
X110164987Y-58431206D01*
X110216499Y-58420000D01*
X117779364Y-58420000D01*
X117846403Y-58439685D01*
X117890273Y-58488546D01*
X118096909Y-58901818D01*
X118110000Y-58957272D01*
X118110000Y-59944000D01*
X118261658Y-60095658D01*
X118290155Y-60147847D01*
X118290860Y-60147556D01*
X118293573Y-60154106D01*
X118295143Y-60156981D01*
X118295525Y-60158819D01*
X118295533Y-60158839D01*
X118295534Y-60158840D01*
X118350899Y-60241701D01*
X118408500Y-60280188D01*
X118433760Y-60297066D01*
X118433764Y-60297067D01*
X118506821Y-60311599D01*
X118506824Y-60311600D01*
X118506826Y-60311600D01*
X119745176Y-60311600D01*
X119745177Y-60311599D01*
X119818240Y-60297066D01*
X119901101Y-60241701D01*
X119901101Y-60241699D01*
X119901103Y-60241699D01*
X119908484Y-60234319D01*
X119935411Y-60219615D01*
X119961230Y-60203023D01*
X119967430Y-60202131D01*
X119969807Y-60200834D01*
X119996165Y-60198000D01*
X120018000Y-60198000D01*
X120085039Y-60217685D01*
X120130794Y-60270489D01*
X120142000Y-60322000D01*
X120142000Y-60486300D01*
X120122315Y-60553339D01*
X120069511Y-60599094D01*
X120018000Y-60610300D01*
X119730425Y-60610300D01*
X119657360Y-60624833D01*
X119657359Y-60624834D01*
X119651386Y-60628825D01*
X119584708Y-60649700D01*
X119517328Y-60631212D01*
X119513611Y-60628823D01*
X119507642Y-60624835D01*
X119507635Y-60624832D01*
X119434577Y-60610300D01*
X119434574Y-60610300D01*
X119130426Y-60610300D01*
X119130423Y-60610300D01*
X119057364Y-60624832D01*
X119057360Y-60624833D01*
X118974499Y-60680199D01*
X118919133Y-60763060D01*
X118919132Y-60763064D01*
X118904600Y-60836121D01*
X118904600Y-61591878D01*
X118919132Y-61664935D01*
X118919133Y-61664939D01*
X118919134Y-61664940D01*
X118974499Y-61747801D01*
X119024578Y-61781262D01*
X119057360Y-61803166D01*
X119057364Y-61803167D01*
X119130421Y-61817699D01*
X119130424Y-61817700D01*
X119256000Y-61817700D01*
X119323039Y-61837385D01*
X119368794Y-61890189D01*
X119380000Y-61941700D01*
X119380000Y-63884000D01*
X119360315Y-63951039D01*
X119307511Y-63996794D01*
X119256000Y-64008000D01*
X118274465Y-64008000D01*
X118245024Y-63999355D01*
X118215038Y-63992832D01*
X118210022Y-63989077D01*
X118207426Y-63988315D01*
X118186784Y-63971681D01*
X118178819Y-63963716D01*
X118145334Y-63902393D01*
X118142500Y-63876035D01*
X118142500Y-63650329D01*
X118142500Y-63650327D01*
X118111799Y-63535750D01*
X118111799Y-63535749D01*
X118052489Y-63433022D01*
X117796386Y-63176919D01*
X117762901Y-63115596D01*
X117760749Y-63102221D01*
X117750000Y-63000000D01*
X117670829Y-63000000D01*
X117607621Y-62982680D01*
X117594187Y-62974720D01*
X117557978Y-62938511D01*
X117455251Y-62879201D01*
X117431037Y-62872713D01*
X117414581Y-62868303D01*
X117414580Y-62868303D01*
X117372564Y-62857045D01*
X117340673Y-62848500D01*
X116641327Y-62848500D01*
X116550961Y-62872713D01*
X116550960Y-62872712D01*
X116526752Y-62879199D01*
X116526749Y-62879200D01*
X116424022Y-62938511D01*
X116424019Y-62938513D01*
X116398852Y-62963681D01*
X116337529Y-62997166D01*
X116311171Y-63000000D01*
X114374000Y-63000000D01*
X114306961Y-62980315D01*
X114261206Y-62927511D01*
X114250000Y-62876000D01*
X114250000Y-61250000D01*
X114249999Y-61249999D01*
X112558083Y-61232626D01*
X112491249Y-61212255D01*
X112485045Y-61207900D01*
X112421331Y-61160204D01*
X112421328Y-61160202D01*
X112286482Y-61109908D01*
X112286483Y-61109908D01*
X112226883Y-61103501D01*
X112226881Y-61103500D01*
X112226873Y-61103500D01*
X112226864Y-61103500D01*
X111181129Y-61103500D01*
X111181123Y-61103501D01*
X111121516Y-61109908D01*
X110986671Y-61160202D01*
X110986665Y-61160205D01*
X110946099Y-61190573D01*
X110880635Y-61214989D01*
X110870517Y-61215298D01*
X110744046Y-61214000D01*
X110744000Y-61214000D01*
X108569772Y-61214000D01*
X108502733Y-61194315D01*
X108482091Y-61177681D01*
X108164138Y-60859727D01*
X108164137Y-60859726D01*
X108157244Y-60855120D01*
X108057591Y-60788535D01*
X108012993Y-60770062D01*
X107939208Y-60739499D01*
X107939202Y-60739497D01*
X107813535Y-60714500D01*
X107813533Y-60714500D01*
X107303931Y-60714500D01*
X107303929Y-60714500D01*
X107178262Y-60739497D01*
X107178258Y-60739498D01*
X107178256Y-60739499D01*
X107104466Y-60770062D01*
X107057019Y-60779500D01*
X106585606Y-60779500D01*
X106487721Y-60795003D01*
X106369743Y-60855116D01*
X106369742Y-60855117D01*
X106369737Y-60855120D01*
X106276120Y-60948737D01*
X106276117Y-60948742D01*
X106216001Y-61066723D01*
X106200500Y-61164599D01*
X106200500Y-61565393D01*
X106204695Y-61591878D01*
X106216003Y-61663279D01*
X106276116Y-61781257D01*
X106276118Y-61781259D01*
X106276120Y-61781262D01*
X106369737Y-61874879D01*
X106369739Y-61874880D01*
X106369743Y-61874884D01*
X106487721Y-61934997D01*
X106487723Y-61934998D01*
X106585599Y-61950499D01*
X106585605Y-61950500D01*
X107057018Y-61950499D01*
X107104471Y-61959938D01*
X107178256Y-61990501D01*
X107178260Y-61990501D01*
X107178261Y-61990502D01*
X107303928Y-62015500D01*
X107303931Y-62015500D01*
X107428656Y-62015500D01*
X107458098Y-62024145D01*
X107488082Y-62030668D01*
X107493097Y-62034422D01*
X107495695Y-62035185D01*
X107516331Y-62051813D01*
X107659683Y-62195165D01*
X107693166Y-62256484D01*
X107696000Y-62282843D01*
X107696000Y-63655500D01*
X107676315Y-63722539D01*
X107623511Y-63768294D01*
X107572000Y-63779500D01*
X106585606Y-63779500D01*
X106487721Y-63795003D01*
X106369743Y-63855116D01*
X106369742Y-63855117D01*
X106369737Y-63855120D01*
X106276120Y-63948737D01*
X106276117Y-63948742D01*
X106276116Y-63948743D01*
X106256078Y-63988069D01*
X106216001Y-64066723D01*
X106200500Y-64164599D01*
X106200500Y-64565393D01*
X106210195Y-64626603D01*
X106201239Y-64695897D01*
X106156242Y-64749348D01*
X106089490Y-64769987D01*
X106087721Y-64770000D01*
X102740000Y-64770000D01*
X102672961Y-64750315D01*
X102627206Y-64697511D01*
X102616000Y-64646000D01*
X102616000Y-62738000D01*
X102615998Y-62737999D01*
X102311399Y-62699924D01*
X102247318Y-62672077D01*
X102209738Y-62617837D01*
X102180793Y-62535119D01*
X102180792Y-62535117D01*
X102100150Y-62425850D01*
X101990882Y-62345207D01*
X101990880Y-62345206D01*
X101862700Y-62300353D01*
X101832270Y-62297500D01*
X101832266Y-62297500D01*
X100923734Y-62297500D01*
X100923730Y-62297500D01*
X100893300Y-62300353D01*
X100893298Y-62300353D01*
X100765119Y-62345206D01*
X100765117Y-62345207D01*
X100655850Y-62425850D01*
X100655844Y-62425855D01*
X100645699Y-62439602D01*
X100590051Y-62481851D01*
X100586175Y-62483254D01*
X100583999Y-62484000D01*
X100366319Y-62701681D01*
X100304996Y-62735166D01*
X100278638Y-62738000D01*
X98422000Y-62738000D01*
X98354961Y-62718315D01*
X98309206Y-62665511D01*
X98298000Y-62614000D01*
X98298000Y-58217362D01*
X98317685Y-58150323D01*
X98334319Y-58129681D01*
X98515681Y-57948319D01*
X98577004Y-57914834D01*
X98603362Y-57912000D01*
X100550336Y-57912000D01*
X100617375Y-57931685D01*
G37*
%TD.AperFunction*%
%TD*%
M02*
