M48
; DRILL file {KiCad 9.0.1} date 2026-03-04T19:57:25-0500
; FORMAT={-:-/ absolute / inch / decimal}
; #@! TF.CreationDate,2026-03-04T19:57:25-05:00
; #@! TF.GenerationSoftware,Kicad,Pcbnew,9.0.1
; #@! TF.FileFunction,Plated,1,2,PTH
FMAT,2
INCH
; #@! TA.AperFunction,Plated,PTH,ViaDrill
T1C0.0118
; #@! TA.AperFunction,Plated,PTH,ComponentDrill
T2C0.0118
; #@! TA.AperFunction,Plated,PTH,ComponentDrill
T3C0.0236
; #@! TA.AperFunction,Plated,PTH,ComponentDrill
T4C0.0394
; #@! TA.AperFunction,Plated,PTH,ComponentDrill
T5C0.0433
%
G90
G05
T1
X3.7795Y-2.126
X3.7795Y-2.2441
X3.7795Y-2.2835
X3.7795Y-2.3228
X3.7795Y-2.3622
X3.7795Y-2.4016
X3.7795Y-2.4409
X3.7795Y-2.4803
X3.7992Y-3.0512
X3.7992Y-3.0906
X3.7992Y-3.1299
X3.7992Y-3.1693
X3.7992Y-3.2087
X3.7992Y-3.248
X3.7992Y-3.2874
X3.8189Y-2.126
X3.8189Y-2.2441
X3.8189Y-2.2835
X3.8189Y-2.3228
X3.8189Y-2.3622
X3.8189Y-2.4016
X3.8189Y-2.4409
X3.8189Y-2.4803
X3.8386Y-3.0512
X3.8386Y-3.0906
X3.8386Y-3.1299
X3.8386Y-3.1693
X3.8386Y-3.2087
X3.8386Y-3.248
X3.8386Y-3.2874
X3.8583Y-2.126
X3.878Y-3.1693
X3.878Y-3.2087
X3.878Y-3.248
X3.878Y-3.2874
X3.8976Y-2.126
X3.9173Y-3.1693
X3.9173Y-3.2087
X3.9173Y-3.248
X3.9173Y-3.2874
X3.937Y-2.126
X3.9567Y-3.1693
X3.9567Y-3.2087
X3.9567Y-3.248
X3.9567Y-3.2874
X3.9764Y-2.126
X3.9961Y-3.1693
X3.9961Y-3.2087
X3.9961Y-3.248
X3.9961Y-3.2874
X4.0157Y-2.126
X4.0157Y-2.1654
X4.0354Y-3.1693
X4.0354Y-3.2087
X4.0354Y-3.248
X4.0354Y-3.2874
X4.0551Y-2.126
X4.0551Y-2.1654
X4.0551Y-2.2047
X4.0748Y-3.1693
X4.0748Y-3.2087
X4.0748Y-3.248
X4.0748Y-3.2874
X4.0945Y-2.126
X4.0945Y-2.1654
X4.0945Y-2.2047
X4.1142Y-3.1693
X4.1142Y-3.2087
X4.1142Y-3.248
X4.1142Y-3.2874
X4.1339Y-2.126
X4.1339Y-2.1654
X4.1339Y-2.2047
X4.1535Y-3.1693
X4.1535Y-3.2087
X4.1535Y-3.248
X4.1535Y-3.2874
X4.1732Y-2.126
X4.1732Y-2.1654
X4.2126Y-2.126
X4.23Y-2.16
X4.252Y-2.126
X4.265Y-2.65
X4.27Y-2.27
X4.2913Y-2.126
X4.2913Y-2.1654
X4.3307Y-2.126
X4.3307Y-2.1654
X4.345Y-2.44
X4.3701Y-2.126
X4.3701Y-2.1654
X4.3701Y-2.2047
X4.4094Y-2.126
X4.4094Y-2.1654
X4.4094Y-2.2047
X4.4488Y-2.126
X4.4488Y-2.1654
X4.4488Y-2.2047
X4.4882Y-2.126
X4.4882Y-2.1654
X4.4882Y-2.2047
X4.5033Y-3.2134
X4.51Y-2.51
X4.5276Y-2.126
X4.5276Y-2.1654
X4.5276Y-2.2047
X4.5551Y-2.7149
X4.5669Y-2.126
X4.5669Y-2.1654
X4.5669Y-2.2047
X4.58Y-3.21
X4.6059Y-2.5197
X4.6063Y-2.126
X4.6063Y-2.1654
X4.6063Y-2.2047
X4.63Y-2.73
X4.6654Y-2.7362
X4.6654Y-2.7756
X4.6654Y-2.815
X4.6654Y-2.8543
X4.6654Y-2.8937
X4.6654Y-2.9331
X4.6654Y-2.9724
X4.6654Y-3.0118
X4.7047Y-2.7362
X4.7047Y-2.7756
X4.7047Y-2.815
X4.7047Y-2.8543
X4.7047Y-2.8937
X4.7047Y-2.9331
X4.7047Y-2.9724
X4.7047Y-3.0118
X4.7441Y-2.7362
X4.7441Y-2.7756
X4.7441Y-2.815
X4.7441Y-2.8543
X4.7441Y-2.8937
X4.7441Y-2.9331
X4.7441Y-2.9724
X4.7441Y-3.0118
X4.88Y-2.28
X4.88Y-2.5
X4.94Y-2.47
X4.9803Y-2.126
X4.9803Y-2.1654
X4.9803Y-2.2047
X4.9803Y-2.2441
X4.9803Y-2.2835
X5.0197Y-2.126
X5.0197Y-2.1654
X5.0197Y-2.2047
X5.0197Y-2.2441
X5.0197Y-2.2835
X5.0591Y-2.126
X5.0591Y-2.1654
X5.0591Y-2.2047
X5.0591Y-2.2441
X5.0591Y-2.2835
X5.0984Y-2.126
X5.0984Y-2.1654
X5.0984Y-2.2047
X5.0984Y-2.2441
X5.0984Y-2.2835
X5.0984Y-2.3228
X5.1378Y-2.126
X5.1378Y-2.1654
X5.1378Y-2.2047
X5.1378Y-2.2441
X5.1378Y-2.2835
X5.1378Y-2.3228
X5.1772Y-2.126
X5.1772Y-2.1654
X5.1772Y-2.2047
X5.1772Y-2.2441
X5.1772Y-2.2835
X5.1772Y-2.3228
X5.1772Y-2.3622
X5.1772Y-2.4016
X5.1772Y-2.4409
X5.2165Y-2.126
X5.2165Y-2.1654
X5.2165Y-2.2047
X5.2165Y-2.2441
X5.2165Y-2.2835
X5.2165Y-2.3228
X5.2165Y-2.3622
X5.2165Y-2.4016
X5.2165Y-2.4409
T2
X4.1292Y-2.475
X4.1685Y-2.475
T4
X5.15Y-3.02
X5.15Y-3.12
X5.15Y-3.22
T5
X5.0648Y-2.6016
X5.0648Y-2.7984
T3
G00X3.8503Y-2.1999
M15
G01X3.8267Y-2.1999
M16
G05
G00X3.8503Y-2.5401
M15
G01X3.8267Y-2.5401
M16
G05
G00X3.9999Y-2.1999
M15
G01X3.9763Y-2.1999
M16
G05
G00X3.9999Y-2.5401
M15
G01X3.9763Y-2.5401
M16
G05
M30
